<?xml version="1.0" standalone="no"?>
<!DOCTYPE svg PUBLIC "-//W3C//DTD SVG 1.1//EN" "http://www.w3.org/Graphics/SVG/1.1/DTD/svg11.dtd" >
<svg>
<metadata>
Created by FontForge 20110222 at Tue Aug 13 00:54:41 2013
 By Orthosie Webhosting
Digitised data (c) 2004 Monotype Imaging. All Rights Reserved. Neo Sans is designed by Sebastian Lester.
</metadata>
<defs>
<font id="NeoSansProLightItalic" horiz-adv-x="580" >
  <font-face 
    font-family="NeoSansProLightItalic"
    font-weight="300"
    font-style="italic"
    font-stretch="normal"
    units-per-em="1000"
    panose-1="2 11 3 4 3 5 4 11 2 4"
    ascent="765"
    descent="-235"
    x-height="537"
    cap-height="743"
    bbox="-167.095 -216 1383 968"
    underline-thickness="42"
    underline-position="-35"
    slope="-11"
    unicode-range="U+0020-FB04"
  />
<missing-glyph horiz-adv-x="500" 
d="M12 665h475v-665h-475v665zM250 375l161 243h-323zM60 91l7 10t18 27t25.5 39t29.5 45q35 54 81 121l-161 242v-484zM278 333l162 -243v485zM250 290l-162 -242h323z" />
    <glyph glyph-name="f_b" unicode="fb" horiz-adv-x="881" 
d="M841 376q0 64 -29 95.5t-95 31.5q-15 0 -33 -1t-37 -3.5t-37 -5t-33 -5.5l-78 -442q26 -5 63 -9t73 -4q43 0 75 13.5t54.5 39t37 63.5t22.5 88l11 66q4 20 5 38t1 35zM585 529q30 6 65.5 9.5t72.5 3.5q162 0 162 -167q0 -33 -6 -72l-11 -66q-9 -56 -27 -101t-46 -76.5
t-68 -48.5t-94 -17q-21 0 -44 1.5t-45.5 4.5t-43 6.5t-36.5 6.5q-12 3 -12 11q0 5 1 8l120 677h-176q-35 0 -55.5 -15t-28.5 -64l-16 -93h119q8 0 13 -3.5t3 -12.5l-2 -9q-2 -8 -6 -12t-16 -4h-119l-95 -539q-6 -35 -17.5 -57.5t-28.5 -36t-39 -19t-49 -5.5q-23 0 -32 0.5
t-19 2.5q-17 3 -16 15l1 8q2 9 7 11t16 2h50q18 0 31.5 3t23.5 11.5t17 24t11 40.5l95 539h-99q-8 0 -13 3.5t-3 14.5l2 7q3 10 7.5 13t14.5 3h99l16 93q6 35 18 57.5t29 36t39 19t49 5.5q11 0 40.5 -0.5t61.5 -1t58 -1t31 -0.5q13 -1 19.5 -4t4.5 -17z" />
    <glyph glyph-name="f_f_b" unicode="ffb" horiz-adv-x="1180" 
d="M1140 376q0 64 -29 95.5t-95 31.5q-15 0 -33 -1t-37 -3.5t-37 -5t-33 -5.5l-78 -442q26 -5 63 -9t73 -4q43 0 75 13.5t54.5 39t37 63.5t22.5 88l11 66q4 20 5 38t1 35zM289 496l-95 -539q-6 -35 -17.5 -57.5t-28.5 -36t-39 -19t-49 -5.5q-23 0 -32 0.5t-19 2.5
q-17 3 -16 15l1 8q2 9 7 11t16 2h50q18 0 31.5 3t23.5 11.5t17 24t11 40.5l95 539h-99q-8 0 -13 3.5t-3 14.5l2 7q3 10 7.5 13t14.5 3h99l16 93q6 35 17.5 57.5t28.5 36t39 19t49 5.5q23 0 32 -0.5t19 -2.5q17 -3 16 -15l-1 -8q-2 -9 -7 -11t-16 -2h-50q-35 0 -55 -15
t-28 -64l-16 -93h255l16 93q6 35 18 57.5t29 36t39 19t49 5.5q11 0 40.5 -0.5t61.5 -1t58 -1t31 -0.5q13 -1 19.5 -4t4.5 -17l-34 -195q30 6 65.5 9.5t72.5 3.5q162 0 162 -167q0 -33 -6 -72l-11 -66q-9 -56 -27 -101t-46 -76.5t-68 -48.5t-94 -17q-21 0 -44 1.5t-45.5 4.5
t-43 6.5t-36.5 6.5q-12 3 -12 11q0 5 1 8l120 677h-176q-35 0 -55.5 -15t-28.5 -64l-16 -93h119q8 0 13 -3.5t3 -12.5l-2 -9q-2 -8 -6 -12t-16 -4h-119l-95 -539q-6 -35 -17.5 -57.5t-28.5 -36t-39 -19t-49 -5.5q-23 0 -32 0.5t-19 2.5q-17 3 -16 15l1 8q2 9 7 11t16 2h50
q18 0 31.5 3t23.5 11.5t17 24t11 40.5l95 539h-255z" />
    <glyph glyph-name="f_f_h" unicode="ffh" horiz-adv-x="1180" 
d="M289 496l-95 -539q-6 -35 -17.5 -57.5t-28.5 -36t-39 -19t-49 -5.5q-23 0 -32 0.5t-19 2.5q-17 3 -16 15l1 8q2 9 7 11t16 2h50q18 0 31.5 3t23.5 11.5t17 24t11 40.5l95 539h-99q-8 0 -13 3.5t-3 14.5l2 7q3 10 7.5 13t14.5 3h99l16 93q6 35 17.5 57.5t28.5 36t39 19
t49 5.5q23 0 32 -0.5t19 -2.5q17 -3 16 -15l-1 -8q-2 -9 -7 -11t-16 -2h-50q-35 0 -55 -15t-28 -64l-16 -93h255l16 93q6 35 18 57.5t29 36t39 19t49 5.5q11 0 40.5 -0.5t61.5 -1t58 -1t31 -0.5q13 -1 19.5 -4t4.5 -17l-35 -199q31 8 68 12.5t70 4.5q43 0 74 -10.5
t50.5 -29.5t28.5 -45.5t9 -57.5q0 -12 -1.5 -24t-3.5 -25l-59 -331q-2 -8 -7 -13.5t-13 -5.5h-10q-7 0 -10 4.5t-3 10.5v3v1l59 331q2 14 3.5 26t1.5 23q0 52 -29.5 78t-96.5 26q-32 0 -70 -5.5t-68 -13.5l-83 -465q-2 -8 -7 -13.5t-13 -5.5h-10q-7 0 -10.5 4.5t-3.5 10.5v3
v1l123 690h-176q-35 0 -55.5 -15t-28.5 -64l-16 -93h119q8 0 13 -3.5t3 -12.5l-2 -9q-2 -8 -6 -12t-16 -4h-119l-95 -539q-6 -35 -17.5 -57.5t-28.5 -36t-39 -19t-49 -5.5q-23 0 -32 0.5t-19 2.5q-17 3 -16 15l1 8q2 9 7 11t16 2h50q18 0 31.5 3t23.5 11.5t16.5 24
t11.5 40.5l95 539h-255z" />
    <glyph glyph-name="f_f_j" unicode="ffj" horiz-adv-x="880" 
d="M289 496l-95 -539q-6 -35 -17.5 -57.5t-28.5 -36t-39 -19t-49 -5.5q-23 0 -32 0.5t-19 2.5q-17 3 -16 15l1 8q2 9 7 11t16 2h50q18 0 31.5 3t23.5 11.5t17 24t11 40.5l95 539h-99q-8 0 -13 3.5t-3 14.5l2 7q3 10 7.5 13t14.5 3h99l16 93q6 35 17.5 57.5t28.5 36t39 19
t49 5.5q23 0 32 -0.5t19 -2.5q17 -3 16 -15l-1 -8q-2 -9 -7 -11t-16 -2h-50q-35 0 -55 -15t-28 -64l-16 -93h255l16 93q6 35 17.5 57.5t28.5 36t39 19t49 5.5q23 0 32 -0.5t19 -2.5q17 -3 16 -15l-1 -8q-2 -9 -7 -11t-16 -2h-50q-35 0 -55 -15t-28 -64l-16 -93h282
q7 0 11 -4t2 -15l-106 -604q-6 -31 -15 -52t-23 -33.5t-34.5 -18t-49.5 -5.5q-13 0 -22 0.5t-20 2.5q-14 3 -14 12v2l1 9q1 7 4 9.5t13 2.5h44q17 0 29 2.5t20 10.5t13.5 21.5t9.5 36.5l102 582h-255l-95 -539q-6 -35 -17.5 -57.5t-28.5 -36t-39 -19t-49 -5.5q-23 0 -32 0.5
t-19 2.5q-17 3 -16 15l1 8q2 9 7 11t16 2h50q18 0 31.5 3t23.5 11.5t16.5 24t11.5 40.5l95 539h-255zM929 729l-14 -74q-2 -11 -8 -15t-14 -4h-6q-16 0 -16 14v5l14 74q2 12 8 15.5t14 3.5h6q8 0 12 -4.5t4 -10.5v-4z" />
    <glyph glyph-name="f_f_k" unicode="ffk" horiz-adv-x="1120" 
d="M289 496l-95 -539q-6 -35 -17.5 -57.5t-28.5 -36t-39 -19t-49 -5.5q-23 0 -32 0.5t-19 2.5q-17 3 -16 15l1 8q2 9 7 11t16 2h50q18 0 31.5 3t23.5 11.5t17 24t11 40.5l95 539h-99q-8 0 -13 3.5t-3 14.5l2 7q3 10 7.5 13t14.5 3h99l16 93q6 35 17.5 57.5t28.5 36t39 19
t49 5.5q23 0 32 -0.5t19 -2.5q17 -3 16 -15l-1 -8q-2 -9 -7 -11t-16 -2h-50q-35 0 -55 -15t-28 -64l-16 -93h255l16 93q6 35 18 57.5t29 36t39 19t49 5.5q11 0 40.5 -0.5t61.5 -1t58 -1t31 -0.5q13 -1 19.5 -4t4.5 -17l-75 -421l287 230q6 5 11.5 7t16.5 2q18 0 18 -13
q0 -11 -13 -21l-285 -226l202 -259q5 -7 5 -13q0 -16 -20 -16q-9 0 -16.5 2t-13.5 10l-197 259l-45 -246q-2 -8 -8 -13.5t-14 -5.5h-6q-16 0 -16 16v3l122 690h-175q-35 0 -55.5 -15t-28.5 -64l-16 -93h119q8 0 13 -3.5t3 -12.5l-2 -9q-2 -8 -6 -12t-16 -4h-119l-95 -539
q-6 -35 -17.5 -57.5t-28.5 -36t-39 -19t-49 -5.5q-23 0 -32 0.5t-19 2.5q-17 3 -16 15l1 8q2 9 7 11t16 2h50q18 0 31.5 3t23.5 11.5t16.5 24t11.5 40.5l95 539h-255z" />
    <glyph glyph-name="f_h" unicode="fh" horiz-adv-x="881" 
d="M584 525q31 8 68 12.5t70 4.5q43 0 74 -10.5t50.5 -29.5t28.5 -45.5t9 -57.5q0 -12 -1.5 -24t-3.5 -25l-59 -331q-2 -8 -7 -13.5t-13 -5.5h-10q-7 0 -10 4.5t-3 10.5v3v1l59 331q2 14 3.5 26t1.5 23q0 52 -29.5 78t-96.5 26q-32 0 -70 -5.5t-68 -13.5l-83 -465
q-2 -8 -7 -13.5t-13 -5.5h-10q-7 0 -10.5 4.5t-3.5 10.5v3v1l123 690h-176q-35 0 -55.5 -15t-28.5 -64l-16 -93h119q8 0 13 -3.5t3 -12.5l-2 -9q-2 -8 -6 -12t-16 -4h-119l-95 -539q-6 -35 -17.5 -57.5t-28.5 -36t-39 -19t-49 -5.5q-23 0 -32 0.5t-19 2.5q-17 3 -16 15l1 8
q2 9 7 11t16 2h50q18 0 31.5 3t23.5 11.5t17 24t11 40.5l95 539h-99q-8 0 -13 3.5t-3 14.5l2 7q3 10 7.5 13t14.5 3h99l16 93q6 35 18 57.5t29 36t39 19t49 5.5q11 0 40.5 -0.5t61.5 -1t58 -1t31 -0.5q13 -1 19.5 -4t4.5 -17z" />
    <glyph glyph-name="f_j" unicode="fj" horiz-adv-x="581" 
d="M194 -43q-6 -35 -17.5 -57.5t-28.5 -36t-39 -19t-49 -5.5q-23 0 -32 0.5t-19 2.5q-17 3 -16 15l1 8q2 9 7 11t16 2h50q18 0 31.5 3t23.5 11.5t17 24t11 40.5l95 539h-99q-8 0 -13 3.5t-3 14.5l2 7q3 10 7.5 13t14.5 3h99l16 93q6 35 17.5 57.5t28.5 36t39 19t49 5.5
q23 0 32 -0.5t19 -2.5q17 -3 16 -15l-1 -8q-2 -9 -7 -11t-16 -2h-50q-35 0 -55 -15t-28 -64l-16 -93h282q7 0 11 -4t2 -15l-106 -604q-6 -31 -15 -52t-23 -33.5t-34.5 -18t-49.5 -5.5q-13 0 -22 0.5t-20 2.5q-14 3 -14 12v2l1 9q1 7 4 9.5t13 2.5h44q17 0 29 2.5t20 10.5
t13.5 21.5t9.5 36.5l102 582h-255zM630 729l-14 -74q-2 -11 -8 -15t-14 -4h-6q-16 0 -16 14v5l14 74q2 12 8 15.5t14 3.5h6q8 0 12 -4.5t4 -10.5v-4z" />
    <glyph glyph-name="f_k" unicode="fk" horiz-adv-x="821" 
d="M397 709q-35 0 -55.5 -15t-28.5 -64l-16 -93h119q8 0 13 -3.5t3 -12.5l-2 -9q-2 -8 -6 -12t-16 -4h-119l-95 -539q-6 -35 -17.5 -57.5t-28.5 -36t-39 -19t-49 -5.5q-23 0 -32 0.5t-19 2.5q-17 3 -16 15l1 8q2 9 7 11t16 2h50q18 0 31.5 3t23.5 11.5t17 24t11 40.5l95 539
h-99q-8 0 -13 3.5t-3 14.5l2 7q3 10 7.5 13t14.5 3h99l16 93q6 35 18 57.5t29 36t39 19t49 5.5q11 0 40.5 -0.5t61.5 -1t58 -1t31 -0.5q13 -1 19.5 -4t4.5 -17l-75 -421l287 230q6 5 11.5 7t16.5 2q18 0 18 -13q0 -11 -13 -21l-285 -226l202 -259q5 -7 5 -13q0 -16 -20 -16
q-9 0 -16.5 2t-13.5 10l-197 259l-45 -246q-2 -8 -8 -13.5t-14 -5.5h-6q-16 0 -16 16v3l122 690h-175z" />
    <glyph glyph-name="f_f" unicode="ff" horiz-adv-x="676" 
d="M493 -43q-6 -35 -17.5 -57.5t-28.5 -36t-39 -19t-49 -5.5q-23 0 -32 0.5t-19 2.5q-17 3 -16 15l1 8q2 9 7 11t16 2h50q18 0 31.5 3t23.5 11.5t17 24t11 40.5l95 539h-255l-95 -539q-6 -35 -17.5 -57.5t-28.5 -36t-39 -19t-49 -5.5q-23 0 -32 0.5t-19 2.5q-17 3 -16 15
l1 8q2 9 7 11t16 2h50q18 0 31.5 3t23.5 11.5t17 24t11 40.5l95 539h-99q-8 0 -13 3.5t-3 14.5l2 7q3 10 7.5 13t14.5 3h99l16 93q6 35 17.5 57.5t28.5 36t39 19t49 5.5q23 0 32 -0.5t19 -2.5q17 -3 16 -15l-1 -8q-2 -9 -7 -11t-16 -2h-50q-35 0 -55 -15t-28 -64l-16 -93
h255l16 93q6 35 17.5 57.5t28.5 36t39 19t49 5.5q23 0 32 -0.5t19 -2.5q17 -3 16 -15l-1 -8q-2 -9 -7 -11t-16 -2h-50q-35 0 -55 -15t-28 -64l-16 -93h119q8 0 13 -3.5t3 -12.5l-2 -9q-2 -8 -6 -12t-16 -4h-119z" />
    <glyph glyph-name="fi" unicode="fi" horiz-adv-x="581" 
d="M194 -43q-6 -35 -17.5 -57.5t-28.5 -36t-39 -19t-49 -5.5q-23 0 -32 0.5t-19 2.5q-17 3 -16 15l1 8q2 9 7 11t16 2h50q18 0 31.5 3t23.5 11.5t17 24t11 40.5l95 539h-99q-8 0 -13 3.5t-3 14.5l2 7q3 10 7.5 13t14.5 3h99l16 93q6 35 17.5 57.5t28.5 36t39 19t49 5.5
q23 0 32 -0.5t19 -2.5q17 -3 16 -15l-1 -8q-2 -9 -7 -11t-16 -2h-50q-35 0 -55 -15t-28 -64l-16 -93h282q16 0 13 -19l-88 -499q-2 -8 -6 -13.5t-16 -5.5h-6q-19 0 -16 19l84 477h-255zM588 636q-11 0 -14.5 5t-1.5 14l14 74q2 12 8 15.5t14 3.5h6q21 0 16 -19l-14 -74
q-2 -11 -8 -15t-14 -4h-6z" />
    <glyph glyph-name="fl" unicode="fl" horiz-adv-x="581" 
d="M397 709q-35 0 -55.5 -15t-28.5 -64l-16 -93h119q8 0 13 -3.5t3 -12.5l-2 -9q-2 -8 -6 -12t-16 -4h-119l-95 -539q-6 -35 -17.5 -57.5t-28.5 -36t-39 -19t-49 -5.5q-23 0 -32 0.5t-19 2.5q-17 3 -16 15l1 8q2 9 7 11t16 2h50q18 0 31.5 3t23.5 11.5t17 24t11 40.5l95 539
h-99q-8 0 -13 3.5t-3 14.5l2 7q3 10 7.5 13t14.5 3h99l16 93q6 35 18 57.5t29 36t39 19t49 5.5q11 0 42 -0.5t65 -1t61.5 -1t32.5 -0.5q13 -1 19.5 -4t4.5 -17l-125 -705q-2 -8 -7 -13.5t-13 -5.5h-10q-7 0 -10.5 4.5t-3.5 10.5v4l122 690h-185z" />
    <glyph glyph-name="f_f_i" unicode="ffi" horiz-adv-x="880" 
d="M289 496l-95 -539q-6 -35 -17.5 -57.5t-28.5 -36t-39 -19t-49 -5.5q-23 0 -32 0.5t-19 2.5q-17 3 -16 15l1 8q2 9 7 11t16 2h50q18 0 31.5 3t23.5 11.5t17 24t11 40.5l95 539h-99q-8 0 -13 3.5t-3 14.5l2 7q3 10 7.5 13t14.5 3h99l16 93q6 35 17.5 57.5t28.5 36t39 19
t49 5.5q23 0 32 -0.5t19 -2.5q17 -3 16 -15l-1 -8q-2 -9 -7 -11t-16 -2h-50q-35 0 -55 -15t-28 -64l-16 -93h255l16 93q6 35 17.5 57.5t28.5 36t39 19t49 5.5q23 0 32 -0.5t19 -2.5q17 -3 16 -15l-1 -8q-2 -9 -7 -11t-16 -2h-50q-35 0 -55 -15t-28 -64l-16 -93h282
q16 0 13 -19l-88 -499q-2 -8 -6 -13.5t-16 -5.5h-6q-19 0 -16 19l84 477h-255l-95 -539q-6 -35 -17.5 -57.5t-28.5 -36t-39 -19t-49 -5.5q-23 0 -32 0.5t-19 2.5q-17 3 -16 15l1 8q2 9 7 11t16 2h50q18 0 31.5 3t23.5 11.5t17 24t11 40.5l95 539h-255zM887 636
q-11 0 -14.5 5t-1.5 14l14 74q2 12 8 15.5t14 3.5h6q21 0 16 -19l-14 -74q-2 -11 -8 -15t-14 -4h-6z" />
    <glyph glyph-name="f_f_l" unicode="ffl" horiz-adv-x="879" 
d="M289 496l-95 -539q-6 -35 -17.5 -57.5t-28.5 -36t-39 -19t-49 -5.5q-23 0 -32 0.5t-19 2.5q-17 3 -16 15l1 8q2 9 7 11t16 2h50q18 0 31.5 3t23.5 11.5t17 24t11 40.5l95 539h-99q-8 0 -13 3.5t-3 14.5l2 7q3 10 7.5 13t14.5 3h99l16 93q6 35 17.5 57.5t28.5 36t39 19
t49 5.5q23 0 32 -0.5t19 -2.5q17 -3 16 -15l-1 -8q-2 -9 -7 -11t-16 -2h-50q-35 0 -55 -15t-28 -64l-16 -93h255l16 93q6 35 18 57.5t29 36t39 19t49 5.5q11 0 42 -0.5t65 -1t61.5 -1t32.5 -0.5q13 -1 19.5 -4t4.5 -17l-125 -705q-2 -8 -7 -13.5t-13 -5.5h-10
q-7 0 -10.5 4.5t-3.5 10.5v4l122 690h-185q-35 0 -55.5 -15t-28.5 -64l-16 -93h119q8 0 13 -3.5t3 -12.5l-2 -9q-2 -8 -6 -12t-16 -4h-119l-95 -539q-6 -35 -17.5 -57.5t-28.5 -36t-39 -19t-49 -5.5q-23 0 -32 0.5t-19 2.5q-17 3 -16 15l1 8q2 9 7 11t16 2h50q18 0 31.5 3
t23.5 11.5t17 24t11 40.5l95 539h-255z" />
    <glyph glyph-name=".notdef" horiz-adv-x="500" 
d="M12 665h475v-665h-475v665zM250 375l161 243h-323zM60 91l7 10t18 27t25.5 39t29.5 45q35 54 81 121l-161 242v-484zM278 333l162 -243v485zM250 290l-162 -242h323z" />
    <glyph glyph-name=".null" horiz-adv-x="0" 
 />
    <glyph glyph-name="nonmarkingreturn" horiz-adv-x="215" 
 />
    <glyph glyph-name="space" unicode=" " horiz-adv-x="215" 
 />
    <glyph glyph-name="exclam" unicode="!" horiz-adv-x="204" 
d="M252 724l-94 -532q-2 -8 -8 -13.5t-14 -5.5h-6q-16 0 -16 16v3l94 532q2 8 8 13.5t14 5.5h6q16 0 16 -16v-3zM139 87l-13 -74q-2 -8 -8 -13.5t-14 -5.5h-6q-16 0 -16 16v3l13 74q2 8 8.5 13.5t14.5 5.5h6q15 0 15 -16v-3z" />
    <glyph glyph-name="quotedbl" unicode="&#x22;" horiz-adv-x="324" 
d="M401 735q0 -5 -3 -11l-79 -172q-8 -19 -22 -19h-15q-8 0 -8 7q0 6 3 12l72 172q8 19 23 19h19q10 0 10 -8zM276 735q0 -5 -3 -11l-79 -172q-8 -19 -22 -19h-15q-8 0 -8 7q0 6 3 12l72 172q8 19 23 19h19q10 0 10 -8z" />
    <glyph glyph-name="numbersign" unicode="#" horiz-adv-x="636" 
d="M674 501v-4q-2 -8 -8.5 -12.5t-14.5 -4.5h-104l-60 -226h104q14 0 14 -13v-4l-1 -3q-2 -8 -8.5 -12.5t-14.5 -4.5h-105l-52 -198q-2 -8 -7.5 -13.5t-13.5 -5.5h-9q-14 0 -14 14q0 1 0.5 2t0.5 3l52 198h-180l-52 -198q-2 -8 -7.5 -13.5t-13.5 -5.5h-10q-14 0 -14 14
q0 2 0.5 2.5t0.5 2.5l52 198h-103q-15 0 -15 13v4l1 3q2 8 9 12.5t15 4.5h104l60 226h-104q-15 0 -15 14v3v4q2 8 9 12.5t15 4.5h104l55 206q2 8 8 13.5t14 5.5h10q13 0 13 -14q0 -1 -0.5 -2t-0.5 -3l-55 -206h180l55 206q2 8 8 13.5t14 5.5h9q13 0 13 -13q0 -4 -1 -6
l-55 -206h104q14 0 14 -14v-3zM324 480l-60 -226h180l60 226h-180z" />
    <glyph glyph-name="dollar" unicode="$" 
d="M607 723l-2 -13q-3 -14 -21 -14q-8 0 -25 1.5t-37.5 3.5t-43 3.5t-41.5 1.5q-40 0 -78 -6t-67 -22t-47 -44t-18 -73q0 -15 5 -28.5t16 -27t30 -29.5t47 -35l87 -60q36 -25 60 -48t38 -44t19.5 -40.5t5.5 -38.5q0 -48 -17 -86t-47 -65t-71 -43t-89 -20l-18 -105
q-2 -8 -6.5 -13.5t-12.5 -5.5h-10q-7 0 -10 4.5t-3 10.5v3v1l18 103h-2q-49 0 -86.5 4t-66.5 7q-6 1 -10.5 4t-4.5 9v2v1l2 13q2 8 7.5 10.5t13.5 2.5h3h1q38 -3 72 -7t76 -4q44 0 83 9.5t68.5 30.5t46.5 54t17 80q0 16 -5.5 31t-18.5 30.5t-34 32.5t-52 39l-89 62
q-61 42 -85 79t-24 75q0 51 18 85t49 55.5t70.5 32.5t83.5 14l16 87q2 8 6 13.5t12 5.5h10q7 0 10.5 -4.5t3.5 -10.5v-3v-1l-16 -85h2q40 0 77.5 -3.5t69.5 -6.5q14 -2 14 -12v-2v-1z" />
    <glyph glyph-name="percent" unicode="%" horiz-adv-x="757" 
d="M422 637q0 -11 -1 -21.5t-3 -22.5l-19 -104q-15 -84 -54 -120t-99 -36q-50 0 -77 29t-27 83q0 11 1 21.5t3 22.5l19 104q15 84 55 119.5t99 35.5q48 0 75.5 -28t27.5 -83zM747 739q0 -4 -8 -15l-542 -711q-8 -11 -12 -15t-12 -4h-31q-6 0 -6 4t8 15l542 711q8 11 12 15
t12 4h30q7 0 7 -4zM746 297q0 -11 -1 -21.5t-3 -22.5l-19 -104q-15 -84 -54 -120t-99 -36q-50 0 -77 29t-27 83q0 11 1 21.5t3 22.5l19 104q15 84 55 119.5t99 35.5q48 0 75.5 -28t27.5 -83zM383 635q0 40 -18.5 57.5t-52.5 17.5q-40 0 -68.5 -28.5t-39.5 -88.5l-19 -104
q-2 -12 -3 -22.5t-1 -19.5q0 -41 19 -58t53 -17q42 0 69 28.5t38 88.5l19 104q2 12 3 22.5t1 19.5zM707 295q0 40 -18.5 57.5t-52.5 17.5q-40 0 -68.5 -28.5t-39.5 -88.5l-19 -104q-2 -12 -3 -22.5t-1 -19.5q0 -41 19 -58t53 -17q42 0 69 28.5t38 88.5l19 104q2 12 3 22.5
t1 19.5z" />
    <glyph glyph-name="ampersand" unicode="&#x26;" horiz-adv-x="637" 
d="M639 365q0 -2 -0.5 -3t-0.5 -3l-2 -11q-12 -68 -39.5 -130t-70.5 -110l71 -95q2 -2 2 -4q0 -9 -10 -9h-27q-5 0 -8 1t-7 6l-51 67q-43 -38 -98.5 -59t-122.5 -21q-38 0 -73.5 8t-63.5 25.5t-44.5 44t-16.5 64.5v15.5t2 15.5l2 6q5 27 15.5 51t31.5 47.5t55.5 49
t87.5 56.5q-14 20 -29 42.5t-28 47t-21.5 49.5t-8.5 51q0 5 0.5 11t1.5 11l1 6q7 46 28 75.5t50 46.5t65 24t75 7q31 0 59.5 -7t50.5 -22t35.5 -38t13.5 -56q0 -14 -3 -30l-1 -6q-5 -31 -17.5 -56t-35 -48t-57 -46t-82.5 -50l-38 -21q31 -43 75 -100l97 -128
q35 42 57.5 95.5t33.5 112.5l2 11q3 19 19 19h12q13 0 13 -13zM519 624q0 25 -9.5 41.5t-26 26t-38.5 13t-47 3.5q-32 0 -60 -5.5t-49.5 -18.5t-36 -34.5t-20.5 -54.5l-1 -6q-1 -6 -1.5 -11.5t-0.5 -10.5q0 -23 7.5 -45t19 -43t25.5 -41.5t28 -39.5l42 25q46 27 76 47.5
t48.5 39t27 37t12.5 42.5l1 6q3 15 3 29zM373 238q-23 31 -43 58t-37 50q-42 -24 -71.5 -43.5t-49 -38.5t-30 -41t-15.5 -50l-2 -6q-2 -8 -2 -15v-14q0 -30 12.5 -50t34 -32t50.5 -17t62 -5q59 0 107.5 19.5t84.5 51.5z" />
    <glyph glyph-name="quotesingle" unicode="'" horiz-adv-x="199" 
d="M276 735q0 -5 -3 -11l-79 -172q-8 -19 -22 -19h-15q-8 0 -8 7q0 6 3 12l72 172q8 19 23 19h19q10 0 10 -8z" />
    <glyph glyph-name="parenleft" unicode="(" horiz-adv-x="265" 
d="M374 738q0 -6 -5 -9q-41 -37 -76 -90.5t-62 -112.5t-46 -118t-27 -107l-9 -54q-5 -32 -8 -67.5t-3 -73.5q0 -40 3.5 -80.5t12 -78t21.5 -70.5t32 -58q3 -5 3 -7q0 -7 -8 -7h-25q-12 0 -16 7q-19 29 -32 64t-21 73t-11.5 78.5t-3.5 79.5q0 38 3 73t8 67l9 54
q8 47 25.5 105t43.5 117t61 114.5t78 98.5q6 7 18 7h27q8 0 8 -5z" />
    <glyph glyph-name="parenright" unicode=")" horiz-adv-x="265" 
d="M269 445q0 -39 -3 -75.5t-8 -68.5l-9 -54q-8 -47 -25 -105t-43.5 -117t-61 -114.5t-77.5 -98.5q-6 -7 -18 -7h-30q-7 0 -7 4t6 10q41 37 76 90.5t62 112.5t46 118t27 107l9 54q5 33 8.5 69.5t3.5 74.5q0 39 -3.5 79t-11 77.5t-20.5 70.5t-31 57q-3 4 -3 8q0 6 8 6h23
q12 0 16 -7q18 -29 31 -63.5t20.5 -72t11 -77t3.5 -78.5z" />
    <glyph glyph-name="asterisk" unicode="*" horiz-adv-x="417" 
d="M486 614q0 -10 -14 -15l-130 -42l80 -111q5 -7 5 -12q0 -7 -6 -11l-7 -5q-5 -3 -8 -3q-7 0 -14 9l-81 111l-80 -111q-7 -9 -14 -9q-4 0 -8 3l-8 5q-6 4 -6 10t5 13l81 111l-130 42q-14 5 -14 15q0 3 1 5l3 8q3 9 13 9q5 0 8 -1l131 -42v137q0 8 3 13t11 5h9q8 0 11 -5
t3 -13v-137l131 42q3 1 8 1q10 0 13 -9l3 -8q1 -2 1 -5z" />
    <glyph glyph-name="plus" unicode="+" 
d="M583 386q0 -8 -6 -12t-14 -4h-182v-181q0 -8 -4 -14t-12 -6h-10q-8 0 -12 6t-4 14v181h-181q-8 0 -14 4t-6 12v10q0 8 6 12t14 4h181v182q0 8 4 14t12 6h10q8 0 12 -6t4 -14v-182h182q8 0 14 -4t6 -12v-10v0z" />
    <glyph glyph-name="comma" unicode="," horiz-adv-x="168" 
d="M147 98q0 -3 -4 -11l-92 -168q-10 -19 -23 -19h-12q-8 0 -8 7q0 2 4 12l82 168q9 19 24 19h19q10 0 10 -8z" />
    <glyph glyph-name="hyphen" unicode="-" horiz-adv-x="344" 
d="M342 281l-2 -8q-3 -16 -22 -16h-202q-16 0 -16 13v3l2 8q2 8 8 13t14 5h202q16 0 16 -15v-3z" />
    <glyph glyph-name="period" unicode="." horiz-adv-x="168" 
d="M121 87l-13 -74q-2 -8 -8 -13.5t-14 -5.5h-6q-16 0 -16 16v3l13 74q2 8 8.5 13.5t14.5 5.5h6q15 0 15 -16v-3z" />
    <glyph glyph-name="slash" unicode="/" horiz-adv-x="312" 
d="M429 739q0 -6 -3 -10l-362 -716q-4 -7 -7.5 -13t-11.5 -6h-22q-9 0 -9 9q0 4 3 10l362 716q4 7 7.5 13t11.5 6h21q10 0 10 -9z" />
    <glyph glyph-name="zero" unicode="0" 
d="M619 551q0 -35 -8 -81l-35 -197q-26 -144 -95 -211.5t-184 -67.5q-85 0 -137 49t-52 150q0 34 8 80l35 197q13 75 39 128t61.5 86.5t80.5 48.5t98 15q89 0 139 -49t50 -148zM575 551q0 82 -39 119.5t-113 37.5q-91 0 -149.5 -62.5t-78.5 -175.5l-35 -197q-8 -46 -8 -78
q0 -81 39 -121t113 -40q87 0 147 60t81 179l35 197q4 23 6 43t2 38z" />
    <glyph glyph-name="one" unicode="1" 
d="M263 41l116 659l-176 -22h-5q-9 0 -11.5 4t-1.5 9l1 5q2 11 8.5 14.5t15.5 5.5l198 27h5q17 0 14 -20l-120 -682h171q8 0 13.5 -3.5t3.5 -11.5l-2 -11q-3 -15 -22 -15h-386q-8 0 -14 3.5t-4 11.5l2 11q2 8 8.5 11.5t14.5 3.5h171z" />
    <glyph glyph-name="two" unicode="2" 
d="M244 733q40 8 79 11.5t79 3.5q205 0 205 -143q0 -39 -9.5 -68t-30 -54t-53.5 -49.5t-80 -52.5l-114 -69q-54 -33 -86.5 -60.5t-51 -53.5t-27 -54.5t-14.5 -62.5l-7 -40h346q7 0 13.5 -2t4.5 -13l-2 -11q-2 -8 -6 -11.5t-17 -3.5h-371q-8 0 -13 4.5t-3 15.5l10 61
q7 44 18.5 78.5t33 65t57.5 60t93 63.5l114 69q42 25 70 45.5t45.5 41.5t24.5 44.5t7 56.5q0 55 -38 78t-127 23q-32 0 -73.5 -3.5t-81.5 -11.5q-9 -2 -15 1t-4 14l2 11q2 8 6.5 11t15.5 5z" />
    <glyph glyph-name="three" unicode="3" 
d="M244 691q-20 -3 -17 16l1 8q1 14 21 18q30 5 69.5 10t79.5 5q51 0 92 -7.5t69.5 -25.5t43.5 -47.5t15 -73.5q0 -70 -34 -123t-106 -83q21 -10 36 -25t24.5 -33t14 -37.5t4.5 -37.5q0 -65 -21.5 -114t-60.5 -81.5t-92.5 -49t-117.5 -16.5q-40 0 -77.5 4.5t-65.5 10.5
q-8 2 -12.5 5t-2.5 13l1 6q2 8 6 13t17 3q31 -5 68.5 -9t72.5 -4q54 0 97.5 14t75 41.5t48.5 68t17 93.5q0 20 -6 41t-20.5 37.5t-37.5 27t-56 10.5h-187q-19 0 -16 18l1 7q2 11 8.5 14.5t14.5 3.5h187q43 0 75.5 14.5t54.5 39.5t32.5 58t10.5 70q0 34 -10.5 56t-33 34.5
t-56.5 17t-81 4.5q-35 0 -74.5 -5t-71.5 -10z" />
    <glyph glyph-name="four" unicode="4" 
d="M587 240l-2 -9q-2 -8 -8 -11.5t-14 -3.5h-100l-35 -197q-2 -8 -6 -13.5t-12 -5.5h-12q-8 0 -11 4.5t-3 10.5v3v1l35 197h-275q-28 0 -42.5 13t-14.5 32q0 14 6.5 27t15.5 24l352 411q14 17 26.5 21t24.5 4q14 0 25.5 -8t11.5 -28q0 -8 -1 -12l-78 -442h100q7 0 12 -4
t5 -11v-2v-1zM503 697q0 3 -4 3q-5 0 -9 -6l-344 -401q-5 -5 -10 -12t-5 -14q0 -9 18 -9h277l77 436v1v2z" />
    <glyph glyph-name="five" unicode="5" 
d="M615 727l-2 -11q-2 -8 -8 -11t-14 -3h-303l-65 -266h78q73 0 121.5 -11t77.5 -31.5t41.5 -51t12.5 -69.5q0 -63 -20 -114t-58 -88t-93.5 -57t-127.5 -20q-54 0 -89.5 6t-61.5 12q-6 2 -11 5.5t-5 10.5v3l2 11q3 13 16 13q5 0 8 -1q10 -3 26.5 -6t36.5 -5.5t42 -4.5t43 -2
q60 0 106.5 17.5t78 48.5t47.5 74.5t16 96.5q0 69 -52.5 95.5t-163.5 26.5h-106q-17 0 -17 16q0 4 1 6l77 309q2 8 9 12.5t14 4.5h326q7 0 12 -3t5 -10v-3z" />
    <glyph glyph-name="six" unicode="6" 
d="M443 706q-50 0 -89.5 -11t-69.5 -36.5t-50.5 -67.5t-30.5 -103l-10 -59q40 10 91 16.5t103 6.5q38 0 72 -8.5t59.5 -27t40.5 -48.5t15 -72q0 -61 -17 -116t-51 -96t-86.5 -65.5t-122.5 -24.5q-93 0 -140 45.5t-47 131.5q0 19 2 39t6 43l41 235q12 70 35.5 119.5
t59.5 80.5t84.5 45.5t111.5 14.5q54 0 90.5 -6t65.5 -13q13 -3 16.5 -7.5t1.5 -15.5l-1 -5q-2 -10 -7.5 -13t-19.5 0q-28 6 -62 12t-91 6zM529 293q0 35 -11 58t-30.5 36.5t-47 18.5t-60.5 5q-26 0 -53 -2t-53 -5.5t-49 -8t-40 -8.5l-23 -134q-4 -24 -6 -44t-2 -38
q0 -74 35.5 -105.5t110.5 -31.5q57 0 100 19.5t71.5 54t43 82t14.5 103.5z" />
    <glyph glyph-name="seven" unicode="7" 
d="M648 704q0 -7 -2.5 -18t-8.5 -20l-426 -656q-4 -6 -7 -8t-13 -2h-15q-13 0 -13 11q0 8 6 16l432 659q3 4 3 8q0 6 -8 6h-374q-5 0 -12 3t-4 16l2 8q2 11 8 13.5t14 2.5h366q52 0 52 -39z" />
    <glyph glyph-name="eight" unicode="8" 
d="M636 588q0 -38 -11.5 -71t-30.5 -59t-44 -44.5t-52 -25.5q36 -21 56.5 -59.5t20.5 -78.5q0 -68 -24 -116.5t-63 -79.5t-89 -45.5t-101 -14.5q-45 0 -82.5 10t-64 32t-41.5 56.5t-16 83.5q1 38 12.5 71.5t30.5 61.5t45 48.5t56 32.5q-39 17 -59 55t-20 77q0 62 22 105
t59.5 70t87 39t103.5 12q96 0 150.5 -39.5t54.5 -120.5zM589 589q0 63 -43 90t-123 27q-103 0 -160 -44.5t-57 -140.5q0 -19 6 -38.5t20 -35t38.5 -25.5t60.5 -10h82q52 0 86 16t54 41.5t28 57t8 62.5zM323 369q-38 0 -70.5 -14.5t-56.5 -40t-38 -61t-14 -77.5
q-1 -76 41 -108t120 -32q108 0 165.5 57.5t57.5 155.5q0 18 -5.5 39t-19 39t-37.5 30t-61 12h-82z" />
    <glyph glyph-name="nine" unicode="9" 
d="M616 571q0 -19 -2 -39t-6 -43l-41 -235q-12 -70 -35.5 -119.5t-59.5 -80.5t-84.5 -45.5t-111.5 -14.5q-54 0 -90.5 6t-65.5 13q-21 4 -18 22l1 6q2 11 9 13t18 0q30 -7 63 -12.5t90 -5.5q50 0 89.5 11t69.5 36.5t50 67.5t31 103l10 59q-40 -10 -91 -16.5t-103 -6.5
q-38 0 -72 8.5t-59.5 27t-40.5 48.5t-15 72q0 61 17 116t51 96t86 65.5t123 24.5q93 0 140 -45.5t47 -131.5zM572 571q0 74 -35.5 105.5t-110.5 31.5q-57 0 -100 -19.5t-71.5 -54t-43 -82t-14.5 -103.5q0 -35 11 -58t30.5 -36.5t47 -18.5t60.5 -5q25 0 52.5 2t54 5.5t49 8
t39.5 8.5l23 134q4 24 6 44t2 38z" />
    <glyph glyph-name="colon" unicode=":" horiz-adv-x="178" 
d="M203 523l-13 -74q-2 -8 -8 -13.5t-14 -5.5h-6q-16 0 -16 16v3l13 74q2 8 8.5 13.5t14.5 5.5h6q15 0 15 -16v-3zM126 87l-13 -74q-2 -8 -8 -13.5t-14 -5.5h-6q-16 0 -16 16v3l13 74q2 8 8.5 13.5t14.5 5.5h6q15 0 15 -16v-3z" />
    <glyph glyph-name="semicolon" unicode=";" horiz-adv-x="178" 
d="M203 523l-13 -74q-2 -8 -8 -13.5t-14 -5.5h-6q-16 0 -16 16v3l13 74q2 8 8.5 13.5t14.5 5.5h6q15 0 15 -16v-3zM135 98q0 -3 -4 -11l-92 -168q-10 -19 -23 -19h-12q-8 0 -8 7q0 2 4 12l82 168q9 19 24 19h19q10 0 10 -8z" />
    <glyph glyph-name="less" unicode="&#x3c;" 
d="M503 623q0 -9 -8 -15l-265 -217l265 -217q8 -6 8 -15q0 -6 -5 -11l-7 -7q-4 -4 -10 -4q-7 0 -16 7l-266 218q-15 12 -15 29t15 29l266 218q9 7 16 7q6 0 10 -4l7 -7q5 -5 5 -11z" />
    <glyph glyph-name="equal" unicode="=" 
d="M569 486q0 -8 -6 -12t-14 -4h-365q-8 0 -14 4t-6 12v10q0 8 6 12t14 4h365q8 0 14 -4t6 -12v-10zM569 286q0 -8 -6 -12t-14 -4h-365q-8 0 -14 4t-6 12v10q0 8 6 12t14 4h365q8 0 14 -4t6 -12v-10z" />
    <glyph glyph-name="greater" unicode="&#x3e;" 
d="M552 391q0 -17 -15 -29l-266 -218q-9 -7 -16 -7q-6 0 -10 4l-7 7q-5 5 -5 11q0 9 8 15l265 217l-265 217q-8 6 -8 15q0 6 5 11l7 7q4 4 10 4q7 0 16 -7l266 -218q15 -12 15 -29z" />
    <glyph glyph-name="question" unicode="?" horiz-adv-x="424" 
d="M471 625v-10.5t-1 -11.5l-1 -8q-3 -24 -10.5 -43.5t-23 -40.5t-42 -46t-67.5 -59l-36 -30q-23 -20 -37.5 -34t-23.5 -27t-13.5 -27.5t-7.5 -35.5l-10 -60q-2 -8 -8 -13.5t-14 -5.5h-6q-16 0 -16 16v2v1l10 60q4 26 11 45.5t18.5 36.5t29 34.5t43.5 39.5l33 28
q36 31 58.5 52.5t36 39t19.5 33.5t8 34l1 8q1 6 1 11v10q0 46 -30.5 65.5t-96.5 19.5q-18 0 -32 -0.5t-27.5 -1.5t-28 -2.5t-32.5 -2.5h-1h-1q-13 0 -13 10v1v1l1 8q1 7 5.5 12t15.5 7q32 4 61.5 5.5t58.5 1.5q75 0 121.5 -30t46.5 -93zM178 87l-13 -74q-2 -8 -8 -13.5
t-14 -5.5h-6q-16 0 -16 16v2v1l13 74q2 8 8.5 13.5t14.5 5.5h6q15 0 15 -16v-2v-1z" />
    <glyph glyph-name="at" unicode="@" horiz-adv-x="758" 
d="M749 391q0 -86 -20.5 -147.5t-66 -101t-118 -58.5t-176.5 -19q-27 0 -51 5t-42.5 17t-29.5 32.5t-11 52.5q0 9 1 21t3 21l24 118q17 82 58.5 114.5t113.5 32.5q31 0 60 -3t62 -10q6 -2 10.5 -6t4.5 -12q0 -2 -0.5 -3.5t-0.5 -3.5l-65 -329q37 9 73.5 21.5t65 41.5t46 80
t17.5 136q0 54 -18.5 95t-50.5 68t-74 41t-90 14q-72 0 -127.5 -19.5t-96.5 -54.5t-67 -83.5t-38 -106.5l-29 -142q-3 -14 -4 -29.5t-1 -31.5q0 -53 16.5 -91.5t46.5 -63t71 -36.5t89 -12q32 0 68.5 2t65.5 4h3q15 0 15 -12q0 -21 -24 -24q-12 -2 -27.5 -3t-33 -2.5t-35 -2
t-32.5 -0.5q-57 0 -105.5 15.5t-84.5 46t-56 75.5t-20 104q0 14 1 30.5t4 30.5l29 143q14 70 45 126t78 95t109.5 60t139.5 21q56 0 106 -17.5t87.5 -50.5t59.5 -81t22 -108zM525 432q-16 3 -41.5 6t-49.5 3q-32 0 -54 -5.5t-37 -18.5t-24.5 -34t-15.5 -52l-23 -117
q-2 -9 -3 -21t-1 -21q0 -43 25.5 -56t66.5 -13q24 0 51.5 1t41.5 3z" />
    <glyph glyph-name="A" unicode="A" horiz-adv-x="619" 
d="M583 18q0 -9 -4.5 -15t-14.5 -6h-10q-11 0 -13 13l-36 271h-288l-130 -271q-2 -5 -8 -9t-11 -4h-15q-13 0 -13 12q0 3 1 6t3 7l324 677q24 49 74 49q24 0 38 -12.5t17 -35.5l86 -678v-4zM456 687q-1 8 -6 14t-13 6q-9 0 -16 -5.5t-11 -13.5l-174 -363h265z" />
    <glyph glyph-name="B" unicode="B" 
d="M627 605q0 -17 -3 -38l-2 -11q-24 -129 -148 -168q47 -17 71 -53t24 -83v-16t-2 -16l-3 -17q-12 -66 -42.5 -107.5t-73.5 -64t-95 -30.5t-105 -8q-39 0 -77.5 2t-71.5 6q-16 1 -16 13q0 2 0.5 3t0.5 3l123 703q2 8 8.5 13t14.5 6q31 2 73.5 4t80.5 2q52 0 97 -7t77 -23.5
t50.5 -44t18.5 -68.5zM583 599q0 36 -16.5 57.5t-44.5 33t-66.5 15.5t-81.5 4q-33 0 -66.5 -1.5t-59.5 -2.5l-51 -293h181q52 0 88 12t59 32t35.5 46t17.5 54l2 11q3 18 3 32zM526 254q0 24 -7.5 44.5t-25.5 36.5t-48 25t-75 9h-181l-58 -330q32 -2 59.5 -4t64.5 -2
q43 0 86 6t79.5 24.5t63 52t36.5 87.5l3 17q3 18 3 34z" />
    <glyph glyph-name="C" unicode="C" horiz-adv-x="537" 
d="M624 721l-2 -12q-2 -8 -5.5 -10t-9.5 -2h-4h-2q-13 1 -33 3t-43 3t-48 2t-48 1q-44 0 -83.5 -14t-71.5 -45.5t-56 -83t-37 -126.5l-23 -132q-9 -54 -9 -94q0 -49 12 -82.5t33.5 -54t51 -29.5t65.5 -9q23 0 48 1t48.5 2t44 2.5t34.5 3.5h2h4q11 0 11 -8v-4l-2 -12
q-2 -8 -8.5 -12t-13.5 -5q-20 -2 -63 -6t-112 -4q-39 0 -75 11.5t-63.5 37t-44 67.5t-16.5 102q0 42 9 93l23 132q16 91 45.5 151t69.5 95.5t87 50t98 14.5q69 0 110 -4t61 -6q6 -1 11 -4.5t5 -10.5v-2z" />
    <glyph glyph-name="D" unicode="D" horiz-adv-x="613" 
d="M637 521q0 -20 -1.5 -42t-6.5 -46l-22 -124q-15 -87 -46 -147t-75.5 -97.5t-101.5 -54t-124 -16.5q-60 0 -101 2t-62 6q-13 2 -13 16v3l123 700q2 7 7.5 12t12.5 7q23 4 64.5 6t101.5 2q54 0 99 -12.5t77 -40t50 -70.5t18 -104zM594 521q0 55 -15.5 91t-43.5 57.5
t-66 30.5t-83 9q-44 0 -74 -2t-64 -4l-117 -666q32 -2 62 -3t74 -1q52 0 99.5 14t86.5 46.5t67.5 85.5t42.5 130l22 124q9 49 9 88z" />
    <glyph glyph-name="E" unicode="E" horiz-adv-x="533" 
d="M606 726l-1 -8q-1 -8 -7.5 -12t-14.5 -4h-258q-19 0 -34 -2.5t-26 -10t-18.5 -21.5t-11.5 -37l-39 -220h335q7 0 12 -3t5 -10v-3l-2 -10q-3 -17 -22 -17h-335l-45 -256q-2 -7 -2 -13v-11q0 -30 17.5 -38.5t48.5 -8.5h258q16 0 16 -13v-3l-1 -8q-1 -8 -7.5 -12.5
t-14.5 -4.5h-258q-49 0 -76.5 20.5t-27.5 64.5q0 12 3 27l91 519q11 65 45.5 88.5t95.5 23.5h258q16 0 16 -14v-3z" />
    <glyph glyph-name="F" unicode="F" horiz-adv-x="518" 
d="M606 725l-1 -8q-1 -8 -7.5 -11.5t-14.5 -3.5h-258q-18 0 -33 -2.5t-26 -10t-19 -21.5t-12 -37l-39 -220h335q17 0 17 -15v-3l-2 -10q-3 -15 -22 -15h-335l-62 -349q-2 -8 -7 -13.5t-13 -5.5h-10q-7 0 -10.5 4.5t-3.5 10.5v4l108 612q11 63 44.5 87.5t96.5 24.5h258
q8 0 12 -4.5t4 -10.5v-3z" />
    <glyph glyph-name="G" unicode="G" horiz-adv-x="588" 
d="M635 722l-1 -10q-1 -15 -18 -15h-4h-2q-26 3 -46.5 4.5t-39.5 3t-40 2t-48 0.5q-38 0 -77 -13t-74.5 -44.5t-63 -84.5t-41.5 -132l-22 -124q-9 -53 -9 -95q0 -95 44 -136.5t124 -41.5q64 0 103 3.5t51 5.5l56 318q3 19 20 19h10q14 0 14 -15v-3v-1l-59 -337q-2 -8 -8 -13
t-13 -6q-18 -2 -37 -4.5t-40 -4.5t-46.5 -3t-57.5 -1q-46 0 -83.5 13.5t-64.5 41.5t-42 69.5t-15 98.5q0 42 9 92l22 124q17 97 51 158t76 96t89 48t91 13q34 0 60 -1t47 -2.5t38 -3t33 -3.5q14 -2 14 -13v-3z" />
    <glyph glyph-name="H" unicode="H" horiz-adv-x="647" 
d="M695 724l-125 -705q-2 -8 -7 -13.5t-13 -5.5h-9q-8 0 -11 4.5t-3 10.5v4l63 358h-400l-63 -358q-2 -8 -7 -13.5t-13 -5.5h-10q-7 0 -10.5 4.5t-3.5 10.5v4l125 705q2 8 7 13.5t13 5.5h10q7 0 10.5 -4.5t3.5 -10.5v-4l-54 -306h400l54 306q2 8 7 13.5t13 5.5h9
q8 0 11 -4.5t3 -10.5v-4z" />
    <glyph glyph-name="I" unicode="I" horiz-adv-x="224" 
d="M262 724l-125 -705q-2 -8 -7 -13.5t-13 -5.5h-10q-7 0 -10.5 4.5t-3.5 10.5v4l125 705q2 8 7 13.5t13 5.5h10q7 0 10.5 -4.5t3.5 -10.5v-4z" />
    <glyph glyph-name="J" unicode="J" horiz-adv-x="224" 
d="M262 724l-139 -784q-6 -37 -17.5 -62.5t-30.5 -41.5t-48 -23.5t-71 -7.5h-14q-8 0 -13 2t-5 9v3l2 10q3 15 22 15h14q31 0 51 4t33 14.5t20.5 29t12.5 48.5l139 784q2 8 7 13.5t13 5.5h10q7 0 10.5 -4.5t3.5 -10.5v-4z" />
    <glyph glyph-name="K" unicode="K" horiz-adv-x="544" 
d="M637 730q0 -10 -13 -22l-392 -325l280 -353q6 -8 6 -15t-5.5 -12t-14.5 -5q-5 0 -12 1.5t-11 6.5l-286 362l-62 -349q-2 -8 -7 -13.5t-13 -5.5h-10q-7 0 -10.5 4.5t-3.5 10.5v4l125 705q2 8 8 13.5t14 5.5h6q16 0 16 -16v-3l-57 -320l399 332q8 7 14 9t11 2q8 0 13 -5.5
t5 -11.5z" />
    <glyph glyph-name="L" unicode="L" horiz-adv-x="483" 
d="M452 25l-1 -8q-1 -8 -7.5 -12.5t-14.5 -4.5h-228q-46 0 -75 17.5t-29 64.5q0 13 3 30l108 612q2 8 7 13.5t13 5.5h10q7 0 10.5 -4.5t3.5 -10.5v-3v-1l-108 -612q-3 -17 -3 -28q0 -27 16 -35t51 -8h228q16 0 16 -14v-1v-1z" />
    <glyph glyph-name="M" unicode="M" horiz-adv-x="730" 
d="M774 709q0 -6 -1 -9l-120 -681q-2 -8 -7 -13.5t-13 -5.5h-11q-7 0 -10.5 4.5t-3.5 10.5v4l120 681v1q0 3 -2 4t-4 1q-3 0 -5 -3l-4 -6l-243 -373q-10 -14 -22.5 -23t-30.5 -9q-17 0 -26.5 9t-14.5 23l-111 373q-1 3 -4 6t-6 3q-2 0 -5 -1t-4 -5l-120 -681q-2 -8 -7 -13.5
t-13 -5.5h-9q-7 0 -10.5 4.5t-3.5 10.5v4l120 681q5 28 20 38t35 10q21 0 30.5 -10t13.5 -21l111 -366q4 -13 11 -13q5 0 7.5 3t7.5 10l239 365q12 19 24.5 25.5t33.5 6.5q15 0 26.5 -10.5t11.5 -28.5z" />
    <glyph glyph-name="N" unicode="N" horiz-adv-x="651" 
d="M654 724q2 8 6 13.5t15 5.5h8q19 0 16 -19l-120 -680q-5 -24 -19.5 -37t-33.5 -13t-29.5 6.5t-16.5 25.5l-218 673q-2 7 -8 7t-7 -7l-120 -680q-2 -8 -6 -13.5t-18 -5.5h-5q-11 0 -14 6t-1 13l120 680q5 28 21 38.5t32 10.5q21 0 31.5 -9t15.5 -22l218 -674q2 -7 6 -7
q5 0 7 8l120 680v0z" />
    <glyph glyph-name="O" unicode="O" horiz-adv-x="632" 
d="M657 525q0 -41 -9 -92l-22 -124q-15 -86 -45 -146t-70.5 -97.5t-90 -54.5t-105.5 -17q-47 0 -85.5 13t-66 40t-43 69t-15.5 100q0 42 9 93l22 124q16 89 45.5 149.5t70 97t90.5 52.5t106 16q47 0 85.5 -13.5t66 -41t42.5 -69.5t15 -99zM613 527q0 51 -13 85.5t-36 55
t-54.5 29.5t-69.5 9q-46 0 -87 -13.5t-75 -45.5t-59 -84t-39 -130l-22 -124q-9 -54 -9 -95q0 -50 12.5 -84t35 -55t54.5 -30t71 -9q46 0 88 15t75.5 48t58.5 84.5t38 125.5l22 124q9 52 9 94z" />
    <glyph glyph-name="P" unicode="P" horiz-adv-x="540" 
d="M605 587q0 -22 -4 -42l-3 -17q-11 -59 -35.5 -99.5t-63.5 -66t-91 -37t-117 -11.5q-29 0 -59.5 1t-51.5 3l-53 -299q-2 -8 -7 -13.5t-13 -5.5h-10q-7 0 -10.5 4.5t-3.5 10.5v3v1l125 705q2 7 7.5 12.5t12.5 6.5q26 2 65 3.5t71 1.5q115 0 178 -39.5t63 -121.5zM561 587
q0 70 -52 96t-152 26q-32 0 -59.5 -0.5t-49.5 -2.5l-61 -349q23 -2 52.5 -3t55.5 -1q115 0 178.5 41t80.5 134l3 17q4 20 4 42z" />
    <glyph glyph-name="Q" unicode="Q" horiz-adv-x="632" 
d="M657 525q0 -41 -9 -92l-22 -124q-15 -82 -42.5 -140t-65 -95.5t-84 -56.5t-98.5 -22l-12 -67l-3.5 -24.5t-1.5 -18.5q0 -26 17.5 -33.5t65.5 -7.5h21q8 0 13 -3t5 -10v-3l-2 -7q-3 -16 -22 -16h-21q-29 0 -51 2.5t-37.5 10.5t-23.5 24t-8 42q0 21 4 44l12 67
q-84 6 -135.5 59.5t-51.5 161.5q0 42 9 93l22 124q16 89 45.5 149.5t70 97t90.5 52.5t106 16q47 0 85.5 -13.5t66 -41t42.5 -69.5t15 -99zM613 527q0 51 -13 85.5t-36 55t-54.5 29.5t-69.5 9q-46 0 -87 -13.5t-75 -45.5t-59 -84t-39 -130l-22 -124q-9 -54 -9 -95
q0 -50 12.5 -84t35 -55t54.5 -30t71 -9q46 0 88 15t75.5 48t58.5 84.5t38 125.5l22 124q9 52 9 94z" />
    <glyph glyph-name="R" unicode="R" horiz-adv-x="598" 
d="M626 593q0 -21 -5 -49l-1 -5q-20 -98 -74 -143.5t-140 -55.5l147 -311q3 -6 3 -12q0 -7 -4 -12t-13 -5h-10q-10 0 -15 9l-156 326h-46h-79q-24 0 -50 1l-56 -317q-2 -8 -7 -13.5t-13 -5.5h-10q-14 0 -14 16v3l125 706q2 7 7.5 12.5t12.5 6.5q13 1 33 1.5t42.5 1t44 1
t37.5 0.5q118 0 179.5 -37.5t61.5 -117.5zM582 590q0 67 -51 91.5t-154 24.5h-33.5t-35 -0.5t-33 -1.5t-27.5 -2l-57 -324h28t37.5 -0.5t37.5 -0.5h29q58 0 101.5 7.5t74 26t49.5 49.5t28 79l1 5q2 13 3.5 24t1.5 22z" />
    <glyph glyph-name="S" unicode="S" horiz-adv-x="530" 
d="M582 723l-2 -13q-1 -13 -18 -13h-3q-28 2 -68.5 5.5t-78.5 3.5q-36 0 -73.5 -4.5t-68 -19t-50 -42t-19.5 -72.5q0 -41 28.5 -72.5t80.5 -66.5l52 -35q41 -28 69.5 -52t46 -46.5t25.5 -44t8 -43.5q0 -59 -22.5 -99.5t-60 -66t-86 -37t-100.5 -11.5q-43 0 -82 3.5t-71 7.5
q-6 1 -10.5 4t-4.5 10v2l2 13q2 8 6 10t9 2h5q38 -4 74.5 -7.5t78.5 -3.5q43 0 82 8.5t68.5 28t47 52t17.5 79.5q0 21 -7 38.5t-22 35.5t-39.5 37.5t-60.5 43.5l-51 35q-58 40 -93 79t-35 91q0 56 23.5 92t61 56.5t85 28.5t95.5 8q40 0 77.5 -3.5t69.5 -6.5q14 -2 14 -12v-2
v-1z" />
    <glyph glyph-name="T" unicode="T" horiz-adv-x="571" 
d="M669 725l-2 -9q-3 -14 -21 -14h-214l-121 -683q-2 -8 -7 -13.5t-13 -5.5h-10q-7 0 -10.5 4.5t-3.5 10.5v4l121 683h-215q-17 0 -17 14v3l2 9q3 15 22 15h473q16 0 16 -14v-4z" />
    <glyph glyph-name="U" unicode="U" horiz-adv-x="633" 
d="M681 724l-81 -460q-11 -65 -32.5 -115t-56 -84.5t-82.5 -52.5t-113 -18q-102 0 -149.5 51.5t-47.5 140.5q0 18 2 37.5t6 40.5l81 460q2 8 7 13.5t13 5.5h10q14 0 14 -16v-3l-81 -460q-4 -22 -6 -41.5t-2 -37.5q0 -75 37.5 -112.5t122.5 -37.5q100 0 156.5 58t76.5 171
l81 460q2 8 7 13.5t13 5.5h10q14 0 14 -16v-3z" />
    <glyph glyph-name="V" unicode="V" horiz-adv-x="630" 
d="M715 729q0 -5 -3 -11l-324 -675q-23 -49 -72 -49q-24 0 -39.5 11.5t-18.5 37.5l-86 675v5q0 8 4 14t12 6h12q12 0 14 -14l85 -673q2 -12 7 -16.5t13 -4.5t15.5 4.5t13.5 16.5l322 673q7 14 18 14h12q15 0 15 -14z" />
    <glyph glyph-name="W" unicode="W" horiz-adv-x="788" 
d="M870 729q0 -3 -2 -9l-243 -679q-17 -47 -54 -47q-23 0 -30.5 13.5t-9.5 31.5l-54 387q-1 8 -2.5 10t-3.5 2t-4 -2t-6 -10l-190 -387q-9 -18 -21 -31.5t-35 -13.5q-40 0 -40 47l-3 679q0 9 5.5 16t14.5 7h8q6 0 10.5 -4t4.5 -12l1 -677q0 -15 5 -15q3 0 4.5 3.5t5.5 11.5
l193 389q11 22 22.5 30.5t31.5 8.5q17 0 25 -9.5t11 -29.5l57 -389q1 -15 6 -15t10 15l240 677q3 8 9 12t12 4h8q14 0 14 -14z" />
    <glyph glyph-name="X" unicode="X" horiz-adv-x="602" 
d="M679 731q0 -10 -7 -18l-281 -335l169 -349q5 -10 5 -17q0 -12 -13 -12h-10q-4 0 -8 3t-6 6l-163 336l-282 -336q-5 -5 -8 -7t-10 -2h-10q-13 0 -13 11q0 8 8 18l296 354l-160 330q-6 12 -6 19q0 11 14 11h12q4 0 7.5 -3t5.5 -6l154 -318l266 318q5 5 8 7t10 2h9
q13 0 13 -12z" />
    <glyph glyph-name="Y" unicode="Y" horiz-adv-x="550" 
d="M634 732q0 -6 -6 -16l-219 -349q-17 -28 -31.5 -40.5t-26.5 -17.5l-51 -290q-2 -8 -7 -13.5t-13 -5.5h-10q-7 0 -10.5 4.5t-3.5 10.5v4l51 290q-11 5 -19.5 17.5t-16.5 40.5l-97 349q-1 3 -1 9q0 18 20 18h8q5 0 8.5 -3.5t5.5 -8.5l95 -350q6 -22 10.5 -28.5t13.5 -6.5
t15.5 6.5t20.5 28.5l219 350q3 5 8 8.5t10 3.5h12q15 0 15 -11z" />
    <glyph glyph-name="Z" unicode="Z" horiz-adv-x="595" 
d="M628 700q0 -16 -13 -34l-484 -611q-4 -4 -4 -8q0 -6 11 -6h383q8 0 13.5 -4t5.5 -10v-1v-1l-2 -10q-2 -8 -9 -11.5t-15 -3.5h-385q-23 0 -35 14t-12 31q0 18 11 32l486 612q4 4 4 8q0 5 -7 5h-362q-7 0 -13 4t-6 11v1v1l2 10q2 8 9 11t15 3h355q26 0 39 -13t13 -30z" />
    <glyph glyph-name="bracketleft" unicode="[" horiz-adv-x="298" 
d="M406 726l-1 -8q-1 -8 -7.5 -12t-14.5 -4h-125l-151 -856h125q16 0 16 -14v-3l-2 -8q-3 -16 -21 -16h-152q-7 0 -10.5 4.5t-3.5 10.5v4l159 900q2 8 7 13.5t13 5.5h152q16 0 16 -14v-3z" />
    <glyph glyph-name="backslash" unicode="\" horiz-adv-x="325" 
d="M304 9q0 -6 -2.5 -10.5t-9.5 -4.5h-18q-8 0 -10 6t-3 13l-108 716v3q0 16 13 16h17q8 0 10 -6t3 -13l108 -716v-4v0z" />
    <glyph glyph-name="bracketright" unicode="]" horiz-adv-x="298" 
d="M336 724l-159 -900q-2 -8 -7 -13.5t-13 -5.5h-152q-17 0 -17 13v3l2 8q3 17 22 17h125l151 856h-125q-16 0 -16 13v3l1 8q1 8 7.5 12.5t14.5 4.5h152q7 0 10.5 -4.5t3.5 -10.5v-4z" />
    <glyph glyph-name="asciicircum" unicode="^" 
d="M553 569q0 -9 -10 -9h-18q-9 0 -13.5 5t-12.5 15l-117 139l-117 -139q-8 -10 -13 -15t-13 -5h-18q-11 0 -11 9q0 4 5 11l117 150q8 10 13 14t14 4h46q8 0 13.5 -4t13.5 -14l117 -150q4 -5 4 -11z" />
    <glyph glyph-name="underscore" unicode="_" horiz-adv-x="465" 
d="M482 -72l-1 -10q-1 -8 -8 -12t-15 -4h-485q-17 0 -17 13v3l1 10q1 8 8 12t15 4h485q17 0 17 -13v-3z" />
    <glyph glyph-name="grave" unicode="`" horiz-adv-x="330" 
d="M320 627q0 -9 -10 -9h-18q-8 0 -11 4.5t-8 12.5l-84 128q-3 4 -3 7q0 8 12 8h22q8 0 12 -3.5t9 -11.5l77 -128q2 -3 2 -8z" />
    <glyph glyph-name="a" unicode="a" horiz-adv-x="504" 
d="M524 511q0 -2 -0.5 -3.5t-0.5 -3.5l-85 -484q-2 -8 -8 -14t-14 -6h-8q-15 0 -15 16q0 1 0.5 2t0.5 2l6 33q-40 -21 -83.5 -40t-88.5 -19q-31 0 -57.5 8.5t-46 26.5t-30.5 45t-11 64q0 20 5 48l20 113q12 65 31 111t48 75.5t68.5 43t91.5 13.5q43 0 87.5 -6t76.5 -13
q13 -3 13 -12zM476 490q-26 5 -63 9t-73 4q-84 0 -127.5 -53t-60.5 -151l-20 -113q-5 -28 -5 -48q0 -33 9 -53.5t24.5 -32t35.5 -15.5t42 -4q38 0 76.5 16.5t92.5 45.5z" />
    <glyph glyph-name="b" unicode="b" horiz-adv-x="504" 
d="M508 375q0 -33 -6 -72l-11 -66q-9 -56 -27 -101t-46 -76.5t-68 -48.5t-94 -17q-21 0 -44 1.5t-45.5 4.5t-43 6.5t-36.5 6.5q-12 3 -12 11q0 5 1 8l122 692q2 8 7 13.5t13 5.5h10q7 0 10.5 -4.5t3.5 -10.5v-3v-1l-34 -195q30 6 65.5 9.5t72.5 3.5q162 0 162 -167zM465 377
q0 64 -29.5 95t-95.5 31q-15 0 -33 -1t-37 -3.5t-37 -5t-33 -5.5l-78 -442q26 -5 63 -9t73 -4q43 0 75 13.5t54.5 39t37 63.5t22.5 88l11 66q4 20 5.5 38.5t1.5 35.5z" />
    <glyph glyph-name="c" unicode="c" horiz-adv-x="437" 
d="M484 515l-1 -7q-1 -8 -6.5 -11t-13.5 -3h-3h-1q-69 9 -117 9q-43 0 -75 -15t-55.5 -42t-38 -63.5t-21.5 -79.5l-11 -67q-3 -20 -5 -38t-2 -35q0 -63 28.5 -96.5t96.5 -33.5q48 0 120 9h1h3q15 0 15 -11v-2v-1l-1 -7q-2 -8 -6.5 -12t-15.5 -6q-32 -4 -65.5 -6.5
t-57.5 -2.5q-43 0 -73.5 12.5t-50 35t-28.5 54.5t-9 70q0 34 6 70l11 67q9 54 27.5 98t47.5 75.5t70.5 48.5t95.5 17q24 0 56 -2.5t63 -6.5q16 -3 16 -13v-3v-2z" />
    <glyph glyph-name="d" unicode="d" horiz-adv-x="504" 
d="M562 724l-122 -692q-2 -9 -5.5 -13t-13.5 -6q-35 -7 -81 -13t-89 -6q-83 0 -121.5 48.5t-38.5 126.5q0 32 6 68l11 66q21 125 81 182t158 57q15 0 32.5 -1t36 -3t36 -5t31.5 -6l35 197q3 19 20 19h10q7 0 10.5 -4.5t3.5 -10.5v-3v-1zM476 490q-14 3 -31.5 5.5t-36 4
t-36 2.5t-32.5 1q-80 0 -125.5 -50t-62.5 -150l-11 -66q-4 -20 -5.5 -38.5t-1.5 -35.5q0 -63 28.5 -96.5t94.5 -33.5q38 0 76.5 4t64.5 9z" />
    <glyph glyph-name="e" unicode="e" horiz-adv-x="511" 
d="M516 372q0 -32 -6 -68l-5 -27q-2 -8 -9 -13.5t-15 -5.5h-337l-3 -21q-2 -18 -4 -34.5t-2 -30.5q0 -41 10.5 -67.5t30 -42t47 -22t62.5 -6.5q33 0 73.5 4t78.5 12q3 1 9 1q12 0 12 -8q0 -5 -1 -7l-2 -7q-3 -11 -7.5 -13.5t-15.5 -4.5q-38 -8 -78.5 -12.5t-74.5 -4.5
q-41 0 -75.5 10t-59.5 31t-38.5 54.5t-13.5 80.5q0 15 1 32.5t4 34.5l11 66q20 118 82 178.5t162 60.5q43 0 74 -12.5t51 -35t29.5 -54t9.5 -68.5zM473 374q0 63 -29 96t-98 33q-42 0 -73.5 -14t-55 -40t-39.5 -63t-25 -83l-1 -5h313l1 6q3 20 5 37t2 33z" />
    <glyph glyph-name="f" unicode="f" horiz-adv-x="377" 
d="M194 -43q-6 -35 -17.5 -57.5t-28.5 -36t-39 -19t-49 -5.5q-23 0 -32 0.5t-19 2.5q-17 3 -16 15l1 8q2 9 7 11t16 2h50q18 0 31.5 3t23.5 11.5t17 24t11 40.5l95 539h-99q-8 0 -13 3.5t-3 14.5l2 7q3 10 7.5 13t14.5 3h99l16 93q6 35 17.5 57.5t28.5 36t39 19t49 5.5
q23 0 32 -0.5t19 -2.5q17 -3 16 -15l-1 -8q-2 -9 -7 -11t-16 -2h-50q-35 0 -55 -15t-28 -64l-16 -93h119q8 0 13 -3.5t3 -12.5l-2 -9q-2 -8 -6 -12t-16 -4h-119z" />
    <glyph glyph-name="g" unicode="g" horiz-adv-x="504" 
d="M524 512q0 -2 -0.5 -3.5t-0.5 -3.5l-89 -506q-11 -60 -28.5 -97.5t-43.5 -59t-61.5 -29.5t-81.5 -8q-26 0 -50 1.5t-44 3.5t-35 4t-22 4q-17 4 -17 14q0 1 0.5 2t0.5 3l1 5q3 14 17 14h4q18 -3 59 -7.5t86 -4.5q42 0 70 6t47.5 23.5t32 47.5t22.5 78l2 10q-11 -3 -28 -6
t-35.5 -5t-37 -3t-31.5 -1q-29 0 -59.5 6t-55.5 24t-41 50.5t-16 85.5q0 17 1.5 35.5t5.5 39.5l12 68q12 70 33 116t52 73.5t71.5 38.5t92.5 11q22 0 44.5 -2t43 -4.5t37.5 -5.5t29 -6q13 -3 13 -12zM476 489q-26 5 -57.5 9.5t-67.5 4.5q-41 0 -73 -9t-56.5 -31.5t-42 -61
t-27.5 -98.5l-12 -68q-4 -23 -6 -43t-2 -37q0 -40 10.5 -64t28.5 -37t43 -17t54 -4q12 0 29 1.5t35 3.5t35.5 5.5t30.5 6.5z" />
    <glyph glyph-name="h" unicode="h" horiz-adv-x="504" 
d="M507 399q0 -12 -1.5 -24t-3.5 -25l-59 -331q-2 -8 -7 -13.5t-13 -5.5h-10q-7 0 -10 4.5t-3 10.5v3v1l59 331q2 14 3.5 26t1.5 23q0 52 -29.5 78t-96.5 26q-32 0 -70 -5.5t-68 -13.5l-83 -465q-2 -8 -7 -13.5t-13 -5.5h-10q-7 0 -10.5 4.5t-3.5 10.5v3v1l125 705
q2 8 7 13.5t13 5.5h10q7 0 10.5 -4.5t3.5 -10.5v-3v-1l-35 -199q31 8 68 12.5t70 4.5q43 0 74 -10.5t50.5 -29.5t28.5 -45.5t9 -57.5z" />
    <glyph glyph-name="i" unicode="i" horiz-adv-x="204" 
d="M211 636q-11 0 -14.5 5t-1.5 14l14 74q2 12 8 15.5t14 3.5h6q21 0 16 -19l-14 -74q-2 -11 -8 -15t-14 -4h-6zM202 537q16 0 13 -19l-88 -499q-2 -8 -6 -13.5t-16 -5.5h-6q-19 0 -16 19l88 499q2 8 5.5 13.5t14.5 5.5h11z" />
    <glyph glyph-name="j" unicode="j" horiz-adv-x="204" 
d="M253 729l-14 -74q-2 -11 -8 -15t-14 -4h-6q-16 0 -16 14v5l14 74q2 12 8 15.5t14 3.5h6q8 0 12 -4.5t4 -10.5v-4zM215 518l-106 -604q-6 -31 -15 -52t-23 -33.5t-34.5 -18t-49.5 -5.5q-13 0 -22 0.5t-20 2.5q-14 3 -14 12v2l1 9q1 7 4 9.5t13 2.5h44q17 0 29 2.5t20 10.5
t13.5 21.5t9.5 36.5l106 604q2 8 7 13.5t13 5.5h11q13 0 13 -14v-5z" />
    <glyph glyph-name="k" unicode="k" horiz-adv-x="444" 
d="M500 529q0 -11 -13 -21l-285 -226l202 -259q5 -7 5 -13q0 -16 -20 -16q-9 0 -16.5 2t-13.5 10l-197 259l-45 -246q-2 -8 -8 -13.5t-14 -5.5h-6q-16 0 -16 16v3l125 705q2 8 8 13.5t14 5.5h6q16 0 16 -16v-3l-75 -421l287 230q6 5 11.5 7t16.5 2q18 0 18 -13z" />
    <glyph glyph-name="l" unicode="l" horiz-adv-x="204" 
d="M252 724l-125 -705q-2 -8 -7 -13.5t-13 -5.5h-10q-7 0 -10.5 4.5t-3.5 10.5v4l125 705q2 8 7 13.5t13 5.5h10q7 0 10.5 -4.5t3.5 -10.5v-4z" />
    <glyph glyph-name="m" unicode="m" horiz-adv-x="746" 
d="M746 416q0 -9 -1 -18.5t-3 -20.5l-63 -358q-2 -8 -7 -13.5t-13 -5.5h-10q-8 0 -11 4.5t-3 10.5v4l63 358q2 11 3 20.5t1 17.5q0 49 -27 68.5t-74 19.5q-33 0 -68.5 -9.5t-69.5 -24.5q4 -15 4 -39q0 -11 -1.5 -23t-3.5 -26l-64 -362q-2 -8 -6 -13.5t-12 -5.5h-15
q-7 0 -9 4.5t-2 9.5v5l64 362q5 28 5 46q0 40 -19 58t-58 18q-33 0 -73 -12.5t-78 -29.5l-78 -442q-2 -8 -6 -13.5t-12 -5.5h-14q-7 0 -9.5 4.5t-2.5 10.5v4l88 498q2 8 8 14t14 6h8q8 0 11 -4.5t3 -10.5v-5l-3 -18q42 19 76.5 31t75.5 12q27 0 53.5 -9t41.5 -32
q41 18 80 29.5t79 11.5q28 0 53 -7t44 -22t30 -39t11 -58z" />
    <glyph glyph-name="n" unicode="n" horiz-adv-x="521" 
d="M518 399q0 -20 -5 -48l-59 -332q-2 -8 -8 -13.5t-14 -5.5h-7q-15 0 -15 16v3l59 332q2 12 3 23t1 22q0 59 -32 83t-80 24q-38 0 -81.5 -11.5t-84.5 -29.5l-78 -443q-2 -8 -8 -13.5t-14 -5.5h-6q-16 0 -16 16v3l88 498q2 8 8 14t14 6h8q7 0 10.5 -4.5t3.5 -10.5v-5l-3 -16
q42 19 82 30t79 11q31 0 59.5 -8t49.5 -25t33.5 -44t12.5 -66z" />
    <glyph glyph-name="o" unicode="o" horiz-adv-x="522" 
d="M526 369q0 -30 -6 -66l-12 -70q-20 -115 -80 -177t-168 -62q-85 0 -127.5 46.5t-42.5 128.5q0 29 6 64l12 70q20 118 81.5 178.5t167.5 60.5q86 0 127.5 -46t41.5 -127zM483 372q0 63 -30.5 97t-102.5 34q-85 0 -133.5 -55t-64.5 -145l-12 -70q-3 -19 -5 -36t-2 -33
q0 -63 31 -97t103 -34q43 0 76.5 14.5t57.5 40.5t39.5 63t23.5 82l12 70q3 19 5 36t2 33z" />
    <glyph glyph-name="p" unicode="p" horiz-adv-x="504" 
d="M509 371q0 -17 -1.5 -35t-5.5 -37l-12 -66q-23 -124 -80.5 -181.5t-157.5 -57.5q-15 0 -32.5 1t-36 3.5t-36 5.5t-31.5 6l-33 -186q-2 -8 -7 -13.5t-13 -5.5h-10q-14 0 -14 16v3l120 680q2 9 5 13t13 6q32 7 75 13t97 6q42 0 72 -12.5t49.5 -35t29 -54t9.5 -69.5z
M466 378q0 63 -29.5 94t-94.5 31q-18 0 -38 -1.5t-39.5 -4t-36 -5t-28.5 -4.5l-77 -440q14 -3 31.5 -5.5t36 -5t36 -3.5t32.5 -1q80 0 125 51.5t62 148.5l12 66q8 46 8 79z" />
    <glyph glyph-name="q" unicode="q" horiz-adv-x="504" 
d="M524 511q0 -2 -0.5 -3.5t-0.5 -3.5l-120 -680q-2 -8 -7 -13.5t-13 -5.5h-10q-14 0 -14 16v3l33 185q-66 -15 -126 -15q-38 0 -70.5 8.5t-56 27.5t-37 50.5t-13.5 78.5q0 17 1.5 35.5t5.5 38.5l12 66q22 119 80 181t156 62q43 0 89 -6t78 -13q13 -3 13 -12zM476 490
q-26 5 -61 9t-71 4q-84 0 -129 -52.5t-63 -151.5l-12 -66q-4 -20 -5.5 -37.5t-1.5 -32.5q0 -38 10 -63t27.5 -40t42 -21.5t53.5 -6.5q58 0 132 15z" />
    <glyph glyph-name="r" unicode="r" horiz-adv-x="309" 
d="M366 527l-1 -8q-2 -10 -8 -12.5t-18 -2.5q-29 0 -61.5 -9.5t-82.5 -37.5l-78 -438q-2 -8 -8 -13.5t-14 -5.5h-6q-16 0 -16 16v3l88 498q2 8 8 14t14 6h8q15 0 15 -14q0 -2 -0.5 -3t-0.5 -3l-4 -21q41 25 73 35.5t69 10.5q11 0 17 -2t6 -10v-3z" />
    <glyph glyph-name="s" unicode="s" horiz-adv-x="440" 
d="M463 516l-1 -8q-1 -9 -4 -11.5t-11 -2.5q-1 0 -4 0.5t-4 0.5q-9 1 -24.5 2t-34.5 2.5t-39.5 2.5t-39.5 1q-62 0 -96 -19.5t-34 -75.5q0 -26 21.5 -48t59.5 -45l60 -37q30 -18 49.5 -33.5t31.5 -30t17 -30t5 -34.5q0 -44 -16.5 -74t-44 -48t-63.5 -26t-75 -8
q-16 0 -35.5 1t-39 3t-37.5 4.5t-31 5.5q-6 2 -12.5 4t-6.5 10v2l2 11q2 8 4.5 10t7.5 2t9 -1q41 -6 81 -9.5t67 -3.5q66 0 106 26t40 91q0 25 -19 44.5t-68 48.5l-58 35q-42 26 -70.5 56.5t-28.5 71.5q0 39 14.5 65t38.5 42t55.5 22.5t65.5 6.5q54 0 86.5 -3t57.5 -6
q7 -1 12.5 -4t5.5 -11v-2z" />
    <glyph glyph-name="t" unicode="t" horiz-adv-x="380" 
d="M432 521l-2 -10q-3 -15 -22 -15h-118l-70 -394q-3 -17 -3 -27q0 -29 16 -35.5t44 -6.5h48q7 0 12.5 -2t5.5 -9v-3l-1 -6q-1 -6 -5 -10t-15 -6t-25 -2.5t-27 -0.5q-46 0 -71.5 17.5t-25.5 59.5q0 14 3 31l70 394h-100q-16 0 -16 13v4l2 10q2 9 8 11.5t14 2.5h100l16 93
q2 8 7 13.5t13 5.5h11q13 0 13 -14v-5l-16 -93h118q7 0 11.5 -2t4.5 -10v-4z" />
    <glyph glyph-name="u" unicode="u" horiz-adv-x="522" 
d="M544 518l-89 -499q-2 -8 -8 -14t-14 -6h-8q-13 0 -13 16v3v1l2 16q-42 -19 -82 -30.5t-79 -11.5q-32 0 -60 8t-49 25.5t-33 44.5t-12 66q0 11 1 22.5t3 25.5l60 333q2 8 8 13.5t14 5.5h7q15 0 15 -16v-3l-60 -333q-2 -13 -3 -25t-1 -23q0 -59 32 -82t80 -23q38 0 81.5 12
t84.5 30l79 444q2 8 8 13.5t14 5.5h6q16 0 16 -16v-3z" />
    <glyph glyph-name="v" unicode="v" horiz-adv-x="480" 
d="M534 526q0 -4 -4 -14l-211 -455q-19 -40 -38 -51.5t-41 -11.5q-21 0 -37.5 11.5t-21.5 51.5l-51 455v4q0 9 4.5 15t13.5 6h10q5 0 9.5 -3.5t5.5 -14.5l48 -451q2 -23 9 -29.5t15 -6.5t15.5 6.5t18.5 29.5l208 451q5 11 10.5 14.5t10.5 3.5h14q12 0 12 -11z" />
    <glyph glyph-name="w" unicode="w" horiz-adv-x="752" 
d="M794 522q0 -3 -2 -9l-191 -463q-12 -29 -25.5 -42.5t-34.5 -13.5q-26 0 -33 15.5t-10 43.5l-39 378q-1 8 -2 10t-3 2t-4 -2t-5 -10l-173 -378q-13 -28 -25 -43.5t-38 -15.5q-21 0 -29.5 13.5t-10.5 42.5l-29 463v1q0 9 6.5 16t16.5 7h4q6 0 9.5 -4.5t3.5 -9.5l27 -463
q1 -19 3.5 -23t5.5 -4t6 4.5t11 21.5l176 386q18 38 49 38q14 0 24.5 -9t12.5 -29l40 -386q2 -17 4.5 -21.5t5.5 -4.5t6.5 4t11.5 23l189 463q2 5 7.5 9.5t11.5 4.5h8q8 0 11.5 -4.5t3.5 -10.5z" />
    <glyph glyph-name="x" unicode="x" horiz-adv-x="493" 
d="M537 526q0 -9 -7 -16l-209 -238l132 -247q4 -8 4 -13t-3.5 -8.5t-11.5 -3.5h-11q-11 0 -16 8l-124 231l-204 -231q-6 -8 -14 -8h-12q-16 0 -16 12q0 5 5 12l221 252l-127 237q-2 3 -2 11q0 13 15 13h10q7 0 10.5 -3t5.5 -5l120 -219l191 219q4 5 9.5 6.5t10.5 1.5h9
q14 0 14 -11z" />
    <glyph glyph-name="y" unicode="y" horiz-adv-x="486" 
d="M539 525q0 -6 -3 -13l-264 -568q-18 -38 -34.5 -64.5t-37 -43t-48 -24t-66.5 -7.5q-17 0 -32.5 2t-28.5 4q-8 2 -13 4t-5 8v2l2 11q3 14 19 14h5q11 -2 31 -4t32 -2q27 0 46.5 5t35 18t28.5 33.5t27 52.5l21 47h-12q-23 0 -34.5 10t-16.5 46l-55 457v3q0 9 6 15t15 6h7
q5 0 8.5 -4.5t4.5 -9.5l54 -460q2 -16 5 -19t14 -3h23l222 483q2 5 8.5 9t12.5 4h11q12 0 12 -12z" />
    <glyph glyph-name="z" unicode="z" horiz-adv-x="446" 
d="M481 496q0 -26 -20 -47l-358 -389q-3 -4 -5.5 -7t-3.5 -5q0 -7 9 -7h290q6 0 12 -2.5t6 -9.5v-3l-2 -10q-2 -8 -8.5 -12t-14.5 -4h-289q-20 0 -32 13.5t-12 30.5q0 9 3.5 18.5t11.5 17.5l367 397q5 5 5 11q0 8 -12 8h-263q-6 0 -11.5 2.5t-5.5 9.5v3l2 10q2 8 8.5 12
t14.5 4h255q28 0 40.5 -12t12.5 -29z" />
    <glyph glyph-name="braceleft" unicode="{" horiz-adv-x="300" 
d="M408 726l-1 -8q-1 -8 -7.5 -12t-14.5 -4h-46q-25 0 -41 -2.5t-26 -10t-15 -21t-9 -35.5l-36 -204q-10 -53 -29.5 -89t-62.5 -67q23 -21 32.5 -45t9.5 -55q0 -12 -1 -25.5t-4 -28.5l-36 -204q-3 -18 -3 -31q0 -23 15 -30.5t55 -7.5h46q16 0 16 -14v-1v-1l-1 -8
q-1 -8 -7.5 -12.5t-14.5 -4.5h-46q-54 0 -80.5 16.5t-26.5 60.5q0 15 3 33l36 204q6 33 6 56q0 26 -9.5 44.5t-33.5 38.5l6 36q22 14 36.5 27t24 28t15 34t10.5 46l36 204q6 34 16 55.5t26.5 33.5t41 16.5t58.5 4.5h46q16 0 16 -14v-2v-1z" />
    <glyph glyph-name="bar" unicode="|" horiz-adv-x="224" 
d="M204 -176q0 -8 -4.5 -13.5t-12.5 -5.5h-10q-8 0 -12.5 5.5t-4.5 13.5v900q0 8 4.5 13.5t12.5 5.5h10q8 0 12.5 -5.5t4.5 -13.5v-900v0z" />
    <glyph glyph-name="braceright" unicode="}" horiz-adv-x="300" 
d="M323 665q0 -14 -3 -32l-36 -204q-3 -17 -5 -31.5t-2 -26.5q0 -26 9.5 -44t33.5 -38l-6 -36q-23 -14 -37 -27t-23 -28t-14.5 -33.5t-10.5 -45.5l-36 -204q-6 -32 -14 -53t-23 -33.5t-40 -18t-65 -5.5h-46q-16 0 -16 14v3l1 8q1 8 7.5 12t14.5 4h46q24 0 40 2.5t26 10
t15.5 21t9.5 35.5l36 204q10 53 29.5 89t61.5 65q-23 21 -32.5 44.5t-9.5 53.5q0 26 6 58l36 204q3 18 3 31q0 23 -15 30.5t-55 7.5h-46q-16 0 -16 13v3l1 8q1 8 7.5 12.5t14.5 4.5h46q58 0 82.5 -19.5t24.5 -58.5z" />
    <glyph glyph-name="asciitilde" unicode="~" 
d="M554 459q0 -54 -24 -79t-66 -25q-23 0 -41.5 8t-35.5 24l-57 55q-14 14 -27.5 24.5t-27.5 10.5q-24 0 -39 -15.5t-15 -52.5v-30q0 -10 -1.5 -14.5t-9.5 -4.5h-15q-13 0 -13 19v30q0 54 25 80t67 26q23 0 41.5 -9t35.5 -25l57 -55q14 -14 27.5 -22.5t27.5 -8.5
q26 0 39 13.5t13 50.5v31q0 10 1.5 14t9.5 4h15q13 0 13 -18v-31v0z" />
    <glyph glyph-name="uni00A0" unicode="&#xa0;" horiz-adv-x="215" 
 />
    <glyph glyph-name="exclamdown" unicode="&#xa1;" horiz-adv-x="204" 
d="M216 523l-13 -74q-2 -8 -8 -13.5t-14 -5.5h-6q-16 0 -16 16v3l13 74q2 8 8.5 13.5t14.5 5.5h6q15 0 15 -15v-4zM185 344l-94 -532q-2 -8 -8.5 -13.5t-14.5 -5.5h-6q-15 0 -15 16v3l94 532q2 8 8 13.5t14 5.5h6q16 0 16 -16v-3z" />
    <glyph glyph-name="cent" unicode="&#xa2;" 
d="M499 515l-1 -7q-1 -8 -6.5 -11t-13.5 -3h-3h-1q-69 9 -117 9q-43 0 -75 -15t-55.5 -42t-38 -63.5t-21.5 -79.5l-11 -67q-6 -35 -6 -65q0 -61 28 -99.5t96 -38.5q48 0 120 9h1h3q15 0 15 -11v-2v-1l-1 -7q-2 -8 -6.5 -12t-15.5 -6q-26 -3 -52.5 -5.5t-49.5 -3.5l-18 -101
q-2 -8 -6.5 -13.5t-12.5 -5.5h-10q-7 0 -10 4.5t-3 10.5v3v1l18 102q-76 6 -108.5 51t-32.5 117q0 17 2 35t5 38l11 67q18 110 70 170t149 68l18 102q2 8 7 13.5t13 5.5h10q12 0 12 -14v-3v-2l-17 -101q23 -1 48 -3.5t50 -5.5q16 -3 16 -13v-3v-2z" />
    <glyph glyph-name="sterling" unicode="&#xa3;" 
d="M635 723l-1 -8q-1 -15 -17 -15h-7q-32 4 -70.5 6t-73.5 2q-48 0 -81 -17t-55 -46.5t-35 -70t-21 -88.5l-13 -74h245q15 0 15 -13v-4l-2 -9q-2 -8 -8.5 -12.5t-14.5 -4.5h-243l-35 -200q-8 -42 -22 -72.5t-33 -55.5h334q7 0 12.5 -2.5t5.5 -8.5v-3l-2 -11q-2 -8 -8.5 -12
t-14.5 -4h-372q-10 0 -13.5 5t-3.5 11q0 8 5 15q26 33 42 63t24 75l35 200h-53q-15 0 -15 13v4l2 9q2 8 8.5 12.5t14.5 4.5h51l13 74q11 64 29.5 113t47 82t70 50t98.5 17q40 0 78 -2.5t68 -6.5q10 -2 13 -4.5t3 -7.5v-4z" />
    <glyph glyph-name="currency" unicode="&#xa4;" 
d="M589 161q0 -7 -5 -12l-7 -7q-5 -5 -11 -5q-8 0 -15 7l-81 82q-26 -20 -56 -30.5t-61 -10.5t-60.5 10t-55.5 30l-80 -80q-7 -7 -15 -7q-6 0 -11 5l-7 7q-5 5 -5 11q0 8 7 15l79 79q-21 26 -31.5 56.5t-10.5 62.5q0 65 41 117l-78 78q-7 7 -7 15q0 7 5 12l7 7q5 5 10 5
q8 0 16 -8l78 -78q52 41 117 41q32 0 62.5 -10.5t56.5 -31.5l80 80q7 7 15 7q6 0 11 -5l7 -7q5 -5 5 -11q0 -8 -7 -15l-80 -80q20 -26 30 -55.5t10 -60.5t-10.5 -61t-30.5 -56l81 -81q7 -7 7 -15zM501 374q0 31 -11.5 57.5t-32 46.5t-47.5 31.5t-57 11.5q-31 0 -58 -11.5
t-47 -31.5t-31.5 -46.5t-11.5 -57.5t11.5 -58t31.5 -47t47 -31.5t58 -11.5t58 11.5t47 31.5t31.5 47t11.5 58z" />
    <glyph glyph-name="yen" unicode="&#xa5;" 
d="M649 732q0 -7 -6 -16l-166 -245h123q15 0 15 -13v-3l-1 -9q-1 -8 -8 -12t-15 -4h-142l-83 -121l-5 -30h205q15 0 15 -13v-3l-1 -9q-1 -8 -8 -12t-15 -4h-203l-39 -219q-2 -8 -7 -13.5t-13 -5.5h-10q-7 0 -10.5 4.5t-3.5 10.5v4l39 219h-205q-15 0 -15 13v3l1 9q1 8 8 12
t15 4h203l5 30l-39 121h-144q-15 0 -15 13v3l1 9q1 8 8 12t15 4h121l-80 245q-2 8 -2 11q0 16 18 16h12q5 0 8.5 -3.5t5.5 -8.5l121 -370l250 370q3 5 8 8.5t10 3.5h14q15 0 15 -11z" />
    <glyph glyph-name="brokenbar" unicode="&#xa6;" horiz-adv-x="224" 
d="M214 361q0 -8 -4.5 -13.5t-12.5 -5.5h-10q-8 0 -12.5 5.5t-4.5 13.5v348q0 8 4.5 13.5t12.5 5.5h10q8 0 12.5 -5.5t4.5 -13.5v-348zM214 -192q0 -8 -4.5 -13.5t-12.5 -5.5h-10q-8 0 -12.5 5.5t-4.5 13.5v348q0 8 4.5 13.5t12.5 5.5h10q8 0 12.5 -5.5t4.5 -13.5v-348z" />
    <glyph glyph-name="section" unicode="&#xa7;" horiz-adv-x="521" 
d="M578 722l-1 -8q-1 -8 -7.5 -12t-14.5 -4t-25.5 1t-38.5 2.5t-43.5 3t-41.5 1.5q-38 0 -75.5 -5t-67 -20.5t-48 -44t-18.5 -74.5q0 -33 22.5 -59.5t76.5 -63.5l87 -60q70 -49 95.5 -88.5t25.5 -77.5q0 -16 -3 -32q-6 -35 -17 -61t-32 -50q9 -16 12.5 -31.5t3.5 -32.5
q0 -61 -21 -103t-57.5 -68.5t-85.5 -38.5t-105 -12q-49 0 -86 2.5t-66 5.5q-14 2 -14 16v2v1l1 6q2 8 9 12.5t15 4.5h1h1q38 -3 71.5 -5.5t74.5 -2.5q44 0 83.5 9t69 30t47 54.5t17.5 81.5q0 18 -5.5 33.5t-18.5 31.5t-34 32.5t-51 37.5l-90 61q-64 43 -86.5 79.5
t-22.5 71.5q0 14 3 28q8 42 21.5 64.5t32.5 42.5q-9 13 -15 32t-6 42q0 59 22.5 96t59.5 58t84.5 29t96.5 8q17 0 39.5 -0.5t44 -1.5t40 -2.5t27.5 -2.5q7 -1 10 -5.5t3 -10.5v-2v-1zM460 210q0 16 -5 31t-17.5 30.5t-33.5 33.5t-53 40l-90 61q-19 13 -33.5 24t-26.5 22
q-30 -27 -39 -76q-2 -7 -2 -13v-11q0 -32 22.5 -58.5t76.5 -63.5l87 -60q27 -19 47 -34.5t34 -31.5q23 33 30 77q3 15 3 29z" />
    <glyph glyph-name="dieresis" unicode="&#xa8;" horiz-adv-x="330" 
d="M392 735l-13 -74q-2 -8 -8.5 -13.5t-14.5 -5.5h-6q-15 0 -15 15v4l13 74q2 8 8 13.5t14 5.5h6q16 0 16 -16v-3zM242 735l-13 -74q-2 -8 -8.5 -13.5t-14.5 -5.5h-6q-15 0 -15 15v4l13 74q2 8 8 13.5t14 5.5h6q16 0 16 -16v-3z" />
    <glyph glyph-name="copyright" unicode="&#xa9;" horiz-adv-x="730" 
d="M763 374q0 -66 -25.5 -124.5t-69 -101.5t-102 -68t-124.5 -25t-124.5 25t-101.5 68t-68 101.5t-25 124.5t25 125t68 102.5t101.5 69t124.5 25.5t124.5 -25.5t102 -69t69 -102.5t25.5 -125zM724 374q0 58 -22 110t-60.5 90t-90 60.5t-109.5 22.5q-59 0 -110 -22.5
t-89.5 -60.5t-60.5 -90t-22 -110q0 -59 22 -110t60.5 -89t89.5 -60t110 -22q58 0 109.5 22t90 60t60.5 89t22 110zM543 183q0 -8 -5.5 -11.5t-10.5 -4.5q-11 -2 -34.5 -4t-62.5 -2q-27 0 -53 9t-46 30t-32 55.5t-12 85.5v72q0 51 12 85.5t32 55.5t46 30t53 9q39 0 62.5 -2
t34.5 -4q5 -1 10.5 -4t5.5 -11v-8q0 -8 -4 -10t-9 -2h-5q-15 2 -42 3.5t-53 1.5q-22 0 -41 -7.5t-33.5 -24.5t-22.5 -44.5t-8 -67.5v-72q0 -40 8 -67.5t22.5 -44.5t33.5 -24.5t41 -7.5q26 0 53 1.5t42 3.5h3q5 0 10 -2.5t5 -11.5v-5z" />
    <glyph glyph-name="ordfeminine" unicode="&#xaa;" horiz-adv-x="268" 
d="M346 669q0 -14 -3 -29l-30 -171q-2 -13 -14 -16q-42 -11 -83 -11q-50 0 -73 16.5t-23 52.5q0 5 0.5 10.5t1.5 10.5l1 7q7 46 41 66.5t106 20.5h37l2 14q2 9 3 16.5t1 14.5q0 23 -11.5 32.5t-39.5 9.5q-26 0 -41 -1.5t-34 -3.5h-1h-1q-5 0 -9.5 2t-4.5 7q0 11 4 15t16 6
q17 2 33.5 3.5t42.5 1.5q44 0 61.5 -21t17.5 -53zM266 595q-30 0 -50.5 -3.5t-33 -10t-19 -17t-8.5 -25.5l-1 -7q-1 -5 -1.5 -10t-0.5 -10q0 -21 14 -30.5t55 -9.5q17 0 34.5 2t26.5 4l20 117h-36z" />
    <glyph glyph-name="guillemotleft" unicode="&#xab;" horiz-adv-x="535" 
d="M562 447q0 -12 -12 -21l-206 -162l149 -162q5 -7 5 -10q0 -5 -7 -11l-8 -7q-7 -5 -11 -5q-6 0 -14 8l-150 163q-9 10 -9 22q0 9 5 18.5t15 17.5l206 163q10 7 17 7q6 0 10 -4l8 -10q2 -2 2 -7zM332 447q0 -12 -12 -21l-206 -162l149 -162q5 -7 5 -10q0 -5 -7 -11l-8 -7
q-7 -5 -11 -5q-6 0 -14 8l-150 163q-9 10 -9 22q0 9 5 18.5t15 17.5l206 163q10 7 17 7q6 0 10 -4l8 -10q2 -2 2 -7z" />
    <glyph glyph-name="logicalnot" unicode="&#xac;" 
d="M573 290q0 -8 -4 -14t-12 -6h-10q-8 0 -12 6t-4 14v180h-343q-8 0 -14 4t-6 12v10q0 8 6 12t14 4h369q8 0 12 -5.5t4 -12.5v-204v0z" />
    <glyph glyph-name="uni00AD" unicode="&#xad;" horiz-adv-x="344" 
d="M342 281l-2 -8q-3 -16 -22 -16h-202q-16 0 -16 13v3l2 8q2 8 8 13t14 5h202q16 0 16 -15v-3z" />
    <glyph glyph-name="registered" unicode="&#xae;" horiz-adv-x="616" 
d="M661 484q0 -54 -20.5 -102t-56.5 -83.5t-84 -56t-102 -20.5t-102 20.5t-84 56t-56.5 83.5t-20.5 102t20.5 102t56.5 84t84 56.5t102 20.5t102 -20.5t84 -56.5t56.5 -84t20.5 -102zM626 484q0 47 -18 88.5t-49 72.5t-72.5 49t-88.5 18t-88.5 -18t-72.5 -49t-48.5 -72.5
t-17.5 -88.5t17.5 -88.5t48.5 -72.5t72.5 -48.5t88.5 -17.5t88.5 17.5t72.5 48.5t49 72.5t18 88.5zM517 330q0 -5 -3 -9t-11 -4h-5q-4 0 -7.5 2.5t-5.5 4.5l-91 139h-1q-4 0 -6.5 0.5t-7.5 0.5h-34h-15v-131q0 -5 -4 -10.5t-11 -5.5h-4q-7 0 -11 5.5t-4 10.5v308q0 5 4 10
t10 6q11 1 33 1.5t36 0.5q60 0 93 -21t33 -76v-2q0 -41 -18.5 -62.5t-54.5 -29.5l82 -127q3 -5 3 -11zM471 562q0 36 -22 50t-70 14h-24.5t-24.5 -1v-128q11 0 26 -0.5t23 -0.5q51 0 71.5 13.5t20.5 50.5v2z" />
    <glyph glyph-name="macron" unicode="&#xaf;" horiz-adv-x="330" 
d="M444 715l-2 -11q-2 -8 -8.5 -12t-14.5 -4h-266q-17 0 -17 13v3l2 11q2 8 8.5 11.5t14.5 3.5h266q17 0 17 -12v-3z" />
    <glyph glyph-name="degree" unicode="&#xb0;" horiz-adv-x="331" 
d="M417 613q0 -28 -10.5 -52.5t-29 -43t-43 -29t-52.5 -10.5t-52.5 10.5t-43 29t-29.5 43t-11 52.5t11 52.5t29.5 43t43 29t52.5 10.5t52.5 -10.5t43 -29t29 -43t10.5 -52.5zM379 613q0 20 -7.5 37.5t-21 31t-31 21.5t-37.5 8t-38 -8t-31 -21.5t-20.5 -31t-7.5 -37.5
t7.5 -37.5t21 -31t31 -21t37.5 -7.5t37.5 7.5t31 21t21 31t7.5 37.5z" />
    <glyph glyph-name="plusminus" unicode="&#xb1;" 
d="M577 386q0 -8 -6 -12t-14 -4h-182v-181q0 -8 -4 -14t-12 -6h-10q-8 0 -12 6t-4 14v181h-181q-8 0 -14 4t-6 12v10q0 8 6 12t14 4h181v182q0 8 4 14t12 6h10q8 0 12 -6t4 -14v-182h182q8 0 14 -4t6 -12v-10zM577 16q0 -8 -6 -12t-14 -4h-405q-8 0 -14 4t-6 12v10q0 8 6 12
t14 4h405q8 0 14 -4t6 -12v-10z" />
    <glyph glyph-name="two.superior" unicode="&#xb2;" horiz-adv-x="319" 
d="M192 709q-9 -1 -13.5 0.5t-4.5 11.5v3q0 16 23 19q20 3 42 4.5t40 1.5q58 0 88.5 -19t30.5 -62q0 -34 -21.5 -65t-78.5 -65l-61 -37q-27 -16 -43.5 -30t-26 -28t-14 -28.5t-7.5 -30.5l-2 -14h178q8 0 12.5 -4t2.5 -12l-1 -6q-2 -9 -7.5 -12.5t-13.5 -3.5h-200
q-8 0 -12.5 6t-2.5 13l6 33q4 22 10.5 41t18.5 36t32 34t52 37l62 38q19 12 33 22t23 21.5t13.5 24.5t4.5 30q0 22 -19 34t-64 12q-17 0 -38 -1.5t-42 -3.5z" />
    <glyph glyph-name="three.superior" unicode="&#xb3;" horiz-adv-x="319" 
d="M161 531q-8 0 -12.5 4.5t-2.5 12.5l1 4q5 17 21 17h101q26 0 42.5 9.5t25.5 23t12 29t3 27.5q0 34 -22.5 45t-67.5 11q-15 0 -36 -2l-42 -4q-8 -1 -13.5 0.5t-3.5 11.5l1 4q2 7 5 11.5t14 6.5q17 3 40.5 5t41.5 2q58 0 91.5 -18.5t33.5 -72.5q0 -12 -2.5 -26.5t-10 -29.5
t-20.5 -29t-34 -25q20 -16 27 -33.5t7 -43.5q0 -42 -12.5 -69.5t-35 -43.5t-53 -22.5t-65.5 -6.5q-18 0 -40.5 2t-38.5 5q-11 2 -13 7.5t0 10.5l1 4q2 10 7.5 11.5t13.5 0.5q20 -2 39 -4t37 -2q63 0 91 26t28 81q0 26 -11.5 43t-46.5 17h-101z" />
    <glyph glyph-name="acute" unicode="&#xb4;" horiz-adv-x="330" 
d="M407 772q0 -4 -5 -9l-119 -128l-12.5 -12.5t-12.5 -4.5h-26q-8 0 -8 6q0 5 6 11l112 128q8 9 12.5 12t12.5 3h30q10 0 10 -6z" />
    <glyph glyph-name="mu" unicode="&#xb5;" horiz-adv-x="521" 
d="M542 518l-84 -480q-1 -6 -6 -11t-10 -7q-39 -12 -87.5 -19t-88.5 -7q-51 0 -87 15.5t-56 44.5l-40 -230q-2 -8 -7 -13.5t-13 -5.5h-10q-14 0 -14 16v3l122 694q2 8 8.5 13.5t14.5 5.5h7q14 0 14 -16v-3l-58 -333q-4 -23 -4 -46q0 -56 32 -81t98 -25q32 0 72.5 5.5
t70.5 13.5l82 466q2 8 8.5 13.5t14.5 5.5h6q15 0 15 -16v-3z" />
    <glyph glyph-name="paragraph" unicode="&#xb6;" horiz-adv-x="599" 
d="M658 731q0 -2 -0.5 -3.5t-0.5 -3.5l-159 -900q-2 -8 -7 -13.5t-13 -5.5h-10q-14 0 -14 16v3l155 878h-56l-155 -878q-2 -8 -7 -13.5t-13 -5.5h-10q-14 0 -14 16v3l79 451h-109q-91 0 -143.5 44t-52.5 128q0 12 1.5 24.5t3.5 26.5l4 22q10 54 34 95.5t59 70t80 43t97 14.5
h237q14 0 14 -12z" />
    <glyph glyph-name="periodcentered" unicode="&#xb7;" horiz-adv-x="168" 
d="M183 434l-14 -74q-2 -8 -8 -13.5t-14 -5.5h-6q-16 0 -16 16v3l14 74q2 8 8 13.5t14 5.5h6q16 0 16 -16v-3z" />
    <glyph glyph-name="cedilla" unicode="&#xb8;" horiz-adv-x="330" 
d="M192 -53q0 -5 -5 -10l-118 -115l-12.5 -12.5t-12.5 -4.5h-22q-8 0 -8 6q0 5 6 11l111 115q8 8 13 11.5t13 3.5h26q9 0 9 -5z" />
    <glyph glyph-name="one.superior" unicode="&#xb9;" horiz-adv-x="210" 
d="M216 707l-56 -8q-13 -2 -16 3.5t-1 15.5q2 11 7.5 14t13.5 5l78 11q15 2 17.5 -4t0.5 -15l-67 -379q-2 -8 -6 -13t-13 -5h-8q-9 0 -11.5 5.5t-1.5 12.5z" />
    <glyph glyph-name="ordmasculine" unicode="&#xba;" horiz-adv-x="287" 
d="M369 647q0 -8 -1 -17t-3 -19l-7 -37q-13 -66 -46 -99t-90 -33q-48 0 -71.5 27t-23.5 70q0 8 1 17t3 18l7 37q25 132 137 132q48 0 71 -26.5t23 -69.5zM336 649q0 32 -15.5 48t-50.5 16q-44 0 -67.5 -29t-31.5 -73l-7 -37q-4 -19 -4 -37q0 -65 67 -65q44 0 67 28.5
t31 73.5l7 37q4 19 4 38z" />
    <glyph glyph-name="guillemotright" unicode="&#xbb;" horiz-adv-x="535" 
d="M561 275q0 -9 -5 -18.5t-15 -17.5l-206 -163q-5 -3 -8.5 -5t-8.5 -2q-6 0 -10 4l-8 10q-2 2 -2 7q0 12 12 21l206 162l-149 162q-5 7 -5 10q0 5 7 11l8 7q7 5 11 5t7.5 -2.5t6.5 -5.5l150 -163q9 -11 9 -22zM331 275q0 -9 -5 -18.5t-15 -17.5l-206 -163q-5 -3 -8.5 -5
t-8.5 -2q-6 0 -10 4l-8 10q-2 2 -2 7q0 12 12 21l206 162l-149 162q-5 7 -5 10q0 5 7 11l8 7q7 5 11 5q6 0 14 -8l150 -163q9 -11 9 -22z" />
    <glyph glyph-name="onequarter" unicode="&#xbc;" horiz-adv-x="688" 
d="M242 707l-56 -8q-13 -2 -16 3.5t-1 15.5q2 11 7.5 14t13.5 5l78 11q15 2 17.5 -4t0.5 -15l-67 -379q-2 -8 -6 -13t-13 -5h-8q-9 0 -11.5 5.5t-1.5 12.5zM665 743q11 0 13.5 -5.5t-3.5 -13.5l-542 -711q-8 -11 -13.5 -15t-17.5 -4h-11q-11 0 -13.5 6.5t5.5 16.5l539 707
q8 11 14 15t17 4h12zM588 154l37 207q1 7 -5 1l-170 -201q-3 -3 -2 -5t4 -2h136zM577 0q-9 0 -12 5.5t-1 12.5l18 99h-132q-17 0 -27 6.5t-13 16.5t0 21.5t11 21.5l185 215q11 13 21 16t19 3q28 0 22 -38l-40 -225h46q7 0 12.5 -2.5t3.5 -13.5l-1 -5q-3 -16 -21 -16h-46
l-18 -99q-3 -18 -19 -18h-8z" />
    <glyph glyph-name="onehalf" unicode="&#xbd;" horiz-adv-x="736" 
d="M242 707l-56 -8q-13 -2 -16 3.5t-1 15.5q2 11 7.5 14t13.5 5l78 11q15 2 17.5 -4t0.5 -15l-67 -379q-2 -8 -6 -13t-13 -5h-8q-9 0 -11.5 5.5t-1.5 12.5zM665 743q11 0 13.5 -5.5t-3.5 -13.5l-542 -711q-8 -11 -13.5 -15t-17.5 -4h-11q-11 0 -13.5 6.5t5.5 16.5l539 707
q8 11 14 15t17 4h12zM533 377q-9 -1 -13.5 0.5t-4.5 11.5v3q0 16 23 19q20 3 42 4.5t40 1.5q58 0 88.5 -19t30.5 -62q0 -34 -21.5 -65t-78.5 -65l-61 -37q-27 -16 -43.5 -30t-26 -28t-14 -28.5t-7.5 -30.5l-2 -14h178q8 0 12.5 -4t2.5 -12l-1 -6q-2 -9 -7.5 -12.5
t-13.5 -3.5h-200q-8 0 -12.5 6t-2.5 13l6 33q4 22 10.5 41t18.5 36t32 34t52 37l62 38q19 12 33 22t23 21.5t13.5 24.5t4.5 30q0 22 -19 34t-64 12q-17 0 -38 -1.5t-42 -3.5z" />
    <glyph glyph-name="threequarters" unicode="&#xbe;" horiz-adv-x="735" 
d="M712 743q11 0 13.5 -5.5t-3.5 -13.5l-542 -711q-8 -11 -13.5 -15t-17.5 -4h-11q-11 0 -13.5 6.5t5.5 16.5l539 707q8 11 14 15t17 4h12zM635 154l37 207q1 7 -5 1l-170 -201q-3 -3 -2 -5t4 -2h136zM624 0q-9 0 -12 5.5t-1 12.5l18 99h-132q-17 0 -27 6.5t-13 16.5t0 21.5
t11 21.5l185 215q11 13 21 16t19 3q28 0 22 -38l-40 -225h46q7 0 12.5 -2.5t3.5 -13.5l-1 -5q-3 -16 -21 -16h-46l-18 -99q-3 -18 -19 -18h-8zM136 531q-8 0 -12.5 4.5t-2.5 12.5l1 4q5 17 21 17h101q26 0 42.5 9.5t25.5 23t12 29t3 27.5q0 34 -22.5 45t-67.5 11
q-15 0 -36 -2l-42 -4q-8 -1 -13.5 0.5t-3.5 11.5l1 4q2 7 5 11.5t14 6.5q17 3 40.5 5t41.5 2q58 0 91.5 -18.5t33.5 -72.5q0 -12 -2.5 -26.5t-10 -29.5t-20.5 -29t-34 -25q20 -16 27 -33.5t7 -43.5q0 -42 -12.5 -69.5t-35 -43.5t-53 -22.5t-65.5 -6.5q-18 0 -40.5 2t-38.5 5
q-11 2 -13 7.5t0 10.5l1 4q2 10 7.5 11.5t13.5 0.5q20 -2 39 -4t37 -2q63 0 91 26t28 81q0 26 -11.5 43t-46.5 17h-101z" />
    <glyph glyph-name="questiondown" unicode="&#xbf;" horiz-adv-x="424" 
d="M397 524l-13 -74q-2 -8 -8.5 -13.5t-14.5 -5.5h-6q-15 0 -15 16v2v1l13 74q2 8 8 13.5t14 5.5h6q16 0 16 -16v-2v-1zM364 345l-10 -60q-4 -26 -11 -45.5t-18.5 -36.5t-29 -34.5t-43.5 -39.5l-33 -28q-36 -31 -58.5 -52.5t-36 -39t-19.5 -33.5t-8 -34l-1 -8q-1 -6 -1 -11
v-10q0 -46 30.5 -65.5t96.5 -19.5q18 0 32 0.5t27.5 1.5t28 2t32.5 3h1h1q13 0 13 -10v-1v-1l-1 -8q-1 -7 -5.5 -12t-15.5 -7q-32 -4 -61.5 -5.5t-58.5 -1.5q-75 0 -121.5 30t-46.5 93v10.5t1 11.5l1 8q3 24 10 43.5t23 40.5t42.5 46t67.5 59l36 30q23 19 37.5 33.5
t23.5 27.5t13.5 27.5t7.5 35.5l10 60q2 8 8 13.5t14 5.5h6q16 0 16 -16v-2v-1z" />
    <glyph glyph-name="Agrave" unicode="&#xc0;" horiz-adv-x="619" 
d="M583 18q0 -9 -4.5 -15t-14.5 -6h-10q-11 0 -13 13l-36 271h-288l-130 -271q-2 -5 -8 -9t-11 -4h-15q-13 0 -13 12q0 3 1 6t3 7l324 677q24 49 74 49q24 0 38 -12.5t17 -35.5l86 -678v-4zM456 687q-1 8 -6 14t-13 6q-9 0 -16 -5.5t-11 -13.5l-174 -363h265zM498 802
q0 -9 -10 -9h-18q-8 0 -11 4.5t-8 12.5l-84 128q-3 4 -3 7q0 8 12 8h22q8 0 12 -3.5t9 -11.5l77 -128q2 -3 2 -8z" />
    <glyph glyph-name="Aacute" unicode="&#xc1;" horiz-adv-x="619" 
d="M583 18q0 -9 -4.5 -15t-14.5 -6h-10q-11 0 -13 13l-36 271h-288l-130 -271q-2 -5 -8 -9t-11 -4h-15q-13 0 -13 12q0 3 1 6t3 7l324 677q24 49 74 49q24 0 38 -12.5t17 -35.5l86 -678v-4zM456 687q-1 8 -6 14t-13 6q-9 0 -16 -5.5t-11 -13.5l-174 -363h265zM569 948
q0 -4 -5 -9l-119 -128l-12.5 -12.5t-12.5 -4.5h-26q-8 0 -8 6q0 5 6 11l112 128q8 9 12.5 12t12.5 3h30q10 0 10 -6z" />
    <glyph glyph-name="Acircumflex" unicode="&#xc2;" horiz-adv-x="619" 
d="M583 18q0 -9 -4.5 -15t-14.5 -6h-10q-11 0 -13 13l-36 271h-288l-130 -271q-2 -5 -8 -9t-11 -4h-15q-13 0 -13 12q0 3 1 6t3 7l324 677q24 49 74 49q24 0 38 -12.5t17 -35.5l86 -678v-4zM456 687q-1 8 -6 14t-13 6q-9 0 -16 -5.5t-11 -13.5l-174 -363h265zM598 803
q0 -9 -10 -9h-19q-8 0 -11 4.5t-8 12.5l-74 113l-114 -113l-12.5 -12.5t-12.5 -4.5h-25q-8 0 -8 6q0 5 6 11l123 128q8 8 12.5 11.5t12.5 3.5h40q8 0 12 -3.5t9 -11.5l77 -128q2 -3 2 -8z" />
    <glyph glyph-name="Atilde" unicode="&#xc3;" horiz-adv-x="619" 
d="M583 18q0 -9 -4.5 -15t-14.5 -6h-10q-11 0 -13 13l-36 271h-288l-130 -271q-2 -5 -8 -9t-11 -4h-15q-13 0 -13 12q0 3 1 6t3 7l324 677q24 49 74 49q24 0 38 -12.5t17 -35.5l86 -678v-4zM456 687q-1 8 -6 14t-13 6q-9 0 -16 -5.5t-11 -13.5l-174 -363h265zM638 912
q0 -2 -0.5 -3.5t-0.5 -3.5l-4 -26q-7 -46 -31.5 -68t-60.5 -22q-20 0 -37.5 6t-38.5 32l-28 34q-10 12 -20 19t-22 7q-18 0 -32.5 -9.5t-19.5 -41.5l-4 -26q-2 -8 -4 -12t-9 -4h-21q-9 0 -9 9q0 2 0.5 3.5t0.5 3.5l4 26q7 46 32 68t62 22q20 0 36.5 -6.5t36.5 -30.5l29 -35
q21 -26 44 -26q18 0 31.5 9.5t18.5 41.5l4 26q2 8 4 12t9 4h21q9 0 9 -9z" />
    <glyph glyph-name="Adieresis" unicode="&#xc4;" horiz-adv-x="619" 
d="M583 18q0 -9 -4.5 -15t-14.5 -6h-10q-11 0 -13 13l-36 271h-288l-130 -271q-2 -5 -8 -9t-11 -4h-15q-13 0 -13 12q0 3 1 6t3 7l324 677q24 49 74 49q24 0 38 -12.5t17 -35.5l86 -678v-4zM456 687q-1 8 -6 14t-13 6q-9 0 -16 -5.5t-11 -13.5l-174 -363h265zM568 907
l-13 -74q-2 -8 -8.5 -13.5t-14.5 -5.5h-6q-15 0 -15 15v4l13 74q2 8 8 13.5t14 5.5h6q16 0 16 -16v-3zM418 907l-13 -74q-2 -8 -8.5 -13.5t-14.5 -5.5h-6q-15 0 -15 15v4l13 74q2 8 8 13.5t14 5.5h6q16 0 16 -16v-3z" />
    <glyph glyph-name="Aring" unicode="&#xc5;" horiz-adv-x="619" 
d="M583 18q0 -9 -4.5 -15t-14.5 -6h-10q-11 0 -13 13l-36 271h-288l-130 -271q-2 -5 -8 -9t-11 -4h-15q-13 0 -13 12q0 3 1 6t3 7l324 677q24 49 74 49q24 0 38 -12.5t17 -35.5l86 -678v-4zM456 687q-1 8 -6 14t-13 6q-9 0 -16 -5.5t-11 -13.5l-174 -363h265zM556 868
q0 -19 -7.5 -36t-20 -29.5t-29.5 -20t-36 -7.5t-36 7.5t-29.5 20t-20 29.5t-7.5 36t7.5 36t20 29.5t29.5 20t36 7.5t36 -7.5t29.5 -20t20 -29.5t7.5 -36zM521 868q0 24 -17 41t-41 17t-40.5 -17t-16.5 -41t16.5 -41t40.5 -17t41 17t17 41z" />
    <glyph glyph-name="AE" unicode="&#xc6;" horiz-adv-x="879" 
d="M950 726l-1 -8q-1 -8 -7.5 -12t-14.5 -4h-335l-52 -291h335q7 0 12 -3t5 -10v-3l-2 -10q-3 -17 -22 -17h-335l-51 -287q-1 -5 -1.5 -9t-0.5 -8q0 -12 7 -17.5t27 -5.5h296q16 0 16 -13v-3l-1 -8q-1 -8 -7.5 -12.5t-14.5 -4.5h-296q-36 0 -53.5 15.5t-17.5 44.5
q0 5 0.5 10.5t1.5 10.5l36 200h-268l-130 -271q-2 -5 -8 -9t-11 -4h-13q-13 0 -13 12q0 3 1 6t3 7l323 672q11 23 30 36t44 13h502q16 0 16 -14v-3zM425 702q-9 0 -16 -5.5t-11 -13.5l-173 -358h256l67 377h-123z" />
    <glyph glyph-name="Ccedilla" unicode="&#xc7;" horiz-adv-x="537" 
d="M624 721l-2 -12q-2 -8 -5.5 -10t-9.5 -2h-4h-2q-13 1 -33 3t-43 3t-48 2t-48 1q-44 0 -83.5 -14t-71.5 -45.5t-56 -83t-37 -126.5l-23 -132q-9 -54 -9 -94q0 -49 12 -82.5t33.5 -54t51 -29.5t65.5 -9q23 0 48 1t48.5 2t44 2.5t34.5 3.5h2h4q11 0 11 -8v-4l-2 -12
q-2 -8 -8.5 -12t-13.5 -5q-20 -2 -63 -6t-112 -4q-39 0 -75 11.5t-63.5 37t-44 67.5t-16.5 102q0 42 9 93l23 132q16 91 45.5 151t69.5 95.5t87 50t98 14.5q69 0 110 -4t61 -6q6 -1 11 -4.5t5 -10.5v-2zM346 -53q0 -4 -6 -10l-130 -128l-12.5 -12.5t-12.5 -4.5h-22
q-7 0 -7 6q0 4 5 11l123 128q8 8 13 11.5t13 3.5h26q10 0 10 -5z" />
    <glyph glyph-name="Egrave" unicode="&#xc8;" horiz-adv-x="533" 
d="M606 726l-1 -8q-1 -8 -7.5 -12t-14.5 -4h-258q-19 0 -34 -2.5t-26 -10t-18.5 -21.5t-11.5 -37l-39 -220h335q7 0 12 -3t5 -10v-3l-2 -10q-3 -17 -22 -17h-335l-45 -256q-2 -7 -2 -13v-11q0 -30 17.5 -38.5t48.5 -8.5h258q16 0 16 -13v-3l-1 -8q-1 -8 -7.5 -12.5
t-14.5 -4.5h-258q-49 0 -76.5 20.5t-27.5 64.5q0 12 3 27l91 519q11 65 45.5 88.5t95.5 23.5h258q16 0 16 -14v-3zM488 803q0 -9 -10 -9h-18q-8 0 -11 4.5t-8 12.5l-84 128q-3 4 -3 7q0 8 12 8h22q8 0 12 -3.5t9 -11.5l77 -128q2 -3 2 -8z" />
    <glyph glyph-name="Eacute" unicode="&#xc9;" horiz-adv-x="533" 
d="M606 726l-1 -8q-1 -8 -7.5 -12t-14.5 -4h-258q-19 0 -34 -2.5t-26 -10t-18.5 -21.5t-11.5 -37l-39 -220h335q7 0 12 -3t5 -10v-3l-2 -10q-3 -17 -22 -17h-335l-45 -256q-2 -7 -2 -13v-11q0 -30 17.5 -38.5t48.5 -8.5h258q16 0 16 -13v-3l-1 -8q-1 -8 -7.5 -12.5
t-14.5 -4.5h-258q-49 0 -76.5 20.5t-27.5 64.5q0 12 3 27l91 519q11 65 45.5 88.5t95.5 23.5h258q16 0 16 -14v-3zM559 948q0 -4 -5 -9l-119 -128l-12.5 -12.5t-12.5 -4.5h-26q-8 0 -8 6q0 5 6 11l112 128q8 9 12.5 12t12.5 3h30q10 0 10 -6z" />
    <glyph glyph-name="Ecircumflex" unicode="&#xca;" horiz-adv-x="533" 
d="M606 726l-1 -8q-1 -8 -7.5 -12t-14.5 -4h-258q-19 0 -34 -2.5t-26 -10t-18.5 -21.5t-11.5 -37l-39 -220h335q7 0 12 -3t5 -10v-3l-2 -10q-3 -17 -22 -17h-335l-45 -256q-2 -7 -2 -13v-11q0 -30 17.5 -38.5t48.5 -8.5h258q16 0 16 -13v-3l-1 -8q-1 -8 -7.5 -12.5
t-14.5 -4.5h-258q-49 0 -76.5 20.5t-27.5 64.5q0 12 3 27l91 519q11 65 45.5 88.5t95.5 23.5h258q16 0 16 -14v-3zM569 803q0 -9 -10 -9h-19q-8 0 -11 4.5t-8 12.5l-74 113l-114 -113l-12.5 -12.5t-12.5 -4.5h-25q-8 0 -8 6q0 5 6 11l123 128q8 8 12.5 11.5t12.5 3.5h40
q8 0 12 -3.5t9 -11.5l77 -128q2 -3 2 -8z" />
    <glyph glyph-name="Edieresis" unicode="&#xcb;" horiz-adv-x="533" 
d="M606 726l-1 -8q-1 -8 -7.5 -12t-14.5 -4h-258q-19 0 -34 -2.5t-26 -10t-18.5 -21.5t-11.5 -37l-39 -220h335q7 0 12 -3t5 -10v-3l-2 -10q-3 -17 -22 -17h-335l-45 -256q-2 -7 -2 -13v-11q0 -30 17.5 -38.5t48.5 -8.5h258q16 0 16 -13v-3l-1 -8q-1 -8 -7.5 -12.5
t-14.5 -4.5h-258q-49 0 -76.5 20.5t-27.5 64.5q0 12 3 27l91 519q11 65 45.5 88.5t95.5 23.5h258q16 0 16 -14v-3zM541 906l-13 -74q-2 -8 -8.5 -13.5t-14.5 -5.5h-6q-15 0 -15 15v4l13 74q2 8 8 13.5t14 5.5h6q16 0 16 -16v-3zM391 906l-13 -74q-2 -8 -8.5 -13.5
t-14.5 -5.5h-6q-15 0 -15 15v4l13 74q2 8 8 13.5t14 5.5h6q16 0 16 -16v-3z" />
    <glyph glyph-name="Igrave" unicode="&#xcc;" horiz-adv-x="224" 
d="M262 724l-125 -705q-2 -8 -7 -13.5t-13 -5.5h-10q-7 0 -10.5 4.5t-3.5 10.5v4l125 705q2 8 7 13.5t13 5.5h10q7 0 10.5 -4.5t3.5 -10.5v-4zM299 803q0 -9 -10 -9h-18q-8 0 -11 4.5t-8 12.5l-84 128q-3 4 -3 7q0 8 12 8h22q8 0 12 -3.5t9 -11.5l77 -128q2 -3 2 -8z" />
    <glyph glyph-name="Iacute" unicode="&#xcd;" horiz-adv-x="224" 
d="M262 724l-125 -705q-2 -8 -7 -13.5t-13 -5.5h-10q-7 0 -10.5 4.5t-3.5 10.5v4l125 705q2 8 7 13.5t13 5.5h10q7 0 10.5 -4.5t3.5 -10.5v-4zM385 948q0 -4 -5 -9l-119 -128l-12.5 -12.5t-12.5 -4.5h-26q-8 0 -8 6q0 5 6 11l112 128q8 9 12.5 12t12.5 3h30q10 0 10 -6z" />
    <glyph glyph-name="Icircumflex" unicode="&#xce;" horiz-adv-x="224" 
d="M262 724l-125 -705q-2 -8 -7 -13.5t-13 -5.5h-10q-7 0 -10.5 4.5t-3.5 10.5v4l125 705q2 8 7 13.5t13 5.5h10q7 0 10.5 -4.5t3.5 -10.5v-4zM402 803q0 -9 -10 -9h-19q-8 0 -11 4.5t-8 12.5l-74 113l-114 -113l-12.5 -12.5t-12.5 -4.5h-25q-8 0 -8 6q0 5 6 11l123 128
q8 8 12.5 11.5t12.5 3.5h40q8 0 12 -3.5t9 -11.5l77 -128q2 -3 2 -8z" />
    <glyph glyph-name="Idieresis" unicode="&#xcf;" horiz-adv-x="224" 
d="M262 724l-125 -705q-2 -8 -7 -13.5t-13 -5.5h-10q-7 0 -10.5 4.5t-3.5 10.5v4l125 705q2 8 7 13.5t13 5.5h10q7 0 10.5 -4.5t3.5 -10.5v-4zM369 907l-13 -74q-2 -8 -8.5 -13.5t-14.5 -5.5h-6q-15 0 -15 15v4l13 74q2 8 8 13.5t14 5.5h6q16 0 16 -16v-3zM219 907l-13 -74
q-2 -8 -8.5 -13.5t-14.5 -5.5h-6q-15 0 -15 15v4l13 74q2 8 8 13.5t14 5.5h6q16 0 16 -16v-3z" />
    <glyph glyph-name="Eth" unicode="&#xd0;" horiz-adv-x="613" 
d="M637 521q0 -20 -1.5 -42t-6.5 -46l-22 -124q-16 -91 -48.5 -151.5t-77.5 -97t-101 -51.5t-120 -15q-60 0 -101 2t-62 6q-13 2 -13 16v2v1l61 347h-71q-16 0 -16 14v2v1l2 10q3 16 21 16h71l55 310q2 7 7.5 12t12.5 7q23 4 64.5 6t101.5 2q54 0 99 -12.5t77 -40t50 -70.5
t18 -104zM594 521q0 55 -16 91.5t-43.5 58t-65.5 30t-83 8.5q-44 0 -74 -2t-64 -4l-52 -292h85q17 0 17 -13v-2v-1l-2 -10q-3 -17 -22 -17h-85l-58 -331q32 -2 62 -3t74 -1q52 0 100 15t87 48t67 85.5t42 127.5l22 124q9 49 9 88z" />
    <glyph glyph-name="Ntilde" unicode="&#xd1;" horiz-adv-x="651" 
d="M699 724l-120 -680q-5 -24 -19.5 -37t-33.5 -13t-29.5 6.5t-16.5 25.5l-218 673q-2 7 -9 7q-5 0 -6 -7l-120 -680q-2 -8 -7 -13.5t-13 -5.5h-10q-7 0 -10.5 4.5t-3.5 10.5v4l120 680q5 28 22 38.5t33 10.5q20 0 30 -9t15 -22l218 -674q2 -7 6 -7q1 0 3.5 2.5t3.5 5.5
l120 680q2 8 6.5 13.5t12.5 5.5h12q8 0 11 -4.5t3 -10.5v-4zM647 912q0 -2 -0.5 -3.5t-0.5 -3.5l-4 -26q-7 -46 -31.5 -68t-60.5 -22q-20 0 -37.5 6t-38.5 32l-28 34q-10 12 -20 19t-22 7q-18 0 -32.5 -9.5t-19.5 -41.5l-4 -26q-2 -8 -4 -12t-9 -4h-21q-9 0 -9 9
q0 2 0.5 3.5t0.5 3.5l4 26q7 46 32 68t62 22q20 0 36.5 -6.5t36.5 -30.5l29 -35q21 -26 44 -26q18 0 31.5 9.5t18.5 41.5l4 26q2 8 4 12t9 4h21q9 0 9 -9z" />
    <glyph glyph-name="Ograve" unicode="&#xd2;" horiz-adv-x="632" 
d="M657 525q0 -41 -9 -92l-22 -124q-15 -86 -45 -146t-70.5 -97.5t-90 -54.5t-105.5 -17q-47 0 -85.5 13t-66 40t-43 69t-15.5 100q0 42 9 93l22 124q16 89 45.5 149.5t70 97t90.5 52.5t106 16q47 0 85.5 -13.5t66 -41t42.5 -69.5t15 -99zM613 527q0 51 -13 85.5t-36 55
t-54.5 29.5t-69.5 9q-46 0 -87 -13.5t-75 -45.5t-59 -84t-39 -130l-22 -124q-9 -54 -9 -95q0 -50 12.5 -84t35 -55t54.5 -30t71 -9q46 0 88 15t75.5 48t58.5 84.5t38 125.5l22 124q9 52 9 94zM530 802q0 -9 -10 -9h-18q-8 0 -11 4.5t-8 12.5l-84 128q-3 4 -3 7q0 8 12 8h22
q8 0 12 -3.5t9 -11.5l77 -128q2 -3 2 -8z" />
    <glyph glyph-name="Oacute" unicode="&#xd3;" horiz-adv-x="632" 
d="M657 525q0 -41 -9 -92l-22 -124q-15 -86 -45 -146t-70.5 -97.5t-90 -54.5t-105.5 -17q-47 0 -85.5 13t-66 40t-43 69t-15.5 100q0 42 9 93l22 124q16 89 45.5 149.5t70 97t90.5 52.5t106 16q47 0 85.5 -13.5t66 -41t42.5 -69.5t15 -99zM613 527q0 51 -13 85.5t-36 55
t-54.5 29.5t-69.5 9q-46 0 -87 -13.5t-75 -45.5t-59 -84t-39 -130l-22 -124q-9 -54 -9 -95q0 -50 12.5 -84t35 -55t54.5 -30t71 -9q46 0 88 15t75.5 48t58.5 84.5t38 125.5l22 124q9 52 9 94zM613 947q0 -4 -5 -9l-119 -128l-12.5 -12.5t-12.5 -4.5h-26q-8 0 -8 6q0 5 6 11
l112 128q8 9 12.5 12t12.5 3h30q10 0 10 -6z" />
    <glyph glyph-name="Ocircumflex" unicode="&#xd4;" horiz-adv-x="632" 
d="M657 525q0 -41 -9 -92l-22 -124q-15 -86 -45 -146t-70.5 -97.5t-90 -54.5t-105.5 -17q-47 0 -85.5 13t-66 40t-43 69t-15.5 100q0 42 9 93l22 124q16 89 45.5 149.5t70 97t90.5 52.5t106 16q47 0 85.5 -13.5t66 -41t42.5 -69.5t15 -99zM613 527q0 51 -13 85.5t-36 55
t-54.5 29.5t-69.5 9q-46 0 -87 -13.5t-75 -45.5t-59 -84t-39 -130l-22 -124q-9 -54 -9 -95q0 -50 12.5 -84t35 -55t54.5 -30t71 -9q46 0 88 15t75.5 48t58.5 84.5t38 125.5l22 124q9 52 9 94zM605 803q0 -9 -10 -9h-19q-8 0 -11 4.5t-8 12.5l-74 113l-114 -113l-12.5 -12.5
t-12.5 -4.5h-25q-8 0 -8 6q0 5 6 11l123 128q8 8 12.5 11.5t12.5 3.5h40q8 0 12 -3.5t9 -11.5l77 -128q2 -3 2 -8z" />
    <glyph glyph-name="Otilde" unicode="&#xd5;" horiz-adv-x="632" 
d="M657 525q0 -41 -9 -92l-22 -124q-15 -86 -45 -146t-70.5 -97.5t-90 -54.5t-105.5 -17q-47 0 -85.5 13t-66 40t-43 69t-15.5 100q0 42 9 93l22 124q16 89 45.5 149.5t70 97t90.5 52.5t106 16q47 0 85.5 -13.5t66 -41t42.5 -69.5t15 -99zM613 527q0 51 -13 85.5t-36 55
t-54.5 29.5t-69.5 9q-46 0 -87 -13.5t-75 -45.5t-59 -84t-39 -130l-22 -124q-9 -54 -9 -95q0 -50 12.5 -84t35 -55t54.5 -30t71 -9q46 0 88 15t75.5 48t58.5 84.5t38 125.5l22 124q9 52 9 94zM643 912q0 -2 -0.5 -3.5t-0.5 -3.5l-4 -26q-7 -46 -31.5 -68t-60.5 -22
q-20 0 -37.5 6t-38.5 32l-28 34q-10 12 -20 19t-22 7q-18 0 -32.5 -9.5t-19.5 -41.5l-4 -26q-2 -8 -4 -12t-9 -4h-21q-9 0 -9 9q0 2 0.5 3.5t0.5 3.5l4 26q7 46 32 68t62 22q20 0 36.5 -6.5t36.5 -30.5l29 -35q21 -26 44 -26q18 0 31.5 9.5t18.5 41.5l4 26q2 8 4 12t9 4h21
q9 0 9 -9z" />
    <glyph glyph-name="Odieresis" unicode="&#xd6;" horiz-adv-x="632" 
d="M657 525q0 -41 -9 -92l-22 -124q-15 -86 -45 -146t-70.5 -97.5t-90 -54.5t-105.5 -17q-47 0 -85.5 13t-66 40t-43 69t-15.5 100q0 42 9 93l22 124q16 89 45.5 149.5t70 97t90.5 52.5t106 16q47 0 85.5 -13.5t66 -41t42.5 -69.5t15 -99zM613 527q0 51 -13 85.5t-36 55
t-54.5 29.5t-69.5 9q-46 0 -87 -13.5t-75 -45.5t-59 -84t-39 -130l-22 -124q-9 -54 -9 -95q0 -50 12.5 -84t35 -55t54.5 -30t71 -9q46 0 88 15t75.5 48t58.5 84.5t38 125.5l22 124q9 52 9 94zM568 906l-13 -74q-2 -8 -8.5 -13.5t-14.5 -5.5h-6q-15 0 -15 15v4l13 74
q2 8 8 13.5t14 5.5h6q16 0 16 -16v-3zM418 906l-13 -74q-2 -8 -8.5 -13.5t-14.5 -5.5h-6q-15 0 -15 15v4l13 74q2 8 8 13.5t14 5.5h6q16 0 16 -16v-3z" />
    <glyph glyph-name="multiply" unicode="&#xd7;" 
d="M544 549q0 -8 -8 -16l-143 -142l143 -143q8 -8 8 -16q0 -5 -5 -10l-7 -7q-5 -5 -10 -5q-8 0 -16 8l-142 143l-142 -142q-8 -8 -16 -8q-5 0 -10 5l-7 7q-5 5 -5 10q0 8 8 16l142 142l-142 142q-8 8 -8 15q0 5 5 10l7 7q5 5 10 5q8 0 16 -8l142 -142l142 143q8 8 16 8
q5 0 10 -5l7 -7q5 -5 5 -10z" />
    <glyph glyph-name="Oslash" unicode="&#xd8;" horiz-adv-x="632" 
d="M728 734q0 -6 -4 -10l-84 -94q17 -45 17 -105q0 -41 -9 -92l-22 -124q-15 -86 -45 -146t-70.5 -97.5t-90 -54.5t-105.5 -17q-57 0 -101.5 19t-71.5 60l-60 -67q-5 -6 -10 -9t-13 -3h-16q-9 0 -9 9q0 6 4 10l85 95q-18 45 -18 108q0 42 9 93l22 124q16 89 45.5 149.5
t70 97t90.5 52.5t106 16q58 0 102.5 -20t71.5 -62l60 67q5 6 9 8t12 2h16q9 0 9 -9zM592 632q-22 41 -61.5 57.5t-90.5 16.5q-46 0 -87 -13.5t-75 -45.5t-59 -84t-39 -130l-22 -124q-9 -54 -9 -95q0 -20 2 -36.5t6 -31.5zM613 527q0 38 -7 65l-434 -485q21 -38 60 -54.5
t90 -16.5q46 0 88 15t75.5 48t58.5 84.5t38 125.5l22 124q9 52 9 94z" />
    <glyph glyph-name="Ugrave" unicode="&#xd9;" horiz-adv-x="633" 
d="M681 724l-81 -460q-11 -65 -32.5 -115t-56 -84.5t-82.5 -52.5t-113 -18q-102 0 -149.5 51.5t-47.5 140.5q0 18 2 37.5t6 40.5l81 460q2 8 7 13.5t13 5.5h10q14 0 14 -16v-3l-81 -460q-4 -22 -6 -41.5t-2 -37.5q0 -75 37.5 -112.5t122.5 -37.5q100 0 156.5 58t76.5 171
l81 460q2 8 7 13.5t13 5.5h10q14 0 14 -16v-3zM501 802q0 -9 -10 -9h-18q-8 0 -11 4.5t-8 12.5l-84 128q-3 4 -3 7q0 8 12 8h22q8 0 12 -3.5t9 -11.5l77 -128q2 -3 2 -8z" />
    <glyph glyph-name="Uacute" unicode="&#xda;" horiz-adv-x="633" 
d="M681 724l-81 -460q-11 -65 -32.5 -115t-56 -84.5t-82.5 -52.5t-113 -18q-102 0 -149.5 51.5t-47.5 140.5q0 18 2 37.5t6 40.5l81 460q2 8 7 13.5t13 5.5h10q14 0 14 -16v-3l-81 -460q-4 -22 -6 -41.5t-2 -37.5q0 -75 37.5 -112.5t122.5 -37.5q100 0 156.5 58t76.5 171
l81 460q2 8 7 13.5t13 5.5h10q14 0 14 -16v-3zM597 947q0 -4 -5 -9l-119 -128l-12.5 -12.5t-12.5 -4.5h-26q-8 0 -8 6q0 5 6 11l112 128q8 9 12.5 12t12.5 3h30q10 0 10 -6z" />
    <glyph glyph-name="Ucircumflex" unicode="&#xdb;" horiz-adv-x="633" 
d="M681 724l-81 -460q-11 -65 -32.5 -115t-56 -84.5t-82.5 -52.5t-113 -18q-102 0 -149.5 51.5t-47.5 140.5q0 18 2 37.5t6 40.5l81 460q2 8 7 13.5t13 5.5h10q14 0 14 -16v-3l-81 -460q-4 -22 -6 -41.5t-2 -37.5q0 -75 37.5 -112.5t122.5 -37.5q100 0 156.5 58t76.5 171
l81 460q2 8 7 13.5t13 5.5h10q14 0 14 -16v-3zM601 803q0 -9 -10 -9h-19q-8 0 -11 4.5t-8 12.5l-74 113l-114 -113l-12.5 -12.5t-12.5 -4.5h-25q-8 0 -8 6q0 5 6 11l123 128q8 8 12.5 11.5t12.5 3.5h40q8 0 12 -3.5t9 -11.5l77 -128q2 -3 2 -8z" />
    <glyph glyph-name="Udieresis" unicode="&#xdc;" horiz-adv-x="633" 
d="M681 724l-81 -460q-11 -65 -32.5 -115t-56 -84.5t-82.5 -52.5t-113 -18q-102 0 -149.5 51.5t-47.5 140.5q0 18 2 37.5t6 40.5l81 460q2 8 7 13.5t13 5.5h10q14 0 14 -16v-3l-81 -460q-4 -22 -6 -41.5t-2 -37.5q0 -75 37.5 -112.5t122.5 -37.5q100 0 156.5 58t76.5 171
l81 460q2 8 7 13.5t13 5.5h10q14 0 14 -16v-3zM563 907l-13 -74q-2 -8 -8.5 -13.5t-14.5 -5.5h-6q-15 0 -15 15v4l13 74q2 8 8 13.5t14 5.5h6q16 0 16 -16v-3zM413 907l-13 -74q-2 -8 -8.5 -13.5t-14.5 -5.5h-6q-15 0 -15 15v4l13 74q2 8 8 13.5t14 5.5h6q16 0 16 -16v-3z
" />
    <glyph glyph-name="Yacute" unicode="&#xdd;" horiz-adv-x="550" 
d="M634 732q0 -6 -6 -16l-219 -349q-17 -28 -31.5 -40.5t-26.5 -17.5l-51 -290q-2 -8 -7 -13.5t-13 -5.5h-10q-7 0 -10.5 4.5t-3.5 10.5v4l51 290q-11 5 -19.5 17.5t-16.5 40.5l-97 349q-1 3 -1 9q0 18 20 18h8q5 0 8.5 -3.5t5.5 -8.5l95 -350q6 -22 10.5 -28.5t13.5 -6.5
t15.5 6.5t20.5 28.5l219 350q3 5 8 8.5t10 3.5h12q15 0 15 -11zM549 948q0 -4 -5 -9l-119 -128l-12.5 -12.5t-12.5 -4.5h-26q-8 0 -8 6q0 5 6 11l112 128q8 9 12.5 12t12.5 3h30q10 0 10 -6z" />
    <glyph glyph-name="Thorn" unicode="&#xde;" horiz-adv-x="540" 
d="M588 491q0 -22 -4 -42l-3 -17q-11 -59 -35 -99.5t-62.5 -66t-91.5 -37t-121 -11.5q-29 0 -58 1t-50 3l-36 -203q-2 -8 -7 -13.5t-13 -5.5h-10q-7 0 -10.5 4.5t-3.5 10.5v4l125 705q2 8 7 13.5t13 5.5h10q7 0 10.5 -4.5t3.5 -10.5v-4l-14 -75q26 2 56 2.5t55 0.5
q116 0 177.5 -40t61.5 -121zM544 490q0 69 -51.5 96t-150.5 27q-32 0 -60 -0.5t-50 -2.5l-62 -349q23 -2 52.5 -3t55.5 -1q116 0 179 40t80 135l3 17q2 11 3 21.5t1 19.5z" />
    <glyph glyph-name="germandbls" unicode="&#xdf;" horiz-adv-x="543" 
d="M572 598q0 -16 -3 -34l-1 -7q-5 -31 -18.5 -57.5t-33.5 -47.5t-44.5 -36.5t-50.5 -24.5q50 -16 78 -57t28 -94v-11.5t-1 -11.5l-1 -8q-8 -59 -31 -100t-59 -66.5t-82 -37t-99 -11.5q-10 0 -17.5 1t-22.5 2q-16 0 -16 15v3l1 8q1 8 6.5 10t12.5 2h2h1q18 -1 24 -1.5
t16 -0.5q44 0 81.5 9.5t66.5 30.5t47.5 54.5t24.5 81.5l1 8q1 6 1.5 12.5t0.5 12.5q0 28 -9 51.5t-28.5 40.5t-49 26.5t-71.5 9.5h-41q-7 0 -12 3t-5 9v4l2 9q3 16 22 16h41q44 0 77.5 12.5t57.5 32.5t38 46.5t18 54.5l1 7q2 11 2.5 18t0.5 16q0 52 -29 81.5t-99 29.5
q-30 0 -60 -10.5t-55.5 -34t-45.5 -60.5t-29 -90l-87 -494q-2 -8 -7.5 -14t-13.5 -6h-12q-12 0 -12 13q0 2 0.5 3.5t0.5 3.5l86 493q11 64 34 109t54.5 73t70.5 40.5t83 12.5q76 0 120.5 -39t44.5 -111z" />
    <glyph glyph-name="agrave" unicode="&#xe0;" horiz-adv-x="504" 
d="M524 511q0 -2 -0.5 -3.5t-0.5 -3.5l-85 -484q-2 -8 -8 -14t-14 -6h-8q-15 0 -15 16q0 1 0.5 2t0.5 2l6 33q-40 -21 -83.5 -40t-88.5 -19q-31 0 -57.5 8.5t-46 26.5t-30.5 45t-11 64q0 20 5 48l20 113q12 65 31 111t48 75.5t68.5 43t91.5 13.5q43 0 87.5 -6t76.5 -13
q13 -3 13 -12zM476 490q-26 5 -63 9t-73 4q-84 0 -127.5 -53t-60.5 -151l-20 -113q-5 -28 -5 -48q0 -33 9 -53.5t24.5 -32t35.5 -15.5t42 -4q38 0 76.5 16.5t92.5 45.5zM410 627q0 -9 -10 -9h-18q-8 0 -11 4.5t-8 12.5l-84 128q-3 4 -3 7q0 8 12 8h22q8 0 12 -3.5t9 -11.5
l77 -128q2 -3 2 -8z" />
    <glyph glyph-name="aacute" unicode="&#xe1;" horiz-adv-x="504" 
d="M524 511q0 -2 -0.5 -3.5t-0.5 -3.5l-85 -484q-2 -8 -8 -14t-14 -6h-8q-15 0 -15 16q0 1 0.5 2t0.5 2l6 33q-40 -21 -83.5 -40t-88.5 -19q-31 0 -57.5 8.5t-46 26.5t-30.5 45t-11 64q0 20 5 48l20 113q12 65 31 111t48 75.5t68.5 43t91.5 13.5q43 0 87.5 -6t76.5 -13
q13 -3 13 -12zM476 490q-26 5 -63 9t-73 4q-84 0 -127.5 -53t-60.5 -151l-20 -113q-5 -28 -5 -48q0 -33 9 -53.5t24.5 -32t35.5 -15.5t42 -4q38 0 76.5 16.5t92.5 45.5zM484 772q0 -4 -5 -9l-119 -128l-12.5 -12.5t-12.5 -4.5h-26q-8 0 -8 6q0 5 6 11l112 128q8 9 12.5 12
t12.5 3h30q10 0 10 -6z" />
    <glyph glyph-name="acircumflex" unicode="&#xe2;" horiz-adv-x="504" 
d="M524 511q0 -2 -0.5 -3.5t-0.5 -3.5l-85 -484q-2 -8 -8 -14t-14 -6h-8q-15 0 -15 16q0 1 0.5 2t0.5 2l6 33q-40 -21 -83.5 -40t-88.5 -19q-31 0 -57.5 8.5t-46 26.5t-30.5 45t-11 64q0 20 5 48l20 113q12 65 31 111t48 75.5t68.5 43t91.5 13.5q43 0 87.5 -6t76.5 -13
q13 -3 13 -12zM476 490q-26 5 -63 9t-73 4q-84 0 -127.5 -53t-60.5 -151l-20 -113q-5 -28 -5 -48q0 -33 9 -53.5t24.5 -32t35.5 -15.5t42 -4q38 0 76.5 16.5t92.5 45.5zM503 627q0 -9 -10 -9h-19q-8 0 -11 4.5t-8 12.5l-74 113l-114 -113l-12.5 -12.5t-12.5 -4.5h-25
q-8 0 -8 6q0 5 6 11l123 128q8 8 12.5 11.5t12.5 3.5h40q8 0 12 -3.5t9 -11.5l77 -128q2 -3 2 -8z" />
    <glyph glyph-name="atilde" unicode="&#xe3;" horiz-adv-x="504" 
d="M524 511q0 -2 -0.5 -3.5t-0.5 -3.5l-85 -484q-2 -8 -8 -14t-14 -6h-8q-15 0 -15 16q0 1 0.5 2t0.5 2l6 33q-40 -21 -83.5 -40t-88.5 -19q-31 0 -57.5 8.5t-46 26.5t-30.5 45t-11 64q0 20 5 48l20 113q12 65 31 111t48 75.5t68.5 43t91.5 13.5q43 0 87.5 -6t76.5 -13
q13 -3 13 -12zM476 490q-26 5 -63 9t-73 4q-84 0 -127.5 -53t-60.5 -151l-20 -113q-5 -28 -5 -48q0 -33 9 -53.5t24.5 -32t35.5 -15.5t42 -4q38 0 76.5 16.5t92.5 45.5zM535 752q0 -2 -0.5 -3.5t-0.5 -3.5l-4 -26q-7 -46 -31.5 -68t-60.5 -22q-20 0 -37.5 6t-38.5 32l-28 34
q-10 12 -20 19t-22 7q-18 0 -32.5 -9.5t-19.5 -41.5l-4 -26q-2 -8 -4 -12t-9 -4h-21q-9 0 -9 9q0 2 0.5 3.5t0.5 3.5l4 26q7 46 32 68t62 22q20 0 36.5 -6.5t36.5 -30.5l29 -35q21 -26 44 -26q18 0 31.5 9.5t18.5 41.5l4 26q2 8 4 12t9 4h21q9 0 9 -9z" />
    <glyph glyph-name="adieresis" unicode="&#xe4;" horiz-adv-x="504" 
d="M524 511q0 -2 -0.5 -3.5t-0.5 -3.5l-85 -484q-2 -8 -8 -14t-14 -6h-8q-15 0 -15 16q0 1 0.5 2t0.5 2l6 33q-40 -21 -83.5 -40t-88.5 -19q-31 0 -57.5 8.5t-46 26.5t-30.5 45t-11 64q0 20 5 48l20 113q12 65 31 111t48 75.5t68.5 43t91.5 13.5q43 0 87.5 -6t76.5 -13
q13 -3 13 -12zM476 490q-26 5 -63 9t-73 4q-84 0 -127.5 -53t-60.5 -151l-20 -113q-5 -28 -5 -48q0 -33 9 -53.5t24.5 -32t35.5 -15.5t42 -4q38 0 76.5 16.5t92.5 45.5zM472 742l-13 -74q-2 -8 -8.5 -13.5t-14.5 -5.5h-6q-15 0 -15 15v4l13 74q2 8 8 13.5t14 5.5h6
q16 0 16 -16v-3zM322 742l-13 -74q-2 -8 -8.5 -13.5t-14.5 -5.5h-6q-15 0 -15 15v4l13 74q2 8 8 13.5t14 5.5h6q16 0 16 -16v-3z" />
    <glyph glyph-name="aring" unicode="&#xe5;" horiz-adv-x="504" 
d="M524 511q0 -2 -0.5 -3.5t-0.5 -3.5l-85 -484q-2 -8 -8 -14t-14 -6h-8q-15 0 -15 16q0 1 0.5 2t0.5 2l6 33q-40 -21 -83.5 -40t-88.5 -19q-31 0 -57.5 8.5t-46 26.5t-30.5 45t-11 64q0 20 5 48l20 113q12 65 31 111t48 75.5t68.5 43t91.5 13.5q43 0 87.5 -6t76.5 -13
q13 -3 13 -12zM476 490q-26 5 -63 9t-73 4q-84 0 -127.5 -53t-60.5 -151l-20 -113q-5 -28 -5 -48q0 -33 9 -53.5t24.5 -32t35.5 -15.5t42 -4q38 0 76.5 16.5t92.5 45.5zM466 698q0 -19 -7.5 -36t-20 -29.5t-29.5 -20t-36 -7.5t-36 7.5t-29.5 20t-20 29.5t-7.5 36t7.5 36
t20 29.5t29.5 20t36 7.5t36 -7.5t29.5 -20t20 -29.5t7.5 -36zM431 698q0 24 -17 41t-41 17t-40.5 -17t-16.5 -41t16.5 -41t40.5 -17t41 17t17 41z" />
    <glyph glyph-name="ae" unicode="&#xe6;" horiz-adv-x="830" 
d="M835 368q0 -31 -6 -64l-5 -27q-2 -8 -8.5 -13.5t-14.5 -5.5h-338l-9 -54l-6 -34t-3 -34q0 -19 5 -37t22 -32q25 -22 60.5 -28t72.5 -6q33 0 73 4.5t78 12.5q2 0 3 0.5t3 0.5q13 0 13 -11v-2v-1l-2 -7q-2 -8 -6.5 -12.5t-15.5 -6.5q-38 -8 -78.5 -12.5t-74.5 -4.5
q-44 0 -84.5 8.5t-69.5 32.5q-8 6 -19 20.5t-16 27.5q-12 -14 -27 -29.5t-38.5 -29t-57 -22t-81.5 -8.5q-24 0 -47 7t-42 22.5t-30.5 39t-11.5 56.5q0 8 0.5 17t2.5 19l3 13q9 41 27.5 70t50 48t79 27.5t115.5 8.5h79l6 36q6 33 6 57q0 47 -24 67.5t-82 20.5
q-25 0 -43.5 -0.5t-35 -2t-32 -3t-33.5 -3.5h-1h-3q-7 0 -12 2.5t-5 9.5q0 1 0.5 1.5t0.5 1.5l1 6q3 15 26 18q16 2 31 3.5t31.5 3t36 2t44.5 0.5q69 0 102 -29t38 -68q30 49 78.5 73t108.5 24q42 0 73 -12.5t51.5 -35.5t30.5 -55t10 -71zM792 374q0 63 -29.5 96t-97.5 33
q-41 0 -73 -14.5t-56.5 -40.5t-40.5 -62.5t-23 -81.5l-1 -6h313l1 6q3 20 5 37t2 33zM345 282q-57 0 -95.5 -5.5t-64 -19t-40 -35.5t-21.5 -54l-3 -13q-2 -10 -2.5 -19t-0.5 -17q0 -48 26 -67t65 -19q88 0 136.5 40.5t64.5 130.5l14 78h-79z" />
    <glyph glyph-name="ccedilla" unicode="&#xe7;" horiz-adv-x="437" 
d="M484 515l-1 -7q-1 -8 -6.5 -11t-13.5 -3h-3h-1q-69 9 -117 9q-43 0 -75 -15t-55.5 -42t-38 -63.5t-21.5 -79.5l-11 -67q-3 -20 -5 -38t-2 -35q0 -63 28.5 -96.5t96.5 -33.5q48 0 120 9h1h3q15 0 15 -11v-2v-1l-1 -7q-2 -8 -6.5 -12t-15.5 -6q-32 -4 -65.5 -6.5
t-57.5 -2.5q-43 0 -73.5 12.5t-50 35t-28.5 54.5t-9 70q0 34 6 70l11 67q9 54 27.5 98t47.5 75.5t70.5 48.5t95.5 17q24 0 56 -2.5t63 -6.5q16 -3 16 -13v-3v-2zM268 -54q0 -2 -5 -9l-119 -128l-12.5 -12.5t-12.5 -4.5h-26q-8 0 -8 6q0 5 6 11l112 128q8 9 12.5 12t12.5 3
h30q10 0 10 -6z" />
    <glyph glyph-name="egrave" unicode="&#xe8;" horiz-adv-x="511" 
d="M516 372q0 -32 -6 -68l-5 -27q-2 -8 -9 -13.5t-15 -5.5h-337l-3 -21q-2 -18 -4 -34.5t-2 -30.5q0 -41 10.5 -67.5t30 -42t47 -22t62.5 -6.5q33 0 73.5 4t78.5 12q3 1 9 1q12 0 12 -8q0 -5 -1 -7l-2 -7q-3 -11 -7.5 -13.5t-15.5 -4.5q-38 -8 -78.5 -12.5t-74.5 -4.5
q-41 0 -75.5 10t-59.5 31t-38.5 54.5t-13.5 80.5q0 15 1 32.5t4 34.5l11 66q20 118 82 178.5t162 60.5q43 0 74 -12.5t51 -35t29.5 -54t9.5 -68.5zM473 374q0 63 -29 96t-98 33q-42 0 -73.5 -14t-55 -40t-39.5 -63t-25 -83l-1 -5h313l1 6q3 20 5 37t2 33zM410 627
q0 -9 -10 -9h-18q-8 0 -11 4.5t-8 12.5l-84 128q-3 4 -3 7q0 8 12 8h22q8 0 12 -3.5t9 -11.5l77 -128q2 -3 2 -8z" />
    <glyph glyph-name="eacute" unicode="&#xe9;" horiz-adv-x="511" 
d="M516 372q0 -32 -6 -68l-5 -27q-2 -8 -9 -13.5t-15 -5.5h-337l-3 -21q-2 -18 -4 -34.5t-2 -30.5q0 -41 10.5 -67.5t30 -42t47 -22t62.5 -6.5q33 0 73.5 4t78.5 12q3 1 9 1q12 0 12 -8q0 -5 -1 -7l-2 -7q-3 -11 -7.5 -13.5t-15.5 -4.5q-38 -8 -78.5 -12.5t-74.5 -4.5
q-41 0 -75.5 10t-59.5 31t-38.5 54.5t-13.5 80.5q0 15 1 32.5t4 34.5l11 66q20 118 82 178.5t162 60.5q43 0 74 -12.5t51 -35t29.5 -54t9.5 -68.5zM473 374q0 63 -29 96t-98 33q-42 0 -73.5 -14t-55 -40t-39.5 -63t-25 -83l-1 -5h313l1 6q3 20 5 37t2 33zM507 772
q0 -4 -5 -9l-119 -128l-12.5 -12.5t-12.5 -4.5h-26q-8 0 -8 6q0 5 6 11l112 128q8 9 12.5 12t12.5 3h30q10 0 10 -6z" />
    <glyph glyph-name="ecircumflex" unicode="&#xea;" horiz-adv-x="511" 
d="M516 372q0 -32 -6 -68l-5 -27q-2 -8 -9 -13.5t-15 -5.5h-337l-3 -21q-2 -18 -4 -34.5t-2 -30.5q0 -41 10.5 -67.5t30 -42t47 -22t62.5 -6.5q33 0 73.5 4t78.5 12q3 1 9 1q12 0 12 -8q0 -5 -1 -7l-2 -7q-3 -11 -7.5 -13.5t-15.5 -4.5q-38 -8 -78.5 -12.5t-74.5 -4.5
q-41 0 -75.5 10t-59.5 31t-38.5 54.5t-13.5 80.5q0 15 1 32.5t4 34.5l11 66q20 118 82 178.5t162 60.5q43 0 74 -12.5t51 -35t29.5 -54t9.5 -68.5zM473 374q0 63 -29 96t-98 33q-42 0 -73.5 -14t-55 -40t-39.5 -63t-25 -83l-1 -5h313l1 6q3 20 5 37t2 33zM519 627
q0 -9 -10 -9h-19q-8 0 -11 4.5t-8 12.5l-74 113l-114 -113l-12.5 -12.5t-12.5 -4.5h-25q-8 0 -8 6q0 5 6 11l123 128q8 8 12.5 11.5t12.5 3.5h40q8 0 12 -3.5t9 -11.5l77 -128q2 -3 2 -8z" />
    <glyph glyph-name="edieresis" unicode="&#xeb;" horiz-adv-x="511" 
d="M516 372q0 -32 -6 -68l-5 -27q-2 -8 -9 -13.5t-15 -5.5h-337l-3 -21q-2 -18 -4 -34.5t-2 -30.5q0 -41 10.5 -67.5t30 -42t47 -22t62.5 -6.5q33 0 73.5 4t78.5 12q3 1 9 1q12 0 12 -8q0 -5 -1 -7l-2 -7q-3 -11 -7.5 -13.5t-15.5 -4.5q-38 -8 -78.5 -12.5t-74.5 -4.5
q-41 0 -75.5 10t-59.5 31t-38.5 54.5t-13.5 80.5q0 15 1 32.5t4 34.5l11 66q20 118 82 178.5t162 60.5q43 0 74 -12.5t51 -35t29.5 -54t9.5 -68.5zM473 374q0 63 -29 96t-98 33q-42 0 -73.5 -14t-55 -40t-39.5 -63t-25 -83l-1 -5h313l1 6q3 20 5 37t2 33zM493 735l-13 -74
q-2 -8 -8.5 -13.5t-14.5 -5.5h-6q-15 0 -15 15v4l13 74q2 8 8 13.5t14 5.5h6q16 0 16 -16v-3zM343 735l-13 -74q-2 -8 -8.5 -13.5t-14.5 -5.5h-6q-15 0 -15 15v4l13 74q2 8 8 13.5t14 5.5h6q16 0 16 -16v-3z" />
    <glyph glyph-name="igrave" unicode="&#xec;" horiz-adv-x="204" 
d="M268 627q0 -9 -10 -9h-18q-8 0 -11 4.5t-8 12.5l-84 128q-3 4 -3 7q0 8 12 8h22q8 0 12 -3.5t9 -11.5l77 -128q2 -3 2 -8zM215 518l-88 -499q-2 -8 -8 -13.5t-14 -5.5h-6q-16 0 -16 16v3l88 499q2 8 7 13.5t13 5.5h11q7 0 10 -4.5t3 -10.5v-4z" />
    <glyph glyph-name="iacute" unicode="&#xed;" horiz-adv-x="204" 
d="M333 772q0 -4 -5 -9l-119 -128l-12.5 -12.5t-12.5 -4.5h-26q-8 0 -8 6q0 5 6 11l112 128q8 9 12.5 12t12.5 3h30q10 0 10 -6zM215 518l-88 -499q-2 -8 -8 -13.5t-14 -5.5h-6q-16 0 -16 16v3l88 499q2 8 7 13.5t13 5.5h11q7 0 10 -4.5t3 -10.5v-4z" />
    <glyph glyph-name="icircumflex" unicode="&#xee;" horiz-adv-x="204" 
d="M359 627q0 -9 -10 -9h-19q-8 0 -11 4.5t-8 12.5l-74 113l-114 -113l-12.5 -12.5t-12.5 -4.5h-25q-8 0 -8 6q0 5 6 11l123 128q8 8 12.5 11.5t12.5 3.5h40q8 0 12 -3.5t9 -11.5l77 -128q2 -3 2 -8zM215 518l-88 -499q-2 -8 -8 -13.5t-14 -5.5h-6q-16 0 -16 16v3l88 499
q2 8 7 13.5t13 5.5h11q7 0 10 -4.5t3 -10.5v-4z" />
    <glyph glyph-name="idieresis" unicode="&#xef;" horiz-adv-x="204" 
d="M329 735l-13 -74q-2 -8 -8.5 -13.5t-14.5 -5.5h-6q-15 0 -15 15v4l13 74q2 8 8 13.5t14 5.5h6q16 0 16 -16v-3zM179 735l-13 -74q-2 -8 -8.5 -13.5t-14.5 -5.5h-6q-15 0 -15 15v4l13 74q2 8 8 13.5t14 5.5h6q16 0 16 -16v-3zM215 518l-88 -499q-2 -8 -8 -13.5t-14 -5.5
h-6q-16 0 -16 16v3l88 499q2 8 7 13.5t13 5.5h11q7 0 10 -4.5t3 -10.5v-4z" />
    <glyph glyph-name="eth" unicode="&#xf0;" horiz-adv-x="522" 
d="M541 456q0 -22 -2.5 -44t-6.5 -45l-24 -134q-21 -118 -80.5 -178.5t-167.5 -60.5q-87 0 -128.5 46.5t-41.5 127.5q0 30 6 65l12 70q22 126 84 182.5t165 56.5q50 0 84.5 -16t55.5 -45q-6 60 -35 104t-99 77l-112 -74q-9 -6 -14 -6q-6 0 -10 6l-4 6q-2 4 -2 6q0 5 4 9.5
t9 8.5l90 61q-22 8 -48 16t-55 14q-5 2 -9.5 5t-4.5 8q0 1 2 7l4 8q5 11 16 11q5 0 8 -1q38 -9 69.5 -19.5t58.5 -21.5l116 79q5 4 13 4t12 -5l5 -6q3 -3 3 -6q0 -8 -13 -16l-99 -67q78 -42 108.5 -102t30.5 -131zM482 369q0 63 -30.5 98.5t-101.5 35.5q-88 0 -135 -53.5
t-63 -146.5l-12 -70q-6 -36 -6 -67q0 -64 31 -98.5t102 -34.5q88 0 134 52t63 148l12 70q6 36 6 66z" />
    <glyph glyph-name="ntilde" unicode="&#xf1;" horiz-adv-x="521" 
d="M518 399q0 -20 -5 -48l-59 -332q-2 -8 -8 -13.5t-14 -5.5h-7q-15 0 -15 16v3l59 332q2 12 3 23t1 22q0 59 -32 83t-80 24q-38 0 -81.5 -11.5t-84.5 -29.5l-78 -443q-2 -8 -8 -13.5t-14 -5.5h-6q-16 0 -16 16v3l88 498q2 8 8 14t14 6h8q7 0 10.5 -4.5t3.5 -10.5v-5l-3 -16
q42 19 82 30t79 11q31 0 59.5 -8t49.5 -25t33.5 -44t12.5 -66zM557 752q0 -2 -0.5 -3.5t-0.5 -3.5l-4 -26q-7 -46 -31.5 -68t-60.5 -22q-20 0 -37.5 6t-38.5 32l-28 34q-10 12 -20 19t-22 7q-18 0 -32.5 -9.5t-19.5 -41.5l-4 -26q-2 -8 -4 -12t-9 -4h-21q-9 0 -9 9
q0 2 0.5 3.5t0.5 3.5l4 26q7 46 32 68t62 22q20 0 36.5 -6.5t36.5 -30.5l29 -35q21 -26 44 -26q18 0 31.5 9.5t18.5 41.5l4 26q2 8 4 12t9 4h21q9 0 9 -9z" />
    <glyph glyph-name="ograve" unicode="&#xf2;" horiz-adv-x="522" 
d="M526 369q0 -30 -6 -66l-12 -70q-20 -115 -80 -177t-168 -62q-85 0 -127.5 46.5t-42.5 128.5q0 29 6 64l12 70q20 118 81.5 178.5t167.5 60.5q86 0 127.5 -46t41.5 -127zM483 372q0 63 -30.5 97t-102.5 34q-85 0 -133.5 -55t-64.5 -145l-12 -70q-3 -19 -5 -36t-2 -33
q0 -63 31 -97t103 -34q43 0 76.5 14.5t57.5 40.5t39.5 63t23.5 82l12 70q3 19 5 36t2 33zM420 627q0 -9 -10 -9h-18q-8 0 -11 4.5t-8 12.5l-84 128q-3 4 -3 7q0 8 12 8h22q8 0 12 -3.5t9 -11.5l77 -128q2 -3 2 -8z" />
    <glyph glyph-name="oacute" unicode="&#xf3;" horiz-adv-x="522" 
d="M526 369q0 -30 -6 -66l-12 -70q-20 -115 -80 -177t-168 -62q-85 0 -127.5 46.5t-42.5 128.5q0 29 6 64l12 70q20 118 81.5 178.5t167.5 60.5q86 0 127.5 -46t41.5 -127zM483 372q0 63 -30.5 97t-102.5 34q-85 0 -133.5 -55t-64.5 -145l-12 -70q-3 -19 -5 -36t-2 -33
q0 -63 31 -97t103 -34q43 0 76.5 14.5t57.5 40.5t39.5 63t23.5 82l12 70q3 19 5 36t2 33zM493 772q0 -4 -5 -9l-119 -128l-12.5 -12.5t-12.5 -4.5h-26q-8 0 -8 6q0 5 6 11l112 128q8 9 12.5 12t12.5 3h30q10 0 10 -6z" />
    <glyph glyph-name="ocircumflex" unicode="&#xf4;" horiz-adv-x="522" 
d="M526 369q0 -30 -6 -66l-12 -70q-20 -115 -80 -177t-168 -62q-85 0 -127.5 46.5t-42.5 128.5q0 29 6 64l12 70q20 118 81.5 178.5t167.5 60.5q86 0 127.5 -46t41.5 -127zM483 372q0 63 -30.5 97t-102.5 34q-85 0 -133.5 -55t-64.5 -145l-12 -70q-3 -19 -5 -36t-2 -33
q0 -63 31 -97t103 -34q43 0 76.5 14.5t57.5 40.5t39.5 63t23.5 82l12 70q3 19 5 36t2 33zM518 627q0 -9 -10 -9h-19q-8 0 -11 4.5t-8 12.5l-74 113l-114 -113l-12.5 -12.5t-12.5 -4.5h-25q-8 0 -8 6q0 5 6 11l123 128q8 8 12.5 11.5t12.5 3.5h40q8 0 12 -3.5t9 -11.5
l77 -128q2 -3 2 -8z" />
    <glyph glyph-name="otilde" unicode="&#xf5;" horiz-adv-x="522" 
d="M526 369q0 -30 -6 -66l-12 -70q-20 -115 -80 -177t-168 -62q-85 0 -127.5 46.5t-42.5 128.5q0 29 6 64l12 70q20 118 81.5 178.5t167.5 60.5q86 0 127.5 -46t41.5 -127zM483 372q0 63 -30.5 97t-102.5 34q-85 0 -133.5 -55t-64.5 -145l-12 -70q-3 -19 -5 -36t-2 -33
q0 -63 31 -97t103 -34q43 0 76.5 14.5t57.5 40.5t39.5 63t23.5 82l12 70q3 19 5 36t2 33zM555 752q0 -2 -0.5 -3.5t-0.5 -3.5l-4 -26q-7 -46 -31.5 -68t-60.5 -22q-20 0 -37.5 6t-38.5 32l-28 34q-10 12 -20 19t-22 7q-18 0 -32.5 -9.5t-19.5 -41.5l-4 -26q-2 -8 -4 -12
t-9 -4h-21q-9 0 -9 9q0 2 0.5 3.5t0.5 3.5l4 26q7 46 32 68t62 22q20 0 36.5 -6.5t36.5 -30.5l29 -35q21 -26 44 -26q18 0 31.5 9.5t18.5 41.5l4 26q2 8 4 12t9 4h21q9 0 9 -9z" />
    <glyph glyph-name="odieresis" unicode="&#xf6;" horiz-adv-x="522" 
d="M526 369q0 -30 -6 -66l-12 -70q-20 -115 -80 -177t-168 -62q-85 0 -127.5 46.5t-42.5 128.5q0 29 6 64l12 70q20 118 81.5 178.5t167.5 60.5q86 0 127.5 -46t41.5 -127zM483 372q0 63 -30.5 97t-102.5 34q-85 0 -133.5 -55t-64.5 -145l-12 -70q-3 -19 -5 -36t-2 -33
q0 -63 31 -97t103 -34q43 0 76.5 14.5t57.5 40.5t39.5 63t23.5 82l12 70q3 19 5 36t2 33zM488 735l-13 -74q-2 -8 -8.5 -13.5t-14.5 -5.5h-6q-15 0 -15 15v4l13 74q2 8 8 13.5t14 5.5h6q16 0 16 -16v-3zM338 735l-13 -74q-2 -8 -8.5 -13.5t-14.5 -5.5h-6q-15 0 -15 15v4
l13 74q2 8 8 13.5t14 5.5h6q16 0 16 -16v-3z" />
    <glyph glyph-name="divide" unicode="&#xf7;" 
d="M398 511q0 -8 -5.5 -13.5t-13.5 -5.5h-6q-8 0 -13.5 5.5t-5.5 13.5v74q0 8 5.5 13.5t13.5 5.5h6q8 0 13.5 -5.5t5.5 -13.5v-74zM579 386q0 -8 -6 -12t-14 -4h-365q-8 0 -14 4t-6 12v10q0 8 6 12t14 4h365q8 0 14 -4t6 -12v-10zM398 197q0 -8 -5.5 -13.5t-13.5 -5.5h-6
q-8 0 -13.5 5.5t-5.5 13.5v74q0 8 5.5 13.5t13.5 5.5h6q8 0 13.5 -5.5t5.5 -13.5v-74z" />
    <glyph glyph-name="oslash" unicode="&#xf8;" horiz-adv-x="522" 
d="M599 562q0 -7 -6 -13l-84 -91q17 -39 17 -89q0 -30 -6 -66l-12 -70q-20 -115 -80 -177t-168 -62q-87 0 -130 49l-62 -68q-7 -7 -10 -8.5t-8 -1.5h-25q-7 0 -7 6q0 7 6 13l85 92q-19 41 -19 93q0 29 6 64l12 70q20 118 81.5 178.5t167.5 60.5q88 0 131 -51l61 67
q7 7 10 8.5t8 1.5h25q7 0 7 -6zM460 460q-32 43 -110 43q-85 0 -133.5 -55t-64.5 -145l-12 -70q-3 -19 -5 -36t-2 -33q0 -31 7 -53zM483 372q0 27 -6 50l-319 -348q32 -41 109 -41q43 0 76.5 14.5t57.5 40.5t39.5 63t23.5 82l12 70q3 19 5 36t2 33z" />
    <glyph glyph-name="ugrave" unicode="&#xf9;" horiz-adv-x="522" 
d="M544 518l-89 -499q-2 -8 -8 -14t-14 -6h-8q-13 0 -13 16v3v1l2 16q-42 -19 -82 -30.5t-79 -11.5q-32 0 -60 8t-49 25.5t-33 44.5t-12 66q0 11 1 22.5t3 25.5l60 333q2 8 8 13.5t14 5.5h7q15 0 15 -16v-3l-60 -333q-2 -13 -3 -25t-1 -23q0 -59 32 -82t80 -23q38 0 81.5 12
t84.5 30l79 444q2 8 8 13.5t14 5.5h6q16 0 16 -16v-3zM434 627q0 -9 -10 -9h-18q-8 0 -11 4.5t-8 12.5l-84 128q-3 4 -3 7q0 8 12 8h22q8 0 12 -3.5t9 -11.5l77 -128q2 -3 2 -8z" />
    <glyph glyph-name="uacute" unicode="&#xfa;" horiz-adv-x="522" 
d="M544 518l-89 -499q-2 -8 -8 -14t-14 -6h-8q-13 0 -13 16v3v1l2 16q-42 -19 -82 -30.5t-79 -11.5q-32 0 -60 8t-49 25.5t-33 44.5t-12 66q0 11 1 22.5t3 25.5l60 333q2 8 8 13.5t14 5.5h7q15 0 15 -16v-3l-60 -333q-2 -13 -3 -25t-1 -23q0 -59 32 -82t80 -23q38 0 81.5 12
t84.5 30l79 444q2 8 8 13.5t14 5.5h6q16 0 16 -16v-3zM507 772q0 -4 -5 -9l-119 -128l-12.5 -12.5t-12.5 -4.5h-26q-8 0 -8 6q0 5 6 11l112 128q8 9 12.5 12t12.5 3h30q10 0 10 -6z" />
    <glyph glyph-name="ucircumflex" unicode="&#xfb;" horiz-adv-x="522" 
d="M544 518l-89 -499q-2 -8 -8 -14t-14 -6h-8q-13 0 -13 16v3v1l2 16q-42 -19 -82 -30.5t-79 -11.5q-32 0 -60 8t-49 25.5t-33 44.5t-12 66q0 11 1 22.5t3 25.5l60 333q2 8 8 13.5t14 5.5h7q15 0 15 -16v-3l-60 -333q-2 -13 -3 -25t-1 -23q0 -59 32 -82t80 -23q38 0 81.5 12
t84.5 30l79 444q2 8 8 13.5t14 5.5h6q16 0 16 -16v-3zM521 627q0 -9 -10 -9h-19q-8 0 -11 4.5t-8 12.5l-74 113l-114 -113l-12.5 -12.5t-12.5 -4.5h-25q-8 0 -8 6q0 5 6 11l123 128q8 8 12.5 11.5t12.5 3.5h40q8 0 12 -3.5t9 -11.5l77 -128q2 -3 2 -8z" />
    <glyph glyph-name="udieresis" unicode="&#xfc;" horiz-adv-x="522" 
d="M544 518l-89 -499q-2 -8 -8 -14t-14 -6h-8q-13 0 -13 16v3v1l2 16q-42 -19 -82 -30.5t-79 -11.5q-32 0 -60 8t-49 25.5t-33 44.5t-12 66q0 11 1 22.5t3 25.5l60 333q2 8 8 13.5t14 5.5h7q15 0 15 -16v-3l-60 -333q-2 -13 -3 -25t-1 -23q0 -59 32 -82t80 -23q38 0 81.5 12
t84.5 30l79 444q2 8 8 13.5t14 5.5h6q16 0 16 -16v-3zM488 735l-13 -74q-2 -8 -8.5 -13.5t-14.5 -5.5h-6q-15 0 -15 15v4l13 74q2 8 8 13.5t14 5.5h6q16 0 16 -16v-3zM338 735l-13 -74q-2 -8 -8.5 -13.5t-14.5 -5.5h-6q-15 0 -15 15v4l13 74q2 8 8 13.5t14 5.5h6
q16 0 16 -16v-3z" />
    <glyph glyph-name="yacute" unicode="&#xfd;" horiz-adv-x="486" 
d="M539 525q0 -6 -3 -13l-264 -568q-18 -38 -34.5 -64.5t-37 -43t-48 -24t-66.5 -7.5q-17 0 -32.5 2t-28.5 4q-8 2 -13 4t-5 8v2l2 11q3 14 19 14h5q11 -2 31 -4t32 -2q27 0 46.5 5t35 18t28.5 33.5t27 52.5l21 47h-12q-23 0 -34.5 10t-16.5 46l-55 457v3q0 9 6 15t15 6h7
q5 0 8.5 -4.5t4.5 -9.5l54 -460q2 -16 5 -19t14 -3h23l222 483q2 5 8.5 9t12.5 4h11q12 0 12 -12zM498 772q0 -4 -5 -9l-119 -128l-12.5 -12.5t-12.5 -4.5h-26q-8 0 -8 6q0 5 6 11l112 128q8 9 12.5 12t12.5 3h30q10 0 10 -6z" />
    <glyph glyph-name="thorn" unicode="&#xfe;" horiz-adv-x="504" 
d="M509 371q0 -17 -1.5 -35t-5.5 -37l-12 -66q-23 -124 -80.5 -181.5t-157.5 -57.5q-15 0 -32.5 1t-36 3.5t-36 5.5t-31.5 6l-33 -186q-2 -8 -7 -13.5t-13 -5.5h-10q-7 0 -10.5 4.5t-3.5 10.5v4l159 900q2 8 7 13.5t13 5.5h10q7 0 10.5 -4.5t3.5 -10.5v-4l-35 -195
q29 5 64.5 9t77.5 4t72 -12.5t49.5 -35t29 -54t9.5 -69.5zM466 378q0 63 -29.5 94t-94.5 31q-18 0 -38 -1.5t-39.5 -4t-36 -5t-28.5 -4.5l-77 -440q14 -3 31.5 -5.5t36 -5t36 -3.5t32.5 -1q80 0 125 51.5t62 148.5l12 66q8 46 8 79z" />
    <glyph glyph-name="ydieresis" unicode="&#xff;" horiz-adv-x="486" 
d="M539 525q0 -6 -3 -13l-264 -568q-18 -38 -34.5 -64.5t-37 -43t-48 -24t-66.5 -7.5q-17 0 -32.5 2t-28.5 4q-8 2 -13 4t-5 8v2l2 11q3 14 19 14h5q11 -2 31 -4t32 -2q27 0 46.5 5t35 18t28.5 33.5t27 52.5l21 47h-12q-23 0 -34.5 10t-16.5 46l-55 457v3q0 9 6 15t15 6h7
q5 0 8.5 -4.5t4.5 -9.5l54 -460q2 -16 5 -19t14 -3h23l222 483q2 5 8.5 9t12.5 4h11q12 0 12 -12zM477 735l-13 -74q-2 -8 -8.5 -13.5t-14.5 -5.5h-6q-15 0 -15 15v4l13 74q2 8 8 13.5t14 5.5h6q16 0 16 -16v-3zM327 735l-13 -74q-2 -8 -8.5 -13.5t-14.5 -5.5h-6
q-15 0 -15 15v4l13 74q2 8 8 13.5t14 5.5h6q16 0 16 -16v-3z" />
    <glyph glyph-name="Amacron" unicode="&#x100;" horiz-adv-x="619" 
d="M583 18q0 -9 -4.5 -15t-14.5 -6h-10q-11 0 -13 13l-36 271h-288l-130 -271q-2 -5 -8 -9t-11 -4h-15q-13 0 -13 12q0 3 1 6t3 7l324 677q24 49 74 49q24 0 38 -12.5t17 -35.5l86 -678v-4zM456 687q-1 8 -6 14t-13 6q-9 0 -16 -5.5t-11 -13.5l-174 -363h265zM617 856
l-2 -11q-2 -8 -8.5 -12t-14.5 -4h-266q-17 0 -17 13v3l2 11q2 8 8.5 11.5t14.5 3.5h266q17 0 17 -12v-3z" />
    <glyph glyph-name="amacron" unicode="&#x101;" horiz-adv-x="504" 
d="M524 511q0 -2 -0.5 -3.5t-0.5 -3.5l-85 -484q-2 -8 -8 -14t-14 -6h-8q-15 0 -15 16q0 1 0.5 2t0.5 2l6 33q-40 -21 -83.5 -40t-88.5 -19q-31 0 -57.5 8.5t-46 26.5t-30.5 45t-11 64q0 20 5 48l20 113q12 65 31 111t48 75.5t68.5 43t91.5 13.5q43 0 87.5 -6t76.5 -13
q13 -3 13 -12zM476 490q-26 5 -63 9t-73 4q-84 0 -127.5 -53t-60.5 -151l-20 -113q-5 -28 -5 -48q0 -33 9 -53.5t24.5 -32t35.5 -15.5t42 -4q38 0 76.5 16.5t92.5 45.5zM536 697l-2 -11q-2 -8 -8.5 -12t-14.5 -4h-266q-17 0 -17 13v3l2 11q2 8 8.5 11.5t14.5 3.5h266
q17 0 17 -12v-3z" />
    <glyph glyph-name="Abreve" unicode="&#x102;" horiz-adv-x="619" 
d="M583 18q0 -9 -4.5 -15t-14.5 -6h-10q-11 0 -13 13l-36 271h-288l-130 -271q-2 -5 -8 -9t-11 -4h-15q-13 0 -13 12q0 3 1 6t3 7l324 677q24 49 74 49q24 0 38 -12.5t17 -35.5l86 -678v-4zM456 687q-1 8 -6 14t-13 6q-9 0 -16 -5.5t-11 -13.5l-174 -363h265zM618 944
q0 -5 -1 -8q-11 -65 -55 -104t-113 -39q-24 0 -46 8.5t-38.5 24t-26 37.5t-9.5 48v12t2 13q2 8 4.5 12.5t10.5 4.5h20q9 0 9 -7v-4.5t-1 -5.5q-2 -7 -2 -13v-11q0 -24 9 -39t22 -24t27.5 -12t25.5 -3q15 0 33.5 4.5t35.5 16t30.5 31t18.5 50.5q2 11 4 14t10 3h20q10 0 10 -9
z" />
    <glyph glyph-name="abreve" unicode="&#x103;" horiz-adv-x="504" 
d="M524 511q0 -2 -0.5 -3.5t-0.5 -3.5l-85 -484q-2 -8 -8 -14t-14 -6h-8q-15 0 -15 16q0 1 0.5 2t0.5 2l6 33q-40 -21 -83.5 -40t-88.5 -19q-31 0 -57.5 8.5t-46 26.5t-30.5 45t-11 64q0 20 5 48l20 113q12 65 31 111t48 75.5t68.5 43t91.5 13.5q43 0 87.5 -6t76.5 -13
q13 -3 13 -12zM476 490q-26 5 -63 9t-73 4q-84 0 -127.5 -53t-60.5 -151l-20 -113q-5 -28 -5 -48q0 -33 9 -53.5t24.5 -32t35.5 -15.5t42 -4q38 0 76.5 16.5t92.5 45.5zM536 769q0 -5 -1 -8q-11 -65 -55 -104t-113 -39q-24 0 -46 8.5t-38.5 24t-26 37.5t-9.5 48v12t2 13
q2 8 4.5 12.5t10.5 4.5h20q9 0 9 -7v-4.5t-1 -5.5q-2 -7 -2 -13v-11q0 -24 9 -39t22 -24t27.5 -12t25.5 -3q15 0 33.5 4.5t35.5 16t30.5 31t18.5 50.5q2 11 4 14t10 3h20q10 0 10 -9z" />
    <glyph glyph-name="Aogonek" unicode="&#x104;" horiz-adv-x="619" 
d="M505 281h-288l-130 -271q-2 -5 -8 -9t-11 -4h-15q-13 0 -13 12q0 3 1 6t3 7l324 677q24 49 74 49q24 0 38 -12.5t17 -35.5l86 -678v-4q0 -14 -11 -19l-58 -30q-45 -23 -68.5 -42t-23.5 -46t20 -32.5t55 -5.5q25 0 49 5t38 9q3 1 9 1q4 0 3 -6l-4 -22q-1 -5 -3 -7t-10 -4
q-10 -3 -33.5 -8.5t-55.5 -5.5q-60 0 -88 21.5t-28 54.5q0 20 8.5 36.5t23 30t35 26t44.5 25.5l53 28zM456 687q-1 8 -6 14t-13 6q-9 0 -16 -5.5t-11 -13.5l-174 -363h265z" />
    <glyph glyph-name="aogonek" unicode="&#x105;" horiz-adv-x="504" 
d="M476 490q-26 5 -63 9t-73 4q-84 0 -127.5 -53t-60.5 -151l-20 -113q-5 -28 -5 -48q0 -33 9 -53.5t24.5 -32t35.5 -15.5t42 -4q38 0 76.5 16.5t92.5 45.5zM400 53q-40 -21 -83.5 -40t-88.5 -19q-31 0 -57.5 8.5t-46 26.5t-30.5 45t-11 64q0 20 5 48l20 113q12 65 31 111
t48 75.5t68.5 43t91.5 13.5q43 0 87.5 -6t76.5 -13q13 -3 13 -12q0 -2 -0.5 -3.5t-0.5 -3.5l-85 -484q-2 -12 -12 -17l-66 -34q-44 -23 -68 -41.5t-24 -45.5q0 -26 20.5 -34t53.5 -8q23 0 46.5 4t37.5 8q6 2 12 2t4 -8l-2 -12q-1 -6 -3.5 -9t-11.5 -5q-11 -3 -34.5 -8.5
t-54.5 -5.5q-62 0 -85.5 21t-23.5 55q0 38 28 61t77 49l63 33z" />
    <glyph glyph-name="Cacute" unicode="&#x106;" horiz-adv-x="537" 
d="M624 721l-2 -12q-2 -8 -5.5 -10t-9.5 -2h-4h-2q-13 1 -33 3t-43 3t-48 2t-48 1q-44 0 -83.5 -14t-71.5 -45.5t-56 -83t-37 -126.5l-23 -132q-9 -54 -9 -94q0 -49 12 -82.5t33.5 -54t51 -29.5t65.5 -9q23 0 48 1t48.5 2t44 2.5t34.5 3.5h2h4q11 0 11 -8v-4l-2 -12
q-2 -8 -8.5 -12t-13.5 -5q-20 -2 -63 -6t-112 -4q-39 0 -75 11.5t-63.5 37t-44 67.5t-16.5 102q0 42 9 93l23 132q16 91 45.5 151t69.5 95.5t87 50t98 14.5q69 0 110 -4t61 -6q6 -1 11 -4.5t5 -10.5v-2zM583 947q0 -4 -5 -9l-119 -128l-12.5 -12.5t-12.5 -4.5h-26q-8 0 -8 6
q0 5 6 11l112 128q8 9 12.5 12t12.5 3h30q10 0 10 -6z" />
    <glyph glyph-name="cacute" unicode="&#x107;" horiz-adv-x="437" 
d="M484 515l-1 -7q-1 -8 -6.5 -11t-13.5 -3h-3h-1q-69 9 -117 9q-43 0 -75 -15t-55.5 -42t-38 -63.5t-21.5 -79.5l-11 -67q-3 -20 -5 -38t-2 -35q0 -63 28.5 -96.5t96.5 -33.5q48 0 120 9h1h3q15 0 15 -11v-2v-1l-1 -7q-2 -8 -6.5 -12t-15.5 -6q-32 -4 -65.5 -6.5
t-57.5 -2.5q-43 0 -73.5 12.5t-50 35t-28.5 54.5t-9 70q0 34 6 70l11 67q9 54 27.5 98t47.5 75.5t70.5 48.5t95.5 17q24 0 56 -2.5t63 -6.5q16 -3 16 -13v-3v-2zM485 772q0 -4 -5 -9l-119 -128l-12.5 -12.5t-12.5 -4.5h-26q-8 0 -8 6q0 5 6 11l112 128q8 9 12.5 12t12.5 3
h30q10 0 10 -6z" />
    <glyph glyph-name="Ccircumflex" unicode="&#x108;" horiz-adv-x="537" 
d="M624 721l-2 -12q-2 -8 -5.5 -10t-9.5 -2h-4h-2q-13 1 -33 3t-43 3t-48 2t-48 1q-44 0 -83.5 -14t-71.5 -45.5t-56 -83t-37 -126.5l-23 -132q-9 -54 -9 -94q0 -49 12 -82.5t33.5 -54t51 -29.5t65.5 -9q23 0 48 1t48.5 2t44 2.5t34.5 3.5h2h4q11 0 11 -8v-4l-2 -12
q-2 -8 -8.5 -12t-13.5 -5q-20 -2 -63 -6t-112 -4q-39 0 -75 11.5t-63.5 37t-44 67.5t-16.5 102q0 42 9 93l23 132q16 91 45.5 151t69.5 95.5t87 50t98 14.5q69 0 110 -4t61 -6q6 -1 11 -4.5t5 -10.5v-2zM585 802q0 -9 -10 -9h-19q-8 0 -11 4.5t-8 12.5l-74 113l-114 -113
l-12.5 -12.5t-12.5 -4.5h-25q-8 0 -8 6q0 5 6 11l123 128q8 8 12.5 11.5t12.5 3.5h40q8 0 12 -3.5t9 -11.5l77 -128q2 -3 2 -8z" />
    <glyph glyph-name="ccircumflex" unicode="&#x109;" horiz-adv-x="437" 
d="M484 515l-1 -7q-1 -8 -6.5 -11t-13.5 -3h-3h-1q-69 9 -117 9q-43 0 -75 -15t-55.5 -42t-38 -63.5t-21.5 -79.5l-11 -67q-3 -20 -5 -38t-2 -35q0 -63 28.5 -96.5t96.5 -33.5q48 0 120 9h1h3q15 0 15 -11v-2v-1l-1 -7q-2 -8 -6.5 -12t-15.5 -6q-32 -4 -65.5 -6.5
t-57.5 -2.5q-43 0 -73.5 12.5t-50 35t-28.5 54.5t-9 70q0 34 6 70l11 67q9 54 27.5 98t47.5 75.5t70.5 48.5t95.5 17q24 0 56 -2.5t63 -6.5q16 -3 16 -13v-3v-2zM494 627q0 -9 -10 -9h-19q-8 0 -11 4.5t-8 12.5l-74 113l-114 -113l-12.5 -12.5t-12.5 -4.5h-25q-8 0 -8 6
q0 5 6 11l123 128q8 8 12.5 11.5t12.5 3.5h40q8 0 12 -3.5t9 -11.5l77 -128q2 -3 2 -8z" />
    <glyph glyph-name="Cdotaccent" unicode="&#x10a;" horiz-adv-x="537" 
d="M624 721l-2 -12q-2 -8 -5.5 -10t-9.5 -2h-4h-2q-13 1 -33 3t-43 3t-48 2t-48 1q-44 0 -83.5 -14t-71.5 -45.5t-56 -83t-37 -126.5l-23 -132q-9 -54 -9 -94q0 -49 12 -82.5t33.5 -54t51 -29.5t65.5 -9q23 0 48 1t48.5 2t44 2.5t34.5 3.5h2h4q11 0 11 -8v-4l-2 -12
q-2 -8 -8.5 -12t-13.5 -5q-20 -2 -63 -6t-112 -4q-39 0 -75 11.5t-63.5 37t-44 67.5t-16.5 102q0 42 9 93l23 132q16 91 45.5 151t69.5 95.5t87 50t98 14.5q69 0 110 -4t61 -6q6 -1 11 -4.5t5 -10.5v-2zM494 921l-13 -74q-2 -8 -8 -13.5t-14 -5.5h-6q-16 0 -16 16v3l13 74
q2 8 8.5 13.5t14.5 5.5h6q15 0 15 -16v-3z" />
    <glyph glyph-name="cdotaccent" unicode="&#x10b;" horiz-adv-x="437" 
d="M484 515l-1 -7q-1 -8 -6.5 -11t-13.5 -3h-3h-1q-69 9 -117 9q-43 0 -75 -15t-55.5 -42t-38 -63.5t-21.5 -79.5l-11 -67q-3 -20 -5 -38t-2 -35q0 -63 28.5 -96.5t96.5 -33.5q48 0 120 9h1h3q15 0 15 -11v-2v-1l-1 -7q-2 -8 -6.5 -12t-15.5 -6q-32 -4 -65.5 -6.5
t-57.5 -2.5q-43 0 -73.5 12.5t-50 35t-28.5 54.5t-9 70q0 34 6 70l11 67q9 54 27.5 98t47.5 75.5t70.5 48.5t95.5 17q24 0 56 -2.5t63 -6.5q16 -3 16 -13v-3v-2zM399 734l-13 -74q-2 -8 -8 -13.5t-14 -5.5h-6q-16 0 -16 16v3l13 74q2 8 8.5 13.5t14.5 5.5h6q15 0 15 -16v-3z
" />
    <glyph glyph-name="Ccaron" unicode="&#x10c;" horiz-adv-x="537" 
d="M624 721l-2 -12q-2 -8 -5.5 -10t-9.5 -2h-4h-2q-13 1 -33 3t-43 3t-48 2t-48 1q-44 0 -83.5 -14t-71.5 -45.5t-56 -83t-37 -126.5l-23 -132q-9 -54 -9 -94q0 -49 12 -82.5t33.5 -54t51 -29.5t65.5 -9q23 0 48 1t48.5 2t44 2.5t34.5 3.5h2h4q11 0 11 -8v-4l-2 -12
q-2 -8 -8.5 -12t-13.5 -5q-20 -2 -63 -6t-112 -4q-39 0 -75 11.5t-63.5 37t-44 67.5t-16.5 102q0 42 9 93l23 132q16 91 45.5 151t69.5 95.5t87 50t98 14.5q69 0 110 -4t61 -6q6 -1 11 -4.5t5 -10.5v-2zM617 947q0 -5 -6 -11l-122 -128q-8 -8 -13 -11.5t-13 -3.5h-40
q-8 0 -11.5 3.5t-8.5 11.5l-78 128q-2 3 -2 8q0 9 10 9h20q8 0 11 -4.5t8 -12.5l74 -113l114 113l12.5 12.5t12.5 4.5h24q8 0 8 -6z" />
    <glyph glyph-name="ccaron" unicode="&#x10d;" horiz-adv-x="437" 
d="M484 515l-1 -7q-1 -8 -6.5 -11t-13.5 -3h-3h-1q-69 9 -117 9q-43 0 -75 -15t-55.5 -42t-38 -63.5t-21.5 -79.5l-11 -67q-3 -20 -5 -38t-2 -35q0 -63 28.5 -96.5t96.5 -33.5q48 0 120 9h1h3q15 0 15 -11v-2v-1l-1 -7q-2 -8 -6.5 -12t-15.5 -6q-32 -4 -65.5 -6.5
t-57.5 -2.5q-43 0 -73.5 12.5t-50 35t-28.5 54.5t-9 70q0 34 6 70l11 67q9 54 27.5 98t47.5 75.5t70.5 48.5t95.5 17q24 0 56 -2.5t63 -6.5q16 -3 16 -13v-3v-2zM512 772q0 -5 -6 -11l-122 -128q-8 -8 -13 -11.5t-13 -3.5h-40q-8 0 -11.5 3.5t-8.5 11.5l-78 128q-2 3 -2 8
q0 9 10 9h20q8 0 11 -4.5t8 -12.5l74 -113l114 113l12.5 12.5t12.5 4.5h24q8 0 8 -6z" />
    <glyph glyph-name="Dcaron" unicode="&#x10e;" horiz-adv-x="613" 
d="M637 521q0 -20 -1.5 -42t-6.5 -46l-22 -124q-15 -87 -46 -147t-75.5 -97.5t-101.5 -54t-124 -16.5q-60 0 -101 2t-62 6q-13 2 -13 16v3l123 700q2 7 7.5 12t12.5 7q23 4 64.5 6t101.5 2q54 0 99 -12.5t77 -40t50 -70.5t18 -104zM594 521q0 55 -15.5 91t-43.5 57.5
t-66 30.5t-83 9q-44 0 -74 -2t-64 -4l-117 -666q32 -2 62 -3t74 -1q52 0 99.5 14t86.5 46.5t67.5 85.5t42.5 130l22 124q9 49 9 88zM605 947q0 -5 -6 -11l-122 -128q-8 -8 -13 -11.5t-13 -3.5h-40q-8 0 -11.5 3.5t-8.5 11.5l-78 128q-2 3 -2 8q0 9 10 9h20q8 0 11 -4.5
t8 -12.5l74 -113l114 113l12.5 12.5t12.5 4.5h24q8 0 8 -6z" />
    <glyph glyph-name="dcaron" unicode="&#x10f;" horiz-adv-x="699" 
d="M562 724l-122 -692q-2 -9 -5.5 -13t-13.5 -6q-35 -7 -81 -13t-89 -6q-83 0 -121.5 48.5t-38.5 126.5q0 32 6 68l11 66q21 125 81 182t158 57q15 0 32.5 -1t36 -3t36 -5t31.5 -6l35 197q3 19 20 19h10q7 0 10.5 -4.5t3.5 -10.5v-3v-1zM476 490q-14 3 -31.5 5.5t-36 4
t-36 2.5t-32.5 1q-80 0 -125.5 -50t-62.5 -150l-11 -66q-4 -20 -5.5 -38.5t-1.5 -35.5q0 -63 28.5 -96.5t94.5 -33.5q38 0 76.5 4t64.5 9zM607 533q-10 0 -8 10q2 6 4 9l91 172q10 19 24 19h29q6 0 9.5 -4t-3.5 -15l-103 -172q-6 -11 -10.5 -15t-12.5 -4h-20z" />
    <glyph glyph-name="Dcroat" unicode="&#x110;" horiz-adv-x="613" 
d="M637 521q0 -20 -1.5 -42t-6.5 -46l-22 -124q-16 -91 -48.5 -151.5t-77.5 -97t-101 -51.5t-120 -15q-60 0 -101 2t-62 6q-13 2 -13 16v2v1l61 347h-71q-16 0 -16 14v2v1l2 10q3 16 21 16h71l55 310q2 7 7.5 12t12.5 7q23 4 64.5 6t101.5 2q54 0 99 -12.5t77 -40t50 -70.5
t18 -104zM594 521q0 55 -16 91.5t-43.5 58t-65.5 30t-83 8.5q-44 0 -74 -2t-64 -4l-52 -292h85q17 0 17 -13v-2v-1l-2 -10q-3 -17 -22 -17h-85l-58 -331q32 -2 62 -3t74 -1q52 0 100 15t87 48t67 85.5t42 127.5l22 124q9 49 9 88z" />
    <glyph glyph-name="dcroat" unicode="&#x111;" horiz-adv-x="504" 
d="M506 661l12 63q3 19 20 19h10q7 0 10.5 -4.5t3.5 -10.5v-4l-11 -63h49q17 0 17 -13v-3l-2 -10q-3 -17 -22 -17h-50l-103 -586q-2 -9 -5.5 -13t-13.5 -6q-35 -7 -81 -13t-89 -6q-83 0 -121.5 48.5t-38.5 126.5q0 32 6 68l11 66q21 125 81 182t158 57q15 0 32.5 -1t36 -3
t36 -5t31.5 -6l16 91h-165q-16 0 -16 14v3l2 10q3 16 21 16h165zM476 490q-14 3 -31.5 5.5t-36 4t-36 2.5t-32.5 1q-80 0 -125.5 -50t-62.5 -150l-11 -66q-4 -20 -5.5 -38.5t-1.5 -35.5q0 -63 28.5 -96.5t94.5 -33.5q38 0 76.5 4t64.5 9z" />
    <glyph glyph-name="Emacron" unicode="&#x112;" horiz-adv-x="533" 
d="M606 726l-1 -8q-1 -8 -7.5 -12t-14.5 -4h-258q-19 0 -34 -2.5t-26 -10t-18.5 -21.5t-11.5 -37l-39 -220h335q7 0 12 -3t5 -10v-3l-2 -10q-3 -17 -22 -17h-335l-45 -256q-2 -7 -2 -13v-11q0 -30 17.5 -38.5t48.5 -8.5h258q16 0 16 -13v-3l-1 -8q-1 -8 -7.5 -12.5
t-14.5 -4.5h-258q-49 0 -76.5 20.5t-27.5 64.5q0 12 3 27l91 519q11 65 45.5 88.5t95.5 23.5h258q16 0 16 -14v-3zM589 855l-2 -11q-2 -8 -8.5 -12t-14.5 -4h-266q-17 0 -17 13v3l2 11q2 8 8.5 11.5t14.5 3.5h266q17 0 17 -12v-3z" />
    <glyph glyph-name="emacron" unicode="&#x113;" horiz-adv-x="511" 
d="M516 372q0 -32 -6 -68l-5 -27q-2 -8 -9 -13.5t-15 -5.5h-337l-3 -21q-2 -18 -4 -34.5t-2 -30.5q0 -41 10.5 -67.5t30 -42t47 -22t62.5 -6.5q33 0 73.5 4t78.5 12q3 1 9 1q12 0 12 -8q0 -5 -1 -7l-2 -7q-3 -11 -7.5 -13.5t-15.5 -4.5q-38 -8 -78.5 -12.5t-74.5 -4.5
q-41 0 -75.5 10t-59.5 31t-38.5 54.5t-13.5 80.5q0 15 1 32.5t4 34.5l11 66q20 118 82 178.5t162 60.5q43 0 74 -12.5t51 -35t29.5 -54t9.5 -68.5zM473 374q0 63 -29 96t-98 33q-42 0 -73.5 -14t-55 -40t-39.5 -63t-25 -83l-1 -5h313l1 6q3 20 5 37t2 33zM541 697l-2 -11
q-2 -8 -8.5 -12t-14.5 -4h-266q-17 0 -17 13v3l2 11q2 8 8.5 11.5t14.5 3.5h266q17 0 17 -12v-3z" />
    <glyph glyph-name="Ebreve" unicode="&#x114;" horiz-adv-x="533" 
d="M606 726l-1 -8q-1 -8 -7.5 -12t-14.5 -4h-258q-19 0 -34 -2.5t-26 -10t-18.5 -21.5t-11.5 -37l-39 -220h335q7 0 12 -3t5 -10v-3l-2 -10q-3 -17 -22 -17h-335l-45 -256q-2 -7 -2 -13v-11q0 -30 17.5 -38.5t48.5 -8.5h258q16 0 16 -13v-3l-1 -8q-1 -8 -7.5 -12.5
t-14.5 -4.5h-258q-49 0 -76.5 20.5t-27.5 64.5q0 12 3 27l91 519q11 65 45.5 88.5t95.5 23.5h258q16 0 16 -14v-3zM594 944q0 -5 -1 -8q-11 -65 -55 -104t-113 -39q-24 0 -46 8.5t-38.5 24t-26 37.5t-9.5 48v12t2 13q2 8 4.5 12.5t10.5 4.5h20q9 0 9 -7v-4.5t-1 -5.5
q-2 -7 -2 -13v-11q0 -24 9 -39t22 -24t27.5 -12t25.5 -3q15 0 33.5 4.5t35.5 16t30.5 31t18.5 50.5q2 11 4 14t10 3h20q10 0 10 -9z" />
    <glyph glyph-name="ebreve" unicode="&#x115;" horiz-adv-x="511" 
d="M516 372q0 -32 -6 -68l-5 -27q-2 -8 -9 -13.5t-15 -5.5h-337l-3 -21q-2 -18 -4 -34.5t-2 -30.5q0 -41 10.5 -67.5t30 -42t47 -22t62.5 -6.5q33 0 73.5 4t78.5 12q3 1 9 1q12 0 12 -8q0 -5 -1 -7l-2 -7q-3 -11 -7.5 -13.5t-15.5 -4.5q-38 -8 -78.5 -12.5t-74.5 -4.5
q-41 0 -75.5 10t-59.5 31t-38.5 54.5t-13.5 80.5q0 15 1 32.5t4 34.5l11 66q20 118 82 178.5t162 60.5q43 0 74 -12.5t51 -35t29.5 -54t9.5 -68.5zM473 374q0 63 -29 96t-98 33q-42 0 -73.5 -14t-55 -40t-39.5 -63t-25 -83l-1 -5h313l1 6q3 20 5 37t2 33zM538 769
q0 -5 -1 -8q-11 -65 -55 -104t-113 -39q-24 0 -46 8.5t-38.5 24t-26 37.5t-9.5 48v12t2 13q2 8 4.5 12.5t10.5 4.5h20q9 0 9 -7v-4.5t-1 -5.5q-2 -7 -2 -13v-11q0 -24 9 -39t22 -24t27.5 -12t25.5 -3q15 0 33.5 4.5t35.5 16t30.5 31t18.5 50.5q2 11 4 14t10 3h20q10 0 10 -9
z" />
    <glyph glyph-name="Edotaccent" unicode="&#x116;" horiz-adv-x="533" 
d="M606 726l-1 -8q-1 -8 -7.5 -12t-14.5 -4h-258q-19 0 -34 -2.5t-26 -10t-18.5 -21.5t-11.5 -37l-39 -220h335q7 0 12 -3t5 -10v-3l-2 -10q-3 -17 -22 -17h-335l-45 -256q-2 -7 -2 -13v-11q0 -30 17.5 -38.5t48.5 -8.5h258q16 0 16 -13v-3l-1 -8q-1 -8 -7.5 -12.5
t-14.5 -4.5h-258q-49 0 -76.5 20.5t-27.5 64.5q0 12 3 27l91 519q11 65 45.5 88.5t95.5 23.5h258q16 0 16 -14v-3zM469 922l-13 -74q-2 -8 -8 -13.5t-14 -5.5h-6q-16 0 -16 16v3l13 74q2 8 8.5 13.5t14.5 5.5h6q15 0 15 -16v-3z" />
    <glyph glyph-name="edotaccent" unicode="&#x117;" horiz-adv-x="511" 
d="M516 372q0 -32 -6 -68l-5 -27q-2 -8 -9 -13.5t-15 -5.5h-337l-3 -21q-2 -18 -4 -34.5t-2 -30.5q0 -41 10.5 -67.5t30 -42t47 -22t62.5 -6.5q33 0 73.5 4t78.5 12q3 1 9 1q12 0 12 -8q0 -5 -1 -7l-2 -7q-3 -11 -7.5 -13.5t-15.5 -4.5q-38 -8 -78.5 -12.5t-74.5 -4.5
q-41 0 -75.5 10t-59.5 31t-38.5 54.5t-13.5 80.5q0 15 1 32.5t4 34.5l11 66q20 118 82 178.5t162 60.5q43 0 74 -12.5t51 -35t29.5 -54t9.5 -68.5zM473 374q0 63 -29 96t-98 33q-42 0 -73.5 -14t-55 -40t-39.5 -63t-25 -83l-1 -5h313l1 6q3 20 5 37t2 33zM414 734l-13 -74
q-2 -8 -8 -13.5t-14 -5.5h-6q-16 0 -16 16v3l13 74q2 8 8.5 13.5t14.5 5.5h6q15 0 15 -16v-3z" />
    <glyph glyph-name="Eogonek" unicode="&#x118;" horiz-adv-x="533" 
d="M606 726l-1 -8q-1 -8 -7.5 -12t-14.5 -4h-258q-19 0 -34 -2.5t-26 -10t-18.5 -21.5t-11.5 -37l-39 -220h335q7 0 12 -3t5 -10v-3l-2 -10q-3 -17 -22 -17h-335l-45 -256q-2 -7 -2 -13v-11q0 -30 17.5 -38.5t48.5 -8.5h258q16 0 16 -13v-3l-1 -8q-1 -8 -7.5 -12.5
t-14.5 -4.5h-18l-61 -31q-44 -23 -68 -41.5t-24 -45.5q0 -26 20.5 -34t53.5 -8q23 0 46.5 4t37.5 8q11 3 14 0.5t2 -6.5l-2 -15q-1 -8 -15 -11q-11 -3 -34.5 -8.5t-54.5 -5.5q-62 0 -85.5 21t-23.5 55q0 38 28 61t77 49l15 8h-166q-49 0 -76.5 20.5t-27.5 64.5q0 12 3 27
l91 519q11 65 45.5 88.5t95.5 23.5h258q16 0 16 -14v-3z" />
    <glyph glyph-name="eogonek" unicode="&#x119;" horiz-adv-x="511" 
d="M279 -6q-41 0 -75.5 10t-59.5 31t-38.5 54.5t-13.5 80.5q0 15 1 32.5t4 34.5l11 66q20 118 82 178.5t162 60.5q43 0 74 -12.5t51 -35t29.5 -54t9.5 -68.5q0 -32 -6 -68l-5 -27q-2 -8 -6.5 -13.5t-17.5 -5.5h-337l-3 -21q-2 -18 -4 -34.5t-2 -30.5q0 -41 10.5 -67.5
t30 -42t47 -22t62.5 -6.5q33 0 73.5 4t78.5 12q10 2 13 2q5 0 7.5 -3t-0.5 -13l-2 -7q-3 -10 -17 -18l-83 -42q-44 -22 -68 -41t-24 -46q0 -26 20.5 -34t53.5 -8q23 0 46.5 4t37.5 8q16 4 15 -12l-1 -9q-1 -7 -15 -11q-11 -3 -34.5 -8.5t-54.5 -5.5q-62 0 -85.5 21t-23.5 55
q0 38 27.5 61t76.5 49l10 5zM473 374q0 63 -29 96t-98 33q-43 0 -75 -14t-55.5 -40t-38.5 -63t-24 -83l-1 -5h313l1 6q3 20 5 37t2 33z" />
    <glyph glyph-name="Ecaron" unicode="&#x11a;" horiz-adv-x="533" 
d="M606 726l-1 -8q-1 -8 -7.5 -12t-14.5 -4h-258q-19 0 -34 -2.5t-26 -10t-18.5 -21.5t-11.5 -37l-39 -220h335q7 0 12 -3t5 -10v-3l-2 -10q-3 -17 -22 -17h-335l-45 -256q-2 -7 -2 -13v-11q0 -30 17.5 -38.5t48.5 -8.5h258q16 0 16 -13v-3l-1 -8q-1 -8 -7.5 -12.5
t-14.5 -4.5h-258q-49 0 -76.5 20.5t-27.5 64.5q0 12 3 27l91 519q11 65 45.5 88.5t95.5 23.5h258q16 0 16 -14v-3zM607 947q0 -5 -6 -11l-122 -128q-8 -8 -13 -11.5t-13 -3.5h-40q-8 0 -11.5 3.5t-8.5 11.5l-78 128q-2 3 -2 8q0 9 10 9h20q8 0 11 -4.5t8 -12.5l74 -113
l114 113l12.5 12.5t12.5 4.5h24q8 0 8 -6z" />
    <glyph glyph-name="ecaron" unicode="&#x11b;" horiz-adv-x="511" 
d="M516 372q0 -32 -6 -68l-5 -27q-2 -8 -9 -13.5t-15 -5.5h-337l-3 -21q-2 -18 -4 -34.5t-2 -30.5q0 -41 10.5 -67.5t30 -42t47 -22t62.5 -6.5q33 0 73.5 4t78.5 12q3 1 9 1q12 0 12 -8q0 -5 -1 -7l-2 -7q-3 -11 -7.5 -13.5t-15.5 -4.5q-38 -8 -78.5 -12.5t-74.5 -4.5
q-41 0 -75.5 10t-59.5 31t-38.5 54.5t-13.5 80.5q0 15 1 32.5t4 34.5l11 66q20 118 82 178.5t162 60.5q43 0 74 -12.5t51 -35t29.5 -54t9.5 -68.5zM473 374q0 63 -29 96t-98 33q-42 0 -73.5 -14t-55 -40t-39.5 -63t-25 -83l-1 -5h313l1 6q3 20 5 37t2 33zM548 772
q0 -5 -6 -11l-122 -128q-8 -8 -13 -11.5t-13 -3.5h-40q-8 0 -11.5 3.5t-8.5 11.5l-78 128q-2 3 -2 8q0 9 10 9h20q8 0 11 -4.5t8 -12.5l74 -113l114 113l12.5 12.5t12.5 4.5h24q8 0 8 -6z" />
    <glyph glyph-name="Gcircumflex" unicode="&#x11c;" horiz-adv-x="588" 
d="M635 722l-1 -10q-1 -15 -18 -15h-4h-2q-26 3 -46.5 4.5t-39.5 3t-40 2t-48 0.5q-38 0 -77 -13t-74.5 -44.5t-63 -84.5t-41.5 -132l-22 -124q-9 -53 -9 -95q0 -95 44 -136.5t124 -41.5q64 0 103 3.5t51 5.5l56 318q3 19 20 19h10q14 0 14 -15v-3v-1l-59 -337q-2 -8 -8 -13
t-13 -6q-18 -2 -37 -4.5t-40 -4.5t-46.5 -3t-57.5 -1q-46 0 -83.5 13.5t-64.5 41.5t-42 69.5t-15 98.5q0 42 9 92l22 124q17 97 51 158t76 96t89 48t91 13q34 0 60 -1t47 -2.5t38 -3t33 -3.5q14 -2 14 -13v-3zM593 801q0 -9 -10 -9h-19q-8 0 -11 4.5t-8 12.5l-74 113
l-114 -113l-12.5 -12.5t-12.5 -4.5h-25q-8 0 -8 6q0 5 6 11l123 128q8 8 12.5 11.5t12.5 3.5h40q8 0 12 -3.5t9 -11.5l77 -128q2 -3 2 -8z" />
    <glyph glyph-name="gcircumflex" unicode="&#x11d;" horiz-adv-x="504" 
d="M357 542q22 0 44.5 -2t43 -4.5t37.5 -5.5t29 -6q11 -2 12.5 -6.5t-0.5 -12.5l-89 -506q-11 -60 -28.5 -97.5t-43.5 -59t-61.5 -29.5t-81.5 -8q-26 0 -50 1.5t-44 3.5t-35 4t-22 4q-14 3 -16 7t0 12l1 5q2 9 6 12.5t15 1.5q20 -3 60 -7.5t85 -4.5q42 0 70 6t47.5 23.5
t32 47.5t22.5 78l2 10q-11 -3 -28 -6t-35.5 -5t-37 -3t-31.5 -1q-29 0 -59.5 6t-55.5 24t-41 50.5t-16 85.5q0 17 1.5 35.5t5.5 39.5l12 68q12 70 33 116t52 73.5t71.5 38.5t92.5 11zM476 489q-26 5 -57.5 9.5t-67.5 4.5q-41 0 -73 -9t-56.5 -31.5t-42 -61t-27.5 -98.5
l-12 -68q-4 -23 -6 -43t-2 -37q0 -40 10.5 -64t28.5 -37t43 -17t54 -4q12 0 29 1.5t35 3.5t35.5 5.5t30.5 6.5zM510 627q0 -9 -10 -9h-19q-8 0 -11 4.5t-8 12.5l-74 113l-114 -113l-12.5 -12.5t-12.5 -4.5h-25q-8 0 -8 6q0 5 6 11l123 128q8 8 12.5 11.5t12.5 3.5h40
q8 0 12 -3.5t9 -11.5l77 -128q2 -3 2 -8z" />
    <glyph glyph-name="Gbreve" unicode="&#x11e;" horiz-adv-x="588" 
d="M635 722l-1 -10q-1 -15 -18 -15h-4h-2q-26 3 -46.5 4.5t-39.5 3t-40 2t-48 0.5q-38 0 -77 -13t-74.5 -44.5t-63 -84.5t-41.5 -132l-22 -124q-9 -53 -9 -95q0 -95 44 -136.5t124 -41.5q64 0 103 3.5t51 5.5l56 318q3 19 20 19h10q14 0 14 -15v-3v-1l-59 -337q-2 -8 -8 -13
t-13 -6q-18 -2 -37 -4.5t-40 -4.5t-46.5 -3t-57.5 -1q-46 0 -83.5 13.5t-64.5 41.5t-42 69.5t-15 98.5q0 42 9 92l22 124q17 97 51 158t76 96t89 48t91 13q34 0 60 -1t47 -2.5t38 -3t33 -3.5q14 -2 14 -13v-3zM620 944q0 -5 -1 -8q-11 -65 -55 -104t-113 -39q-24 0 -46 8.5
t-38.5 24t-26 37.5t-9.5 48v12t2 13q2 8 4.5 12.5t10.5 4.5h20q9 0 9 -7v-4.5t-1 -5.5q-2 -7 -2 -13v-11q0 -24 9 -39t22 -24t27.5 -12t25.5 -3q15 0 33.5 4.5t35.5 16t30.5 31t18.5 50.5q2 11 4 14t10 3h20q10 0 10 -9z" />
    <glyph glyph-name="gbreve" unicode="&#x11f;" horiz-adv-x="504" 
d="M524 512q0 -2 -0.5 -3.5t-0.5 -3.5l-89 -506q-11 -60 -28.5 -97.5t-43.5 -59t-61.5 -29.5t-81.5 -8q-26 0 -50 1.5t-44 3.5t-35 4t-22 4q-17 4 -17 14q0 1 0.5 2t0.5 3l1 5q3 14 17 14h4q18 -3 59 -7.5t86 -4.5q42 0 70 6t47.5 23.5t32 47.5t22.5 78l2 10q-11 -3 -28 -6
t-35.5 -5t-37 -3t-31.5 -1q-29 0 -59.5 6t-55.5 24t-41 50.5t-16 85.5q0 17 1.5 35.5t5.5 39.5l12 68q12 70 33 116t52 73.5t71.5 38.5t92.5 11q22 0 44.5 -2t43 -4.5t37.5 -5.5t29 -6q13 -3 13 -12zM476 489q-26 5 -57.5 9.5t-67.5 4.5q-41 0 -73 -9t-56.5 -31.5t-42 -61
t-27.5 -98.5l-12 -68q-4 -23 -6 -43t-2 -37q0 -40 10.5 -64t28.5 -37t43 -17t54 -4q12 0 29 1.5t35 3.5t35.5 5.5t30.5 6.5zM529 769q0 -5 -1 -8q-11 -65 -55 -104t-113 -39q-24 0 -46 8.5t-38.5 24t-26 37.5t-9.5 48v12t2 13q2 8 4.5 12.5t10.5 4.5h20q9 0 9 -7v-4.5
t-1 -5.5q-2 -7 -2 -13v-11q0 -24 9 -39t22 -24t27.5 -12t25.5 -3q15 0 33.5 4.5t35.5 16t30.5 31t18.5 50.5q2 11 4 14t10 3h20q10 0 10 -9z" />
    <glyph glyph-name="Gdotaccent" unicode="&#x120;" horiz-adv-x="588" 
d="M635 722l-1 -10q-1 -15 -18 -15h-4h-2q-26 3 -46.5 4.5t-39.5 3t-40 2t-48 0.5q-38 0 -77 -13t-74.5 -44.5t-63 -84.5t-41.5 -132l-22 -124q-9 -53 -9 -95q0 -95 44 -136.5t124 -41.5q64 0 103 3.5t51 5.5l56 318q3 19 20 19h10q14 0 14 -15v-3v-1l-59 -337q-2 -8 -8 -13
t-13 -6q-18 -2 -37 -4.5t-40 -4.5t-46.5 -3t-57.5 -1q-46 0 -83.5 13.5t-64.5 41.5t-42 69.5t-15 98.5q0 42 9 92l22 124q17 97 51 158t76 96t89 48t91 13q34 0 60 -1t47 -2.5t38 -3t33 -3.5q14 -2 14 -13v-3zM499 922l-13 -74q-2 -8 -8 -13.5t-14 -5.5h-6q-16 0 -16 16v3
l13 74q2 8 8.5 13.5t14.5 5.5h6q15 0 15 -16v-3z" />
    <glyph glyph-name="gdotaccent" unicode="&#x121;" horiz-adv-x="504" 
d="M524 512q0 -2 -0.5 -3.5t-0.5 -3.5l-89 -506q-11 -60 -28.5 -97.5t-43.5 -59t-61.5 -29.5t-81.5 -8q-26 0 -50 1.5t-44 3.5t-35 4t-22 4q-17 4 -17 14q0 1 0.5 2t0.5 3l1 5q3 14 17 14h4q18 -3 59 -7.5t86 -4.5q42 0 70 6t47.5 23.5t32 47.5t22.5 78l2 10q-11 -3 -28 -6
t-35.5 -5t-37 -3t-31.5 -1q-29 0 -59.5 6t-55.5 24t-41 50.5t-16 85.5q0 17 1.5 35.5t5.5 39.5l12 68q12 70 33 116t52 73.5t71.5 38.5t92.5 11q22 0 44.5 -2t43 -4.5t37.5 -5.5t29 -6q13 -3 13 -12zM476 489q-26 5 -57.5 9.5t-67.5 4.5q-41 0 -73 -9t-56.5 -31.5t-42 -61
t-27.5 -98.5l-12 -68q-4 -23 -6 -43t-2 -37q0 -40 10.5 -64t28.5 -37t43 -17t54 -4q12 0 29 1.5t35 3.5t35.5 5.5t30.5 6.5zM420 734l-13 -74q-2 -8 -8 -13.5t-14 -5.5h-6q-16 0 -16 16v3l13 74q2 8 8.5 13.5t14.5 5.5h6q15 0 15 -16v-3z" />
    <glyph glyph-name="Gcommaaccent" unicode="&#x122;" horiz-adv-x="588" 
d="M635 722l-1 -10q-1 -15 -18 -15h-4h-2q-26 3 -46.5 4.5t-39.5 3t-40 2t-48 0.5q-38 0 -77 -13t-74.5 -44.5t-63 -84.5t-41.5 -132l-22 -124q-9 -53 -9 -95q0 -95 44 -136.5t124 -41.5q64 0 103 3.5t51 5.5l56 318q3 19 20 19h10q14 0 14 -15v-3v-1l-59 -337q-2 -8 -8 -13
t-13 -6q-18 -2 -37 -4.5t-40 -4.5t-46.5 -3t-57.5 -1q-46 0 -83.5 13.5t-64.5 41.5t-42 69.5t-15 98.5q0 42 9 92l22 124q17 97 51 158t76 96t89 48t91 13q34 0 60 -1t47 -2.5t38 -3t33 -3.5q14 -2 14 -13v-3zM346 -48q10 0 10 -9q0 -6 -4 -12l-76 -107q-6 -9 -11.5 -14
t-15.5 -5h-9q-8 0 -8 8q0 2 3 8l64 112q10 19 23 19h24z" />
    <glyph glyph-name="gcommaaccent" unicode="&#x123;" horiz-adv-x="504" 
d="M524 512q0 -2 -0.5 -3.5t-0.5 -3.5l-89 -506q-11 -60 -28.5 -97.5t-43.5 -59t-61.5 -29.5t-81.5 -8q-26 0 -50 1.5t-44 3.5t-35 4t-22 4q-17 4 -17 14q0 1 0.5 2t0.5 3l1 5q3 14 17 14h4q18 -3 59 -7.5t86 -4.5q42 0 70 6t47.5 23.5t32 47.5t22.5 78l2 10q-11 -3 -28 -6
t-35.5 -5t-37 -3t-31.5 -1q-29 0 -59.5 6t-55.5 24t-41 50.5t-16 85.5q0 17 1.5 35.5t5.5 39.5l12 68q12 70 33 116t52 73.5t71.5 38.5t92.5 11q22 0 44.5 -2t43 -4.5t37.5 -5.5t29 -6q13 -3 13 -12zM476 489q-26 5 -57.5 9.5t-67.5 4.5q-41 0 -73 -9t-56.5 -31.5t-42 -61
t-27.5 -98.5l-12 -68q-4 -23 -6 -43t-2 -37q0 -40 10.5 -64t28.5 -37t43 -17t54 -4q12 0 29 1.5t35 3.5t35.5 5.5t30.5 6.5zM347 618q-9 0 -9 10q0 4 3 9l76 109q6 9 11.5 14t15.5 5h9q8 0 8 -7q0 -5 -3 -9l-63 -112q-6 -10 -11 -14.5t-13 -4.5h-24z" />
    <glyph glyph-name="Hcircumflex" unicode="&#x124;" horiz-adv-x="647" 
d="M695 724l-125 -705q-2 -8 -7 -13.5t-13 -5.5h-9q-8 0 -11 4.5t-3 10.5v4l63 358h-400l-63 -358q-2 -8 -7 -13.5t-13 -5.5h-10q-7 0 -10.5 4.5t-3.5 10.5v4l125 705q2 8 7 13.5t13 5.5h10q7 0 10.5 -4.5t3.5 -10.5v-4l-54 -306h400l54 306q2 8 7 13.5t13 5.5h9
q8 0 11 -4.5t3 -10.5v-4zM609 802q0 -9 -10 -9h-19q-8 0 -11 4.5t-8 12.5l-74 113l-114 -113l-12.5 -12.5t-12.5 -4.5h-25q-8 0 -8 6q0 5 6 11l123 128q8 8 12.5 11.5t12.5 3.5h40q8 0 12 -3.5t9 -11.5l77 -128q2 -3 2 -8z" />
    <glyph glyph-name="hcircumflex" unicode="&#x125;" horiz-adv-x="504" 
d="M507 399q0 -12 -1.5 -24t-3.5 -25l-59 -331q-2 -8 -7 -13.5t-13 -5.5h-10q-7 0 -10 4.5t-3 10.5v3v1l59 331q2 14 3.5 26t1.5 23q0 52 -29.5 78t-96.5 26q-32 0 -70 -5.5t-68 -13.5l-83 -465q-2 -8 -7 -13.5t-13 -5.5h-10q-7 0 -10.5 4.5t-3.5 10.5v3v1l125 705
q2 8 7 13.5t13 5.5h10q7 0 10.5 -4.5t3.5 -10.5v-3v-1l-35 -199q31 8 68 12.5t70 4.5q43 0 74 -10.5t50.5 -29.5t28.5 -45.5t9 -57.5zM544 801q0 -9 -10 -9h-19q-8 0 -11 4.5t-8 12.5l-74 113l-114 -113l-12.5 -12.5t-12.5 -4.5h-25q-8 0 -8 6q0 5 6 11l123 128
q8 8 12.5 11.5t12.5 3.5h40q8 0 12 -3.5t9 -11.5l77 -128q2 -3 2 -8z" />
    <glyph glyph-name="Hbar" unicode="&#x126;" horiz-adv-x="647" 
d="M185 599l22 125q2 8 7.5 13.5t13.5 5.5h10q8 0 11.5 -5.5t1.5 -13.5l-22 -125h400l22 125q2 8 7.5 13.5t13.5 5.5h9q8 0 11.5 -5.5t1.5 -13.5l-22 -125h60q19 0 16 -16l-1 -10q-3 -17 -22 -17h-60l-95 -537q-2 -8 -7 -13.5t-13 -5.5h-9q-8 0 -12 5.5t-2 13.5l63 358h-400
l-63 -358q-2 -8 -7 -13.5t-13 -5.5h-10q-8 0 -12 5.5t-2 13.5l95 537h-61q-19 0 -16 17l1 10q3 16 22 16h61zM597 418l25 138h-400l-25 -138h400z" />
    <glyph glyph-name="hbar" unicode="&#x127;" horiz-adv-x="505" 
d="M222 618l-16 -94q31 8 68 13t70 5q52 0 86 -14.5t52 -40t22 -60.5t-3 -77l-58 -331q-2 -8 -7 -13.5t-13 -5.5h-10q-8 0 -11.5 5.5t-1.5 13.5l58 331q13 73 -14 113t-107 40q-32 0 -70 -5t-68 -13l-82 -466q-2 -8 -7 -13.5t-13 -5.5h-10q-8 0 -12 5.5t-2 13.5l105 599h-57
q-19 0 -16 15l2 10q3 15 22 15h57l11 66q2 8 7.5 13.5t13.5 5.5h10q8 0 11.5 -5.5t1.5 -13.5l-11 -66h159q19 0 16 -15l-2 -10q-3 -15 -22 -15h-159z" />
    <glyph glyph-name="Itilde" unicode="&#x128;" horiz-adv-x="224" 
d="M262 724l-125 -705q-2 -8 -7 -13.5t-13 -5.5h-10q-7 0 -10.5 4.5t-3.5 10.5v4l125 705q2 8 7 13.5t13 5.5h10q7 0 10.5 -4.5t3.5 -10.5v-4zM436 916q0 -2 -0.5 -3.5t-0.5 -3.5l-4 -26q-7 -46 -31.5 -68t-60.5 -22q-20 0 -37.5 6t-38.5 32l-28 34q-10 12 -20 19t-22 7
q-18 0 -32.5 -9.5t-19.5 -41.5l-4 -26q-2 -8 -4 -12t-9 -4h-21q-9 0 -9 9q0 2 0.5 3.5t0.5 3.5l4 26q7 46 32 68t62 22q20 0 36.5 -6.5t36.5 -30.5l29 -35q21 -26 44 -26q18 0 31.5 9.5t18.5 41.5l4 26q2 8 4 12t9 4h21q9 0 9 -9z" />
    <glyph glyph-name="itilde" unicode="&#x129;" horiz-adv-x="204" 
d="M215 518l-88 -499q-2 -8 -8 -13.5t-14 -5.5h-6q-16 0 -16 16v3l88 499q2 8 7 13.5t13 5.5h11q7 0 10 -4.5t3 -10.5v-4zM402 752q0 -2 -0.5 -3.5t-0.5 -3.5l-4 -26q-7 -46 -31.5 -68t-60.5 -22q-20 0 -37.5 6t-38.5 32l-28 34q-10 12 -20 19t-22 7q-18 0 -32.5 -9.5
t-19.5 -41.5l-4 -26q-2 -8 -4 -12t-9 -4h-21q-9 0 -9 9q0 2 0.5 3.5t0.5 3.5l4 26q7 46 32 68t62 22q20 0 36.5 -6.5t36.5 -30.5l29 -35q21 -26 44 -26q18 0 31.5 9.5t18.5 41.5l4 26q2 8 4 12t9 4h21q9 0 9 -9z" />
    <glyph glyph-name="Imacron" unicode="&#x12a;" horiz-adv-x="224" 
d="M262 724l-125 -705q-2 -8 -7 -13.5t-13 -5.5h-10q-7 0 -10.5 4.5t-3.5 10.5v4l125 705q2 8 7 13.5t13 5.5h10q7 0 10.5 -4.5t3.5 -10.5v-4zM415 855l-2 -11q-2 -8 -8.5 -12t-14.5 -4h-266q-17 0 -17 13v3l2 11q2 8 8.5 11.5t14.5 3.5h266q17 0 17 -12v-3z" />
    <glyph glyph-name="imacron" unicode="&#x12b;" horiz-adv-x="204" 
d="M215 518l-88 -499q-2 -8 -8 -13.5t-14 -5.5h-6q-16 0 -16 16v3l88 499q2 8 7 13.5t13 5.5h11q7 0 10 -4.5t3 -10.5v-4zM373 697l-2 -11q-2 -8 -8.5 -12t-14.5 -4h-266q-17 0 -17 13v3l2 11q2 8 8.5 11.5t14.5 3.5h266q17 0 17 -12v-3z" />
    <glyph glyph-name="Ibreve" unicode="&#x12c;" horiz-adv-x="224" 
d="M262 724l-125 -705q-2 -8 -7 -13.5t-13 -5.5h-10q-7 0 -10.5 4.5t-3.5 10.5v4l125 705q2 8 7 13.5t13 5.5h10q7 0 10.5 -4.5t3.5 -10.5v-4zM416 943q0 -5 -1 -8q-11 -65 -55 -104t-113 -39q-24 0 -46 8.5t-38.5 24t-26 37.5t-9.5 48v12t2 13q2 8 4.5 12.5t10.5 4.5h20
q9 0 9 -7v-4.5t-1 -5.5q-2 -7 -2 -13v-11q0 -24 9 -39t22 -24t27.5 -12t25.5 -3q15 0 33.5 4.5t35.5 16t30.5 31t18.5 50.5q2 11 4 14t10 3h20q10 0 10 -9z" />
    <glyph glyph-name="ibreve" unicode="&#x12d;" horiz-adv-x="204" 
d="M215 518l-88 -499q-2 -8 -8 -13.5t-14 -5.5h-6q-16 0 -16 16v3l88 499q2 8 7 13.5t13 5.5h11q7 0 10 -4.5t3 -10.5v-4zM375 769q0 -5 -1 -8q-11 -65 -55 -104t-113 -39q-24 0 -46 8.5t-38.5 24t-26 37.5t-9.5 48v12t2 13q2 8 4.5 12.5t10.5 4.5h20q9 0 9 -7v-4.5t-1 -5.5
q-2 -7 -2 -13v-11q0 -24 9 -39t22 -24t27.5 -12t25.5 -3q15 0 33.5 4.5t35.5 16t30.5 31t18.5 50.5q2 11 4 14t10 3h20q10 0 10 -9z" />
    <glyph glyph-name="Iogonek" unicode="&#x12e;" horiz-adv-x="224" 
d="M218 724q2 9 7.5 14t13.5 5h7q20 0 15 -25l-124 -702q-3 -12 -10 -16l-24 -12q-28 -15 -46 -26.5t-28.5 -23.5t-14.5 -24.5t-4 -28.5q0 -23 16.5 -34t55.5 -11q25 0 49 4.5t38 8.5q6 2 8 2q5 0 4 -7l-3 -18q-3 -8 -13 -11t-33.5 -8.5t-55.5 -5.5q-30 0 -49.5 7t-31.5 19
t-17 26.5t-5 29.5q0 41 25 68t78 55l18 10z" />
    <glyph glyph-name="iogonek" unicode="&#x12f;" horiz-adv-x="204" 
d="M171 518q2 8 7 13.5t13 5.5h10q14 0 14 -16q0 -4 -1 -8l-88 -497q-3 -12 -10 -16l-24 -12q-28 -14 -46 -26t-28 -23t-14 -23.5t-4 -28.5q0 -24 16 -35.5t55 -11.5q25 0 49 4.5t38 8.5q6 2 8 2q5 0 4 -7l-3 -18q-3 -8 -13 -11t-33.5 -8.5t-55.5 -5.5q-30 0 -49.5 7
t-31.5 18.5t-17 26.5t-5 30q0 43 23.5 69.5t77.5 53.5l20 10zM239 655q-3 -19 -22 -19h-6q-10 0 -13 4.5t-3 10.5q0 7 1 10l13 68q2 12 8 15.5t14 3.5h6q16 0 16 -16q0 -4 -1 -7z" />
    <glyph glyph-name="Idotaccent" unicode="&#x130;" horiz-adv-x="224" 
d="M262 724l-125 -705q-2 -8 -7 -13.5t-13 -5.5h-10q-7 0 -10.5 4.5t-3.5 10.5v4l125 705q2 8 7 13.5t13 5.5h10q7 0 10.5 -4.5t3.5 -10.5v-4zM296 921l-13 -74q-2 -8 -8 -13.5t-14 -5.5h-6q-16 0 -16 16v3l13 74q2 8 8.5 13.5t14.5 5.5h6q15 0 15 -16v-3z" />
    <glyph glyph-name="dotlessi" unicode="&#x131;" horiz-adv-x="204" 
d="M215 518l-88 -499q-2 -8 -8 -13.5t-14 -5.5h-6q-16 0 -16 16v3l88 499q2 8 7 13.5t13 5.5h11q7 0 10 -4.5t3 -10.5v-4z" />
    <glyph glyph-name="IJ" unicode="&#x132;" horiz-adv-x="448" 
d="M262 724l-125 -705q-2 -8 -7 -13.5t-13 -5.5h-10q-7 0 -10.5 4.5t-3.5 10.5v4l125 705q2 8 7 13.5t13 5.5h10q7 0 10.5 -4.5t3.5 -10.5v-4zM486 724l-139 -784q-6 -37 -17.5 -62.5t-30.5 -41.5t-48 -23.5t-71 -7.5h-14q-8 0 -13 2t-5 9v3l2 10q3 15 22 15h14q31 0 51 4
t33 14.5t20.5 29t12.5 48.5l139 784q2 8 7 13.5t13 5.5h10q7 0 10.5 -4.5t3.5 -10.5v-4z" />
    <glyph glyph-name="ij" unicode="&#x133;" horiz-adv-x="408" 
d="M253 729l-14 -74q-2 -11 -8 -15t-14 -4h-6q-16 0 -16 14v5l14 74q2 12 8 15.5t14 3.5h6q8 0 12 -4.5t4 -10.5v-4zM215 518l-88 -499q-2 -8 -8 -13.5t-14 -5.5h-6q-16 0 -16 16v3l88 499q2 8 7 13.5t13 5.5h11q7 0 10 -4.5t3 -10.5v-4zM457 729l-14 -74q-2 -11 -8 -15
t-14 -4h-6q-16 0 -16 14v5l14 74q2 12 8 15.5t14 3.5h6q8 0 12 -4.5t4 -10.5v-4zM419 518l-106 -604q-6 -31 -15 -52t-23 -33.5t-34.5 -18t-49.5 -5.5q-13 0 -22 0.5t-20 2.5q-14 3 -14 12v2l1 9q1 7 4 9.5t13 2.5h44q17 0 29 2.5t20 10.5t13.5 21.5t9.5 36.5l106 604
q2 8 7 13.5t13 5.5h11q13 0 13 -14v-5z" />
    <glyph glyph-name="Jcircumflex" unicode="&#x134;" horiz-adv-x="224" 
d="M262 724l-139 -784q-6 -37 -17.5 -62.5t-30.5 -41.5t-48 -23.5t-71 -7.5h-14q-8 0 -13 2t-5 9v3l2 10q3 15 22 15h14q31 0 51 4t33 14.5t20.5 29t12.5 48.5l139 784q2 8 7 13.5t13 5.5h10q7 0 10.5 -4.5t3.5 -10.5v-4zM394 801q0 -9 -10 -9h-19q-8 0 -11 4.5t-8 12.5
l-74 113l-114 -113l-12.5 -12.5t-12.5 -4.5h-25q-8 0 -8 6q0 5 6 11l123 128q8 8 12.5 11.5t12.5 3.5h40q8 0 12 -3.5t9 -11.5l77 -128q2 -3 2 -8z" />
    <glyph glyph-name="jcircumflex" unicode="&#x135;" horiz-adv-x="204" 
d="M215 518l-106 -604q-6 -31 -15 -52t-23 -33.5t-34.5 -18t-49.5 -5.5q-13 0 -22 0.5t-20 2.5q-14 3 -14 12v2l1 9q1 7 4 9.5t13 2.5h44q17 0 29 2.5t20 10.5t13.5 21.5t9.5 36.5l106 604q2 8 7 13.5t13 5.5h11q13 0 13 -14v-5zM361 627q0 -9 -10 -9h-19q-8 0 -11 4.5
t-8 12.5l-74 113l-114 -113l-12.5 -12.5t-12.5 -4.5h-25q-8 0 -8 6q0 5 6 11l123 128q8 8 12.5 11.5t12.5 3.5h40q8 0 12 -3.5t9 -11.5l77 -128q2 -3 2 -8z" />
    <glyph glyph-name="Kcommaaccent" unicode="&#x136;" horiz-adv-x="544" 
d="M637 730q0 -10 -13 -22l-392 -325l280 -353q6 -8 6 -15t-5.5 -12t-14.5 -5q-5 0 -12 1.5t-11 6.5l-286 362l-62 -349q-2 -8 -7 -13.5t-13 -5.5h-10q-7 0 -10.5 4.5t-3.5 10.5v4l125 705q2 8 8 13.5t14 5.5h6q16 0 16 -16v-3l-57 -320l399 332q8 7 14 9t11 2q8 0 13 -5.5
t5 -11.5zM296 -48q10 0 10 -9q0 -6 -4 -12l-76 -107q-6 -9 -11.5 -14t-15.5 -5h-9q-8 0 -8 8q0 2 3 8l64 112q10 19 23 19h24z" />
    <glyph glyph-name="kcommaaccent" unicode="&#x137;" horiz-adv-x="444" 
d="M500 529q0 -11 -13 -21l-285 -226l202 -259q5 -7 5 -13q0 -16 -20 -16q-9 0 -16.5 2t-13.5 10l-197 259l-45 -246q-2 -8 -8 -13.5t-14 -5.5h-6q-16 0 -16 16v3l125 705q2 8 8 13.5t14 5.5h6q16 0 16 -16v-3l-75 -421l287 230q6 5 11.5 7t16.5 2q18 0 18 -13zM244 -48
q10 0 10 -9q0 -6 -4 -12l-76 -107q-6 -9 -11.5 -14t-15.5 -5h-9q-8 0 -8 8q0 2 3 8l64 112q10 19 23 19h24z" />
    <glyph glyph-name="kgreenlandic" unicode="&#x138;" horiz-adv-x="444" 
d="M500 529q0 -11 -13 -21l-285 -226l202 -259q5 -7 5 -13q0 -16 -20 -16q-9 0 -16.5 2t-13.5 10l-197 259l-45 -246q-2 -8 -8 -13.5t-14 -5.5h-6q-16 0 -16 16v3l88 499q2 8 8 13.5t14 5.5h6q16 0 16 -16v-3l-38 -215l287 230q6 5 11.5 7t16.5 2q18 0 18 -13z" />
    <glyph glyph-name="Lacute" unicode="&#x139;" horiz-adv-x="483" 
d="M452 25l-1 -8q-1 -8 -7.5 -12.5t-14.5 -4.5h-228q-46 0 -75 17.5t-29 64.5q0 13 3 30l108 612q2 8 7 13.5t13 5.5h10q7 0 10.5 -4.5t3.5 -10.5v-3v-1l-108 -612q-3 -17 -3 -28q0 -27 16 -35t51 -8h228q16 0 16 -14v-1v-1zM489 947q0 -4 -5 -9l-119 -128l-12.5 -12.5
t-12.5 -4.5h-26q-8 0 -8 6q0 5 6 11l112 128q8 9 12.5 12t12.5 3h30q10 0 10 -6z" />
    <glyph glyph-name="lacute" unicode="&#x13a;" horiz-adv-x="204" 
d="M252 724l-125 -705q-2 -8 -7 -13.5t-13 -5.5h-10q-7 0 -10.5 4.5t-3.5 10.5v4l125 705q2 8 7 13.5t13 5.5h10q7 0 10.5 -4.5t3.5 -10.5v-4zM362 947q0 -4 -5 -9l-119 -128l-12.5 -12.5t-12.5 -4.5h-26q-8 0 -8 6q0 5 6 11l112 128q8 9 12.5 12t12.5 3h30q10 0 10 -6z" />
    <glyph glyph-name="Lcommaaccent" unicode="&#x13b;" horiz-adv-x="483" 
d="M452 25l-1 -8q-1 -8 -7.5 -12.5t-14.5 -4.5h-228q-46 0 -75 17.5t-29 64.5q0 13 3 30l108 612q2 8 7 13.5t13 5.5h10q7 0 10.5 -4.5t3.5 -10.5v-3v-1l-108 -612q-3 -17 -3 -28q0 -27 16 -35t51 -8h228q16 0 16 -14v-1v-1zM294 -48q10 0 10 -9q0 -6 -4 -12l-76 -107
q-6 -9 -11.5 -14t-15.5 -5h-9q-8 0 -8 8q0 2 3 8l64 112q10 19 23 19h24z" />
    <glyph glyph-name="lcommaaccent" unicode="&#x13c;" horiz-adv-x="204" 
d="M252 724l-125 -705q-2 -8 -7 -13.5t-13 -5.5h-10q-7 0 -10.5 4.5t-3.5 10.5v4l125 705q2 8 7 13.5t13 5.5h10q7 0 10.5 -4.5t3.5 -10.5v-4zM113 -48q10 0 10 -9q0 -6 -4 -12l-76 -107q-6 -9 -11.5 -14t-15.5 -5h-9q-8 0 -8 8q0 2 3 8l64 112q10 19 23 19h24z" />
    <glyph glyph-name="Lcaron" unicode="&#x13d;" horiz-adv-x="483" 
d="M452 25l-1 -8q-1 -8 -7.5 -12.5t-14.5 -4.5h-228q-46 0 -75 17.5t-29 64.5q0 13 3 30l108 612q2 8 7 13.5t13 5.5h10q7 0 10.5 -4.5t3.5 -10.5v-3v-1l-108 -612q-3 -17 -3 -28q0 -27 16 -35t51 -8h228q16 0 16 -14v-1v-1zM313 533q-10 0 -8 10q2 6 4 9l91 172
q10 19 24 19h29q6 0 9.5 -4t-3.5 -15l-103 -172q-6 -11 -10.5 -15t-12.5 -4h-20z" />
    <glyph glyph-name="lcaron" unicode="&#x13e;" horiz-adv-x="399" 
d="M252 724l-125 -705q-2 -8 -7 -13.5t-13 -5.5h-10q-7 0 -10.5 4.5t-3.5 10.5v4l125 705q3 19 20 19h10q7 0 10.5 -4.5t3.5 -10.5v-4zM307 533q-10 0 -8 10q2 6 4 9l91 172q10 19 24 19h29q6 0 9.5 -4t-3.5 -15l-103 -172q-6 -11 -10.5 -15t-12.5 -4h-20z" />
    <glyph glyph-name="Ldot" unicode="&#x13f;" horiz-adv-x="483" 
d="M452 25l-1 -8q-1 -8 -7.5 -12.5t-14.5 -4.5h-228q-46 0 -75 17.5t-29 64.5q0 13 3 30l108 612q2 8 7 13.5t13 5.5h10q7 0 10.5 -4.5t3.5 -10.5v-3v-1l-108 -612q-3 -17 -3 -28q0 -27 16 -35t51 -8h228q16 0 16 -14v-1v-1zM384 441l-13 -74q-2 -8 -8 -13.5t-14 -5.5h-6
q-16 0 -16 16v3l13 74q2 8 8.5 13.5t14.5 5.5h6q15 0 15 -16v-3z" />
    <glyph glyph-name="ldot" unicode="&#x140;" horiz-adv-x="298" 
d="M127 19q-2 -8 -7 -13.5t-13 -5.5h-10q-8 0 -12 5.5t-2 13.5l124 705q2 8 7.5 13.5t13.5 5.5h10q8 0 11.5 -5.5t1.5 -13.5zM327 346q-2 -8 -8.5 -13.5t-14.5 -5.5h-6q-8 0 -12.5 5.5t-2.5 13.5l13 74q1 8 7.5 13.5t14.5 5.5h6q8 0 12.5 -5.5t3.5 -13.5z" />
    <glyph glyph-name="Lslash" unicode="&#x141;" horiz-adv-x="483" 
d="M452 25l-1 -8q-1 -8 -7.5 -12.5t-14.5 -4.5h-230q-52 0 -77 21.5t-25 62.5q0 13 3 28l37 214l-90 -104q-6 -7 -13 -7q-6 0 -6 5l5 30q1 6 3 11.5t9 13.5l105 120l58 329q2 8 7 13.5t13 5.5h10q7 0 10.5 -4.5t3.5 -10.5v-4l-47 -266l90 104q6 7 13 7q6 0 6 -5l-5 -30
q-1 -6 -3 -11.5t-9 -13.5l-104 -120l-49 -277q-2 -7 -2 -13v-11q0 -30 17.5 -38.5t48.5 -8.5h228q16 0 16 -14v-2z" />
    <glyph glyph-name="lslash" unicode="&#x142;" horiz-adv-x="204" 
d="M315 565l-7 -35q-2 -6 -2.5 -8t-7.5 -10l-105 -123l-66 -370q-2 -8 -7 -13.5t-13 -5.5h-10q-7 0 -10.5 4.5t-3.5 10.5v4l54 307l-94 -108q-6 -7 -11 -7q-4 0 -4 6v4l6 35q1 6 2.5 8t6.5 8l107 123l58 329q2 8 7 13.5t13 5.5h10q7 0 10.5 -4.5t3.5 -10.5v-4l-47 -266
l98 112q3 4 7 4q5 0 5 -7v-2z" />
    <glyph glyph-name="Nacute" unicode="&#x143;" horiz-adv-x="651" 
d="M654 724q2 8 6 13.5t15 5.5h8q19 0 16 -19l-120 -680q-5 -24 -19.5 -37t-33.5 -13t-29.5 6.5t-16.5 25.5l-218 673q-2 7 -8 7t-7 -7l-120 -680q-2 -8 -6 -13.5t-18 -5.5h-5q-11 0 -14 6t-1 13l120 680q5 28 21 38.5t32 10.5q21 0 31.5 -9t15.5 -22l218 -674q2 -7 6 -7
q5 0 7 8zM609 947q0 -4 -5 -9l-119 -128l-12.5 -12.5t-12.5 -4.5h-26q-8 0 -8 6q0 5 6 11l112 128q8 9 12.5 12t12.5 3h30q10 0 10 -6z" />
    <glyph glyph-name="nacute" unicode="&#x144;" horiz-adv-x="521" 
d="M518 399q0 -20 -5 -48l-59 -332q-2 -8 -8 -13.5t-14 -5.5h-7q-15 0 -15 16v3l59 332q2 12 3 23t1 22q0 59 -32 83t-80 24q-38 0 -81.5 -11.5t-84.5 -29.5l-78 -443q-2 -8 -8 -13.5t-14 -5.5h-6q-16 0 -16 16v3l88 498q2 8 8 14t14 6h8q7 0 10.5 -4.5t3.5 -10.5v-5l-3 -16
q42 19 82 30t79 11q31 0 59.5 -8t49.5 -25t33.5 -44t12.5 -66zM510 772q0 -4 -5 -9l-119 -128l-12.5 -12.5t-12.5 -4.5h-26q-8 0 -8 6q0 5 6 11l112 128q8 9 12.5 12t12.5 3h30q10 0 10 -6z" />
    <glyph glyph-name="Ncommaaccent" unicode="&#x145;" horiz-adv-x="651" 
d="M654 724q2 8 6 13.5t15 5.5h8q19 0 16 -19l-120 -680q-5 -24 -19.5 -37t-33.5 -13t-29.5 6.5t-16.5 25.5l-218 673q-2 7 -8 7t-7 -7l-120 -680q-2 -8 -6 -13.5t-18 -5.5h-5q-11 0 -14 6t-1 13l120 680q5 28 21 38.5t32 10.5q21 0 31.5 -9t15.5 -22l218 -674q2 -7 6 -7
q5 0 7 8zM347 -48q10 0 10 -9q0 -6 -4 -12l-76 -107q-6 -9 -11.5 -14t-15.5 -5h-9q-8 0 -8 8q0 2 3 8l64 112q10 19 23 19h24z" />
    <glyph glyph-name="ncommaaccent" unicode="&#x146;" horiz-adv-x="521" 
d="M518 399q0 -20 -5 -48l-59 -332q-2 -8 -8 -13.5t-14 -5.5h-7q-15 0 -15 16v3l59 332q2 12 3 23t1 22q0 59 -32 83t-80 24q-38 0 -81.5 -11.5t-84.5 -29.5l-78 -443q-2 -8 -8 -13.5t-14 -5.5h-6q-16 0 -16 16v3l88 498q2 8 8 14t14 6h8q7 0 10.5 -4.5t3.5 -10.5v-5l-3 -16
q42 19 82 30t79 11q31 0 59.5 -8t49.5 -25t33.5 -44t12.5 -66zM272 -48q10 0 10 -9q0 -6 -4 -12l-76 -107q-6 -9 -11.5 -14t-15.5 -5h-9q-8 0 -8 8q0 2 3 8l64 112q10 19 23 19h24z" />
    <glyph glyph-name="Ncaron" unicode="&#x147;" horiz-adv-x="651" 
d="M654 724q2 8 6 13.5t15 5.5h8q19 0 16 -19l-120 -680q-5 -24 -19.5 -37t-33.5 -13t-29.5 6.5t-16.5 25.5l-218 673q-2 7 -8 7t-7 -7l-120 -680q-2 -8 -6 -13.5t-18 -5.5h-5q-11 0 -14 6t-1 13l120 680q5 28 21 38.5t32 10.5q21 0 31.5 -9t15.5 -22l218 -674q2 -7 6 -7
q5 0 7 8zM636 947q0 -5 -6 -11l-122 -128q-8 -8 -13 -11.5t-13 -3.5h-40q-8 0 -11.5 3.5t-8.5 11.5l-78 128q-2 3 -2 8q0 9 10 9h20q8 0 11 -4.5t8 -12.5l74 -113l114 113l12.5 12.5t12.5 4.5h24q8 0 8 -6z" />
    <glyph glyph-name="ncaron" unicode="&#x148;" horiz-adv-x="521" 
d="M518 399q0 -20 -5 -48l-59 -332q-2 -8 -8 -13.5t-14 -5.5h-7q-15 0 -15 16v3l59 332q2 12 3 23t1 22q0 59 -32 83t-80 24q-38 0 -81.5 -11.5t-84.5 -29.5l-78 -443q-2 -8 -8 -13.5t-14 -5.5h-6q-16 0 -16 16v3l88 498q2 8 8 14t14 6h8q7 0 10.5 -4.5t3.5 -10.5v-5l-3 -16
q42 19 82 30t79 11q31 0 59.5 -8t49.5 -25t33.5 -44t12.5 -66zM534 772q0 -5 -6 -11l-122 -128q-8 -8 -13 -11.5t-13 -3.5h-40q-8 0 -11.5 3.5t-8.5 11.5l-78 128q-2 3 -2 8q0 9 10 9h20q8 0 11 -4.5t8 -12.5l74 -113l114 113l12.5 12.5t12.5 4.5h24q8 0 8 -6z" />
    <glyph glyph-name="napostrophe" unicode="&#x149;" horiz-adv-x="539" 
d="M176 735q0 -5 -3 -11l-79 -172q-8 -19 -22 -19h-15q-8 0 -8 7q0 6 3 12l72 172q8 19 23 19h19q10 0 10 -8zM536 399q0 -20 -5 -48l-59 -332q-2 -8 -8 -13.5t-14 -5.5h-7q-15 0 -15 16v3l59 332q2 12 3 23t1 22q0 59 -32 83t-80 24q-38 0 -81.5 -11.5t-84.5 -29.5
l-78 -443q-2 -8 -8 -13.5t-14 -5.5h-6q-16 0 -16 16v3l88 498q2 8 8 14t14 6h8q7 0 10.5 -4.5t3.5 -10.5v-5l-3 -16q42 19 82 30t79 11q31 0 59.5 -8t49.5 -25t33.5 -44t12.5 -66z" />
    <glyph glyph-name="Eng" unicode="&#x14a;" horiz-adv-x="651" 
d="M654 724q2 8 6 13.5t15 5.5h8q19 0 16 -19l-139 -784q-6 -37 -17.5 -62.5t-30.5 -41.5t-48 -23.5t-71 -7.5h-14q-8 0 -13 2t-5 9v3l2 10q3 15 22 15h14q31 0 51 4t33 14.5t20.5 29t12.5 48.5l9 54q-18 0 -28.5 6.5t-16.5 25.5l-218 673q-2 7 -8 7t-7 -7l-120 -680
q-2 -8 -6 -13.5t-18 -5.5h-5q-11 0 -14 6t-1 13l120 680q5 28 21 38.5t32 10.5q21 0 31.5 -9t15.5 -22l218 -674q2 -7 6 -7q5 0 7 8l120 680v0z" />
    <glyph glyph-name="eng" unicode="&#x14b;" horiz-adv-x="521" 
d="M436 -86q-6 -31 -15 -52t-23 -33.5t-34.5 -18t-49.5 -5.5q-13 0 -22 0.5t-20 2.5q-14 3 -14 12v2l1 9q1 7 4 9.5t13 2.5h44q17 0 29 2.5t20 10.5t13.5 21.5t9.5 36.5l77 437q2 12 3 23t1 22q0 59 -32 83t-80 24q-38 0 -81.5 -11.5t-84.5 -29.5l-78 -443q-2 -8 -8 -13.5
t-14 -5.5h-6q-16 0 -16 16v3l88 498q2 8 8 14t14 6h8q7 0 10.5 -4.5t3.5 -10.5v-5l-3 -16q42 19 82 30t79 11q31 0 59.5 -8t49.5 -25t33.5 -44t12.5 -66q0 -20 -5 -48z" />
    <glyph glyph-name="Omacron" unicode="&#x14c;" horiz-adv-x="632" 
d="M657 525q0 -41 -9 -92l-22 -124q-15 -86 -45 -146t-70.5 -97.5t-90 -54.5t-105.5 -17q-47 0 -85.5 13t-66 40t-43 69t-15.5 100q0 42 9 93l22 124q16 89 45.5 149.5t70 97t90.5 52.5t106 16q47 0 85.5 -13.5t66 -41t42.5 -69.5t15 -99zM613 527q0 51 -13 85.5t-36 55
t-54.5 29.5t-69.5 9q-46 0 -87 -13.5t-75 -45.5t-59 -84t-39 -130l-22 -124q-9 -54 -9 -95q0 -50 12.5 -84t35 -55t54.5 -30t71 -9q46 0 88 15t75.5 48t58.5 84.5t38 125.5l22 124q9 52 9 94zM637 855l-2 -11q-2 -8 -8.5 -12t-14.5 -4h-266q-17 0 -17 13v3l2 11
q2 8 8.5 11.5t14.5 3.5h266q17 0 17 -12v-3z" />
    <glyph glyph-name="omacron" unicode="&#x14d;" horiz-adv-x="522" 
d="M526 369q0 -30 -6 -66l-12 -70q-20 -115 -80 -177t-168 -62q-85 0 -127.5 46.5t-42.5 128.5q0 29 6 64l12 70q20 118 81.5 178.5t167.5 60.5q86 0 127.5 -46t41.5 -127zM483 372q0 63 -30.5 97t-102.5 34q-85 0 -133.5 -55t-64.5 -145l-12 -70q-3 -19 -5 -36t-2 -33
q0 -63 31 -97t103 -34q43 0 76.5 14.5t57.5 40.5t39.5 63t23.5 82l12 70q3 19 5 36t2 33zM554 697l-2 -11q-2 -8 -8.5 -12t-14.5 -4h-266q-17 0 -17 13v3l2 11q2 8 8.5 11.5t14.5 3.5h266q17 0 17 -12v-3z" />
    <glyph glyph-name="Obreve" unicode="&#x14e;" horiz-adv-x="632" 
d="M657 525q0 -41 -9 -92l-22 -124q-15 -86 -45 -146t-70.5 -97.5t-90 -54.5t-105.5 -17q-47 0 -85.5 13t-66 40t-43 69t-15.5 100q0 42 9 93l22 124q16 89 45.5 149.5t70 97t90.5 52.5t106 16q47 0 85.5 -13.5t66 -41t42.5 -69.5t15 -99zM613 527q0 51 -13 85.5t-36 55
t-54.5 29.5t-69.5 9q-46 0 -87 -13.5t-75 -45.5t-59 -84t-39 -130l-22 -124q-9 -54 -9 -95q0 -50 12.5 -84t35 -55t54.5 -30t71 -9q46 0 88 15t75.5 48t58.5 84.5t38 125.5l22 124q9 52 9 94zM620 944q0 -5 -1 -8q-11 -65 -55 -104t-113 -39q-24 0 -46 8.5t-38.5 24
t-26 37.5t-9.5 48v12t2 13q2 8 4.5 12.5t10.5 4.5h20q9 0 9 -7v-4.5t-1 -5.5q-2 -7 -2 -13v-11q0 -24 9 -39t22 -24t27.5 -12t25.5 -3q15 0 33.5 4.5t35.5 16t30.5 31t18.5 50.5q2 11 4 14t10 3h20q10 0 10 -9z" />
    <glyph glyph-name="obreve" unicode="&#x14f;" horiz-adv-x="522" 
d="M526 369q0 -30 -6 -66l-12 -70q-20 -115 -80 -177t-168 -62q-85 0 -127.5 46.5t-42.5 128.5q0 29 6 64l12 70q20 118 81.5 178.5t167.5 60.5q86 0 127.5 -46t41.5 -127zM483 372q0 63 -30.5 97t-102.5 34q-85 0 -133.5 -55t-64.5 -145l-12 -70q-3 -19 -5 -36t-2 -33
q0 -63 31 -97t103 -34q43 0 76.5 14.5t57.5 40.5t39.5 63t23.5 82l12 70q3 19 5 36t2 33zM542 769q0 -5 -1 -8q-11 -65 -55 -104t-113 -39q-24 0 -46 8.5t-38.5 24t-26 37.5t-9.5 48v12t2 13q2 8 4.5 12.5t10.5 4.5h20q9 0 9 -7v-4.5t-1 -5.5q-2 -7 -2 -13v-11q0 -24 9 -39
t22 -24t27.5 -12t25.5 -3q15 0 33.5 4.5t35.5 16t30.5 31t18.5 50.5q2 11 4 14t10 3h20q10 0 10 -9z" />
    <glyph glyph-name="Ohungarumlaut" unicode="&#x150;" horiz-adv-x="632" 
d="M657 525q0 -41 -9 -92l-22 -124q-15 -86 -45 -146t-70.5 -97.5t-90 -54.5t-105.5 -17q-47 0 -85.5 13t-66 40t-43 69t-15.5 100q0 42 9 93l22 124q16 89 45.5 149.5t70 97t90.5 52.5t106 16q47 0 85.5 -13.5t66 -41t42.5 -69.5t15 -99zM613 527q0 51 -13 85.5t-36 55
t-54.5 29.5t-69.5 9q-46 0 -87 -13.5t-75 -45.5t-59 -84t-39 -130l-22 -124q-9 -54 -9 -95q0 -50 12.5 -84t35 -55t54.5 -30t71 -9q46 0 88 15t75.5 48t58.5 84.5t38 125.5l22 124q9 52 9 94zM672 947q0 -4 -5 -9l-130 -128l-12.5 -12.5t-12.5 -4.5h-27q-8 0 -8 6q0 5 6 11
l123 128q8 8 12.5 11.5t12.5 3.5h31q10 0 10 -6zM532 947q0 -4 -5 -9l-130 -128l-12.5 -12.5t-12.5 -4.5h-27q-8 0 -8 6q0 5 6 11l123 128q8 8 12.5 11.5t12.5 3.5h31q10 0 10 -6z" />
    <glyph glyph-name="ohungarumlaut" unicode="&#x151;" horiz-adv-x="522" 
d="M526 369q0 -30 -6 -66l-12 -70q-20 -115 -80 -177t-168 -62q-85 0 -127.5 46.5t-42.5 128.5q0 29 6 64l12 70q20 118 81.5 178.5t167.5 60.5q86 0 127.5 -46t41.5 -127zM483 372q0 63 -30.5 97t-102.5 34q-85 0 -133.5 -55t-64.5 -145l-12 -70q-3 -19 -5 -36t-2 -33
q0 -63 31 -97t103 -34q43 0 76.5 14.5t57.5 40.5t39.5 63t23.5 82l12 70q3 19 5 36t2 33zM584 772q0 -4 -5 -9l-130 -128l-12.5 -12.5t-12.5 -4.5h-27q-8 0 -8 6q0 5 6 11l123 128q8 8 12.5 11.5t12.5 3.5h31q10 0 10 -6zM444 772q0 -4 -5 -9l-130 -128l-12.5 -12.5
t-12.5 -4.5h-27q-8 0 -8 6q0 5 6 11l123 128q8 8 12.5 11.5t12.5 3.5h31q10 0 10 -6z" />
    <glyph glyph-name="OE" unicode="&#x152;" horiz-adv-x="982" 
d="M1055 726l-1 -8q-1 -8 -7.5 -12t-14.5 -4h-296q-26 0 -33.5 -9t-12.5 -32l-45 -250h335q7 0 12 -3t5 -10v-3l-2 -10q-3 -17 -22 -17h-335l-51 -287q-1 -5 -1 -13q0 -14 7.5 -20.5t25.5 -6.5h296q16 0 16 -13v-3l-1 -8q-1 -8 -7.5 -12.5t-14.5 -4.5h-292q-32 0 -53 15
t-21 47q0 5 0.5 9.5t1.5 9.5l4 23q-37 -48 -98 -79t-135 -31q-47 0 -86.5 14.5t-68 41.5t-44 65.5t-15.5 87.5q0 14 1.5 27.5t3.5 28.5l39 224q12 66 40.5 115.5t69 83t90 50t103.5 16.5q73 0 121 -31t72 -79l5 23q11 48 32.5 65t64.5 17h296q16 0 16 -14v-3zM619 533
q0 42 -14 74.5t-38 54.5t-56.5 33t-70.5 11q-43 0 -84 -15t-75 -43.5t-58.5 -70t-33.5 -94.5l-39 -224q-2 -14 -3.5 -27.5t-1.5 -26.5q0 -44 13.5 -75.5t37.5 -52.5t56 -31t70 -10q49 0 92 18t76 49t55 71t30 85l39 224q2 13 3.5 25t1.5 25z" />
    <glyph glyph-name="oe" unicode="&#x153;" horiz-adv-x="880" 
d="M885 372q0 -32 -6 -68l-5 -27q-2 -8 -9 -13.5t-15 -5.5h-337l-3 -21q-2 -18 -4 -34.5t-2 -30.5q0 -41 10.5 -67.5t30 -42t47 -22t62.5 -6.5q33 0 73.5 4t78.5 12q3 1 9 1q12 0 12 -8q0 -5 -1 -7l-2 -7q-3 -11 -7.5 -13.5t-15.5 -4.5q-38 -8 -78.5 -12.5t-74.5 -4.5
q-69 0 -116.5 27t-63.5 89q-31 -57 -82 -86.5t-126 -29.5q-85 0 -127.5 46.5t-42.5 128.5q0 29 6 64l12 70q20 118 81.5 178.5t167.5 60.5q69 0 109 -30.5t54 -84.5q32 56 82 85.5t119 29.5q43 0 74 -12.5t51 -35t29.5 -54t9.5 -68.5zM842 374q0 63 -29 96t-98 33
q-42 0 -74 -14t-55.5 -40t-39 -63t-24.5 -83l-1 -5h313l1 6q3 20 5 36.5t2 33.5zM483 372q0 63 -30.5 97t-102.5 34q-85 0 -133.5 -55t-64.5 -145l-12 -70q-3 -19 -5 -36t-2 -33q0 -63 31 -97t103 -34q43 0 76.5 14.5t57.5 40.5t39.5 63t23.5 82l12 70q3 19 5 36t2 33z" />
    <glyph glyph-name="Racute" unicode="&#x154;" horiz-adv-x="598" 
d="M626 593q0 -21 -5 -49l-1 -5q-20 -98 -74 -143.5t-140 -55.5l147 -311q3 -6 3 -12q0 -7 -4 -12t-13 -5h-10q-10 0 -15 9l-156 326h-46h-79q-24 0 -50 1l-56 -317q-2 -8 -7 -13.5t-13 -5.5h-10q-14 0 -14 16v3l125 706q2 7 7.5 12.5t12.5 6.5q13 1 33 1.5t42.5 1t44 1
t37.5 0.5q118 0 179.5 -37.5t61.5 -117.5zM582 590q0 67 -51 91.5t-154 24.5h-33.5t-35 -0.5t-33 -1.5t-27.5 -2l-57 -324h28t37.5 -0.5t37.5 -0.5h29q58 0 101.5 7.5t74 26t49.5 49.5t28 79l1 5q2 13 3.5 24t1.5 22zM557 947q0 -4 -5 -9l-119 -128l-12.5 -12.5t-12.5 -4.5
h-26q-8 0 -8 6q0 5 6 11l112 128q8 9 12.5 12t12.5 3h30q10 0 10 -6z" />
    <glyph glyph-name="racute" unicode="&#x155;" horiz-adv-x="309" 
d="M366 527l-1 -8q-2 -10 -8 -12.5t-18 -2.5q-29 0 -61.5 -9.5t-82.5 -37.5l-78 -438q-2 -8 -8 -13.5t-14 -5.5h-6q-16 0 -16 16v3l88 498q2 8 8 14t14 6h8q15 0 15 -14q0 -2 -0.5 -3t-0.5 -3l-4 -21q41 25 73 35.5t69 10.5q11 0 17 -2t6 -10v-3zM407 772q0 -4 -5 -9
l-119 -128l-12.5 -12.5t-12.5 -4.5h-26q-8 0 -8 6q0 5 6 11l112 128q8 9 12.5 12t12.5 3h30q10 0 10 -6z" />
    <glyph glyph-name="Rcommaaccent" unicode="&#x156;" horiz-adv-x="598" 
d="M626 593q0 -21 -5 -49l-1 -5q-20 -98 -74 -143.5t-140 -55.5l147 -311q3 -6 3 -12q0 -7 -4 -12t-13 -5h-10q-10 0 -15 9l-156 326h-46h-79q-24 0 -50 1l-56 -317q-2 -8 -7 -13.5t-13 -5.5h-10q-14 0 -14 16v3l125 706q2 7 7.5 12.5t12.5 6.5q13 1 33 1.5t42.5 1t44 1
t37.5 0.5q118 0 179.5 -37.5t61.5 -117.5zM582 590q0 67 -51 91.5t-154 24.5h-33.5t-35 -0.5t-33 -1.5t-27.5 -2l-57 -324h28t37.5 -0.5t37.5 -0.5h29q58 0 101.5 7.5t74 26t49.5 49.5t28 79l1 5q2 13 3.5 24t1.5 22zM328 -48q10 0 10 -9q0 -6 -4 -12l-76 -107
q-6 -9 -11.5 -14t-15.5 -5h-9q-8 0 -8 8q0 2 3 8l64 112q10 19 23 19h24z" />
    <glyph glyph-name="rcommaaccent" unicode="&#x157;" horiz-adv-x="309" 
d="M366 527l-1 -8q-2 -10 -8 -12.5t-18 -2.5q-29 0 -61.5 -9.5t-82.5 -37.5l-78 -438q-2 -8 -8 -13.5t-14 -5.5h-6q-16 0 -16 16v3l88 498q2 8 8 14t14 6h8q15 0 15 -14q0 -2 -0.5 -3t-0.5 -3l-4 -21q41 25 73 35.5t69 10.5q11 0 17 -2t6 -10v-3zM149 -48q10 0 10 -9
q0 -6 -4 -12l-76 -107q-6 -9 -11.5 -14t-15.5 -5h-9q-8 0 -8 8q0 2 3 8l64 112q10 19 23 19h24z" />
    <glyph glyph-name="Rcaron" unicode="&#x158;" horiz-adv-x="598" 
d="M626 593q0 -21 -5 -49l-1 -5q-20 -98 -74 -143.5t-140 -55.5l147 -311q3 -6 3 -12q0 -7 -4 -12t-13 -5h-10q-10 0 -15 9l-156 326h-46h-79q-24 0 -50 1l-56 -317q-2 -8 -7 -13.5t-13 -5.5h-10q-14 0 -14 16v3l125 706q2 7 7.5 12.5t12.5 6.5q13 1 33 1.5t42.5 1t44 1
t37.5 0.5q118 0 179.5 -37.5t61.5 -117.5zM582 590q0 67 -51 91.5t-154 24.5h-33.5t-35 -0.5t-33 -1.5t-27.5 -2l-57 -324h28t37.5 -0.5t37.5 -0.5h29q58 0 101.5 7.5t74 26t49.5 49.5t28 79l1 5q2 13 3.5 24t1.5 22zM582 947q0 -5 -6 -11l-122 -128q-8 -8 -13 -11.5
t-13 -3.5h-40q-8 0 -11.5 3.5t-8.5 11.5l-78 128q-2 3 -2 8q0 9 10 9h20q8 0 11 -4.5t8 -12.5l74 -113l114 113l12.5 12.5t12.5 4.5h24q8 0 8 -6z" />
    <glyph glyph-name="rcaron" unicode="&#x159;" horiz-adv-x="309" 
d="M366 527l-1 -8q-2 -10 -8 -12.5t-18 -2.5q-29 0 -61.5 -9.5t-82.5 -37.5l-78 -438q-2 -8 -8 -13.5t-14 -5.5h-6q-16 0 -16 16v3l88 498q2 8 8 14t14 6h8q15 0 15 -14q0 -2 -0.5 -3t-0.5 -3l-4 -21q41 25 73 35.5t69 10.5q11 0 17 -2t6 -10v-3zM451 772q0 -5 -6 -11
l-122 -128q-8 -8 -13 -11.5t-13 -3.5h-40q-8 0 -11.5 3.5t-8.5 11.5l-78 128q-2 3 -2 8q0 9 10 9h20q8 0 11 -4.5t8 -12.5l74 -113l114 113l12.5 12.5t12.5 4.5h24q8 0 8 -6z" />
    <glyph glyph-name="Sacute" unicode="&#x15a;" horiz-adv-x="530" 
d="M582 723l-2 -13q-1 -13 -18 -13h-3q-28 2 -68.5 5.5t-78.5 3.5q-36 0 -73.5 -4.5t-68 -19t-50 -42t-19.5 -72.5q0 -41 28.5 -72.5t80.5 -66.5l52 -35q41 -28 69.5 -52t46 -46.5t25.5 -44t8 -43.5q0 -59 -22.5 -99.5t-60 -66t-86 -37t-100.5 -11.5q-43 0 -82 3.5t-71 7.5
q-6 1 -10.5 4t-4.5 10v2l2 13q2 8 6 10t9 2h5q38 -4 74.5 -7.5t78.5 -3.5q43 0 82 8.5t68.5 28t47 52t17.5 79.5q0 21 -7 38.5t-22 35.5t-39.5 37.5t-60.5 43.5l-51 35q-58 40 -93 79t-35 91q0 56 23.5 92t61 56.5t85 28.5t95.5 8q40 0 77.5 -3.5t69.5 -6.5q14 -2 14 -12v-2
v-1zM539 947q0 -4 -5 -9l-119 -128l-12.5 -12.5t-12.5 -4.5h-26q-8 0 -8 6q0 5 6 11l112 128q8 9 12.5 12t12.5 3h30q10 0 10 -6z" />
    <glyph glyph-name="sacute" unicode="&#x15b;" horiz-adv-x="440" 
d="M463 516l-1 -8q-1 -9 -4 -11.5t-11 -2.5q-1 0 -4 0.5t-4 0.5q-9 1 -24.5 2t-34.5 2.5t-39.5 2.5t-39.5 1q-62 0 -96 -19.5t-34 -75.5q0 -26 21.5 -48t59.5 -45l60 -37q30 -18 49.5 -33.5t31.5 -30t17 -30t5 -34.5q0 -44 -16.5 -74t-44 -48t-63.5 -26t-75 -8
q-16 0 -35.5 1t-39 3t-37.5 4.5t-31 5.5q-6 2 -12.5 4t-6.5 10v2l2 11q2 8 4.5 10t7.5 2t9 -1q41 -6 81 -9.5t67 -3.5q66 0 106 26t40 91q0 25 -19 44.5t-68 48.5l-58 35q-42 26 -70.5 56.5t-28.5 71.5q0 39 14.5 65t38.5 42t55.5 22.5t65.5 6.5q54 0 86.5 -3t57.5 -6
q7 -1 12.5 -4t5.5 -11v-2zM456 772q0 -4 -5 -9l-119 -128l-12.5 -12.5t-12.5 -4.5h-26q-8 0 -8 6q0 5 6 11l112 128q8 9 12.5 12t12.5 3h30q10 0 10 -6z" />
    <glyph glyph-name="Scircumflex" unicode="&#x15c;" horiz-adv-x="530" 
d="M582 723l-2 -13q-1 -13 -18 -13h-3q-28 2 -68.5 5.5t-78.5 3.5q-36 0 -73.5 -4.5t-68 -19t-50 -42t-19.5 -72.5q0 -41 28.5 -72.5t80.5 -66.5l52 -35q41 -28 69.5 -52t46 -46.5t25.5 -44t8 -43.5q0 -59 -22.5 -99.5t-60 -66t-86 -37t-100.5 -11.5q-43 0 -82 3.5t-71 7.5
q-6 1 -10.5 4t-4.5 10v2l2 13q2 8 6 10t9 2h5q38 -4 74.5 -7.5t78.5 -3.5q43 0 82 8.5t68.5 28t47 52t17.5 79.5q0 21 -7 38.5t-22 35.5t-39.5 37.5t-60.5 43.5l-51 35q-58 40 -93 79t-35 91q0 56 23.5 92t61 56.5t85 28.5t95.5 8q40 0 77.5 -3.5t69.5 -6.5q14 -2 14 -12v-2
v-1zM551 801q0 -9 -10 -9h-19q-8 0 -11 4.5t-8 12.5l-74 113l-114 -113l-12.5 -12.5t-12.5 -4.5h-25q-8 0 -8 6q0 5 6 11l123 128q8 8 12.5 11.5t12.5 3.5h40q8 0 12 -3.5t9 -11.5l77 -128q2 -3 2 -8z" />
    <glyph glyph-name="scircumflex" unicode="&#x15d;" horiz-adv-x="440" 
d="M463 516l-1 -8q-1 -9 -4 -11.5t-11 -2.5q-1 0 -4 0.5t-4 0.5q-9 1 -24.5 2t-34.5 2.5t-39.5 2.5t-39.5 1q-62 0 -96 -19.5t-34 -75.5q0 -26 21.5 -48t59.5 -45l60 -37q30 -18 49.5 -33.5t31.5 -30t17 -30t5 -34.5q0 -44 -16.5 -74t-44 -48t-63.5 -26t-75 -8
q-16 0 -35.5 1t-39 3t-37.5 4.5t-31 5.5q-6 2 -12.5 4t-6.5 10v2l2 11q2 8 4.5 10t7.5 2t9 -1q41 -6 81 -9.5t67 -3.5q66 0 106 26t40 91q0 25 -19 44.5t-68 48.5l-58 35q-42 26 -70.5 56.5t-28.5 71.5q0 39 14.5 65t38.5 42t55.5 22.5t65.5 6.5q54 0 86.5 -3t57.5 -6
q7 -1 12.5 -4t5.5 -11v-2zM460 627q0 -9 -10 -9h-19q-8 0 -11 4.5t-8 12.5l-74 113l-114 -113l-12.5 -12.5t-12.5 -4.5h-25q-8 0 -8 6q0 5 6 11l123 128q8 8 12.5 11.5t12.5 3.5h40q8 0 12 -3.5t9 -11.5l77 -128q2 -3 2 -8z" />
    <glyph glyph-name="uni015E" unicode="&#x15e;" horiz-adv-x="530" 
d="M582 723l-2 -13q-1 -13 -18 -13h-3q-28 2 -68.5 5.5t-78.5 3.5q-36 0 -73.5 -4.5t-68 -19t-50 -42t-19.5 -72.5q0 -41 28.5 -72.5t80.5 -66.5l52 -35q41 -28 69.5 -52t46 -46.5t25.5 -44t8 -43.5q0 -59 -22.5 -99.5t-60 -66t-86 -37t-100.5 -11.5q-43 0 -82 3.5t-71 7.5
q-6 1 -10.5 4t-4.5 10v2l2 13q2 8 6 10t9 2h5q38 -4 74.5 -7.5t78.5 -3.5q43 0 82 8.5t68.5 28t47 52t17.5 79.5q0 21 -7 38.5t-22 35.5t-39.5 37.5t-60.5 43.5l-51 35q-58 40 -93 79t-35 91q0 56 23.5 92t61 56.5t85 28.5t95.5 8q40 0 77.5 -3.5t69.5 -6.5q14 -2 14 -12v-2
v-1zM274 -53q0 -5 -5 -10l-118 -115l-12.5 -12.5t-12.5 -4.5h-22q-8 0 -8 6q0 5 6 11l111 115q8 8 13 11.5t13 3.5h26q9 0 9 -5z" />
    <glyph glyph-name="uni015F" unicode="&#x15f;" horiz-adv-x="440" 
d="M463 516l-1 -8q-1 -9 -4 -11.5t-11 -2.5q-1 0 -4 0.5t-4 0.5q-9 1 -24.5 2t-34.5 2.5t-39.5 2.5t-39.5 1q-62 0 -96 -19.5t-34 -75.5q0 -26 21.5 -48t59.5 -45l60 -37q30 -18 49.5 -33.5t31.5 -30t17 -30t5 -34.5q0 -44 -16.5 -74t-44 -48t-63.5 -26t-75 -8
q-16 0 -35.5 1t-39 3t-37.5 4.5t-31 5.5q-6 2 -12.5 4t-6.5 10v2l2 11q2 8 4.5 10t7.5 2t9 -1q41 -6 81 -9.5t67 -3.5q66 0 106 26t40 91q0 25 -19 44.5t-68 48.5l-58 35q-42 26 -70.5 56.5t-28.5 71.5q0 39 14.5 65t38.5 42t55.5 22.5t65.5 6.5q54 0 86.5 -3t57.5 -6
q7 -1 12.5 -4t5.5 -11v-2zM238 -53q0 -5 -5 -10l-118 -115l-12.5 -12.5t-12.5 -4.5h-22q-8 0 -8 6q0 5 6 11l111 115q8 8 13 11.5t13 3.5h26q9 0 9 -5z" />
    <glyph glyph-name="Scaron" unicode="&#x160;" horiz-adv-x="530" 
d="M582 723l-2 -13q-1 -13 -18 -13h-3q-28 2 -68.5 5.5t-78.5 3.5q-36 0 -73.5 -4.5t-68 -19t-50 -42t-19.5 -72.5q0 -41 28.5 -72.5t80.5 -66.5l52 -35q41 -28 69.5 -52t46 -46.5t25.5 -44t8 -43.5q0 -59 -22.5 -99.5t-60 -66t-86 -37t-100.5 -11.5q-43 0 -82 3.5t-71 7.5
q-6 1 -10.5 4t-4.5 10v2l2 13q2 8 6 10t9 2h5q38 -4 74.5 -7.5t78.5 -3.5q43 0 82 8.5t68.5 28t47 52t17.5 79.5q0 21 -7 38.5t-22 35.5t-39.5 37.5t-60.5 43.5l-51 35q-58 40 -93 79t-35 91q0 56 23.5 92t61 56.5t85 28.5t95.5 8q40 0 77.5 -3.5t69.5 -6.5q14 -2 14 -12v-2
v-1zM570 949q0 -5 -6 -11l-122 -128q-8 -8 -13 -11.5t-13 -3.5h-40q-8 0 -11.5 3.5t-8.5 11.5l-78 128q-2 3 -2 8q0 9 10 9h20q8 0 11 -4.5t8 -12.5l74 -113l114 113l12.5 12.5t12.5 4.5h24q8 0 8 -6z" />
    <glyph glyph-name="scaron" unicode="&#x161;" horiz-adv-x="440" 
d="M463 516l-1 -8q-1 -9 -4 -11.5t-11 -2.5q-1 0 -4 0.5t-4 0.5q-9 1 -24.5 2t-34.5 2.5t-39.5 2.5t-39.5 1q-62 0 -96 -19.5t-34 -75.5q0 -26 21.5 -48t59.5 -45l60 -37q30 -18 49.5 -33.5t31.5 -30t17 -30t5 -34.5q0 -44 -16.5 -74t-44 -48t-63.5 -26t-75 -8
q-16 0 -35.5 1t-39 3t-37.5 4.5t-31 5.5q-6 2 -12.5 4t-6.5 10v2l2 11q2 8 4.5 10t7.5 2t9 -1q41 -6 81 -9.5t67 -3.5q66 0 106 26t40 91q0 25 -19 44.5t-68 48.5l-58 35q-42 26 -70.5 56.5t-28.5 71.5q0 39 14.5 65t38.5 42t55.5 22.5t65.5 6.5q54 0 86.5 -3t57.5 -6
q7 -1 12.5 -4t5.5 -11v-2zM499 772q0 -5 -6 -11l-122 -128q-8 -8 -13 -11.5t-13 -3.5h-40q-8 0 -11.5 3.5t-8.5 11.5l-78 128q-2 3 -2 8q0 9 10 9h20q8 0 11 -4.5t8 -12.5l74 -113l114 113l12.5 12.5t12.5 4.5h24q8 0 8 -6z" />
    <glyph glyph-name="Tcommaaccent" unicode="&#x162;" horiz-adv-x="571" 
d="M669 725l-2 -9q-3 -14 -21 -14h-214l-121 -683q-2 -8 -7 -13.5t-13 -5.5h-10q-7 0 -10.5 4.5t-3.5 10.5v4l121 683h-215q-17 0 -17 14v3l2 9q3 15 22 15h473q16 0 16 -14v-4zM296 -48q10 0 10 -9q0 -6 -4 -12l-76 -107q-6 -9 -11.5 -14t-15.5 -5h-9q-8 0 -8 8q0 2 3 8
l64 112q10 19 23 19h24z" />
    <glyph glyph-name="tcommaaccent" unicode="&#x163;" horiz-adv-x="380" 
d="M432 521l-2 -10q-3 -15 -22 -15h-118l-70 -394q-3 -17 -3 -27q0 -29 16 -35.5t44 -6.5h48q7 0 12.5 -2t5.5 -9v-3l-1 -6q-1 -6 -5 -10t-15 -6t-25 -2.5t-27 -0.5q-46 0 -71.5 17.5t-25.5 59.5q0 14 3 31l70 394h-100q-16 0 -16 13v4l2 10q2 9 8 11.5t14 2.5h100l16 93
q2 8 7 13.5t13 5.5h11q13 0 13 -14v-5l-16 -93h118q7 0 11.5 -2t4.5 -10v-4zM242 -48q10 0 10 -9q0 -6 -4 -12l-76 -107q-6 -9 -11.5 -14t-15.5 -5h-9q-8 0 -8 8q0 2 3 8l64 112q10 19 23 19h24z" />
    <glyph glyph-name="Tcaron" unicode="&#x164;" horiz-adv-x="571" 
d="M669 725l-2 -9q-3 -14 -21 -14h-214l-121 -683q-2 -8 -7 -13.5t-13 -5.5h-10q-7 0 -10.5 4.5t-3.5 10.5v4l121 683h-215q-17 0 -17 14v3l2 9q3 15 22 15h473q16 0 16 -14v-4zM600 947q0 -5 -6 -11l-122 -128q-8 -8 -13 -11.5t-13 -3.5h-40q-8 0 -11.5 3.5t-8.5 11.5
l-78 128q-2 3 -2 8q0 9 10 9h20q8 0 11 -4.5t8 -12.5l74 -113l114 113l12.5 12.5t12.5 4.5h24q8 0 8 -6z" />
    <glyph glyph-name="tcaron" unicode="&#x165;" horiz-adv-x="575" 
d="M432 521l-2 -10q-3 -15 -22 -15h-118l-70 -394q-3 -17 -3 -27q0 -29 16 -35.5t44 -6.5h48q7 0 12.5 -2t5.5 -9v-3l-1 -6q-1 -6 -5 -10t-15 -6t-25 -2.5t-27 -0.5q-46 0 -71.5 17.5t-25.5 59.5q0 14 3 31l70 394h-100q-16 0 -16 13v4l2 10q2 9 8 11.5t14 2.5h100l16 93
q2 8 7 13.5t13 5.5h11q13 0 13 -14v-5l-16 -93h118q7 0 11.5 -2t4.5 -10v-4zM503 533q-10 0 -8 10q2 6 4 9l91 172q10 19 24 19h29q6 0 9.5 -4t-3.5 -15l-103 -172q-6 -11 -10.5 -15t-12.5 -4h-20z" />
    <glyph glyph-name="Tbar" unicode="&#x166;" horiz-adv-x="571" 
d="M395 497l-84 -478q-2 -8 -7 -13.5t-13 -5.5h-10q-8 0 -12 5.5t-2 13.5l84 478h-215q-19 0 -16 15l1 9q3 17 22 17h215l29 164h-215q-19 0 -16 15l2 9q1 8 7.5 12.5t14.5 4.5h473q18 0 16 -17l-2 -9q-3 -15 -22 -15h-214l-29 -164h214q19 0 16 -17l-1 -9q-3 -15 -22 -15
h-214z" />
    <glyph glyph-name="tbar" unicode="&#x167;" horiz-adv-x="380" 
d="M264 356l-42 -236q-4 -20 -4.5 -29t-0.5 -14q0 -29 15.5 -36.5t43.5 -7.5h48q21 0 19 -14l-1 -6q-2 -6 -5.5 -10t-14.5 -6t-25.5 -2.5t-27.5 -0.5q-20 0 -37.5 3.5t-31 12t-21 22.5t-7.5 36q0 14 3 34l45 254h-99q-19 0 -16 16l2 10q3 15 22 15h99l17 99h-99
q-19 0 -16 16l2 10q1 8 7 11.5t14 3.5h99l18 103q2 8 7.5 13.5t13.5 5.5h11q8 0 11 -5.5t1 -13.5l-18 -103h119q18 0 17 -15l-2 -10q-3 -16 -22 -16h-119l-17 -99h119q19 0 16 -15l-2 -10q-3 -16 -22 -16h-119z" />
    <glyph glyph-name="Utilde" unicode="&#x168;" horiz-adv-x="633" 
d="M681 724l-81 -460q-11 -65 -32.5 -115t-56 -84.5t-82.5 -52.5t-113 -18q-102 0 -149.5 51.5t-47.5 140.5q0 18 2 37.5t6 40.5l81 460q2 8 7 13.5t13 5.5h10q14 0 14 -16v-3l-81 -460q-4 -22 -6 -41.5t-2 -37.5q0 -75 37.5 -112.5t122.5 -37.5q100 0 156.5 58t76.5 171
l81 460q2 8 7 13.5t13 5.5h10q14 0 14 -16v-3zM635 911q0 -2 -0.5 -3.5t-0.5 -3.5l-4 -26q-7 -46 -31.5 -68t-60.5 -22q-20 0 -37.5 6t-38.5 32l-28 34q-10 12 -20 19t-22 7q-18 0 -32.5 -9.5t-19.5 -41.5l-4 -26q-2 -8 -4 -12t-9 -4h-21q-9 0 -9 9q0 2 0.5 3.5t0.5 3.5
l4 26q7 46 32 68t62 22q20 0 36.5 -6.5t36.5 -30.5l29 -35q21 -26 44 -26q18 0 31.5 9.5t18.5 41.5l4 26q2 8 4 12t9 4h21q9 0 9 -9z" />
    <glyph glyph-name="utilde" unicode="&#x169;" horiz-adv-x="522" 
d="M544 518l-89 -499q-2 -8 -8 -14t-14 -6h-8q-13 0 -13 16v3v1l2 16q-42 -19 -82 -30.5t-79 -11.5q-32 0 -60 8t-49 25.5t-33 44.5t-12 66q0 11 1 22.5t3 25.5l60 333q2 8 8 13.5t14 5.5h7q15 0 15 -16v-3l-60 -333q-2 -13 -3 -25t-1 -23q0 -59 32 -82t80 -23q38 0 81.5 12
t84.5 30l79 444q2 8 8 13.5t14 5.5h6q16 0 16 -16v-3zM557 752q0 -2 -0.5 -3.5t-0.5 -3.5l-4 -26q-7 -46 -31.5 -68t-60.5 -22q-20 0 -37.5 6t-38.5 32l-28 34q-10 12 -20 19t-22 7q-18 0 -32.5 -9.5t-19.5 -41.5l-4 -26q-2 -8 -4 -12t-9 -4h-21q-9 0 -9 9q0 2 0.5 3.5
t0.5 3.5l4 26q7 46 32 68t62 22q20 0 36.5 -6.5t36.5 -30.5l29 -35q21 -26 44 -26q18 0 31.5 9.5t18.5 41.5l4 26q2 8 4 12t9 4h21q9 0 9 -9z" />
    <glyph glyph-name="Umacron" unicode="&#x16a;" horiz-adv-x="633" 
d="M681 724l-81 -460q-11 -65 -32.5 -115t-56 -84.5t-82.5 -52.5t-113 -18q-102 0 -149.5 51.5t-47.5 140.5q0 18 2 37.5t6 40.5l81 460q2 8 7 13.5t13 5.5h10q14 0 14 -16v-3l-81 -460q-4 -22 -6 -41.5t-2 -37.5q0 -75 37.5 -112.5t122.5 -37.5q100 0 156.5 58t76.5 171
l81 460q2 8 7 13.5t13 5.5h10q14 0 14 -16v-3zM618 855l-2 -11q-2 -8 -8.5 -12t-14.5 -4h-266q-17 0 -17 13v3l2 11q2 8 8.5 11.5t14.5 3.5h266q17 0 17 -12v-3z" />
    <glyph glyph-name="umacron" unicode="&#x16b;" horiz-adv-x="522" 
d="M544 518l-89 -499q-2 -8 -8 -14t-14 -6h-8q-13 0 -13 16v3v1l2 16q-42 -19 -82 -30.5t-79 -11.5q-32 0 -60 8t-49 25.5t-33 44.5t-12 66q0 11 1 22.5t3 25.5l60 333q2 8 8 13.5t14 5.5h7q15 0 15 -16v-3l-60 -333q-2 -13 -3 -25t-1 -23q0 -59 32 -82t80 -23q38 0 81.5 12
t84.5 30l79 444q2 8 8 13.5t14 5.5h6q16 0 16 -16v-3zM540 697l-2 -11q-2 -8 -8.5 -12t-14.5 -4h-266q-17 0 -17 13v3l2 11q2 8 8.5 11.5t14.5 3.5h266q17 0 17 -12v-3z" />
    <glyph glyph-name="Ubreve" unicode="&#x16c;" horiz-adv-x="633" 
d="M681 724l-81 -460q-11 -65 -32.5 -115t-56 -84.5t-82.5 -52.5t-113 -18q-102 0 -149.5 51.5t-47.5 140.5q0 18 2 37.5t6 40.5l81 460q2 8 7 13.5t13 5.5h10q14 0 14 -16v-3l-81 -460q-4 -22 -6 -41.5t-2 -37.5q0 -75 37.5 -112.5t122.5 -37.5q100 0 156.5 58t76.5 171
l81 460q2 8 7 13.5t13 5.5h10q14 0 14 -16v-3zM623 943q0 -5 -1 -8q-11 -65 -55 -104t-113 -39q-24 0 -46 8.5t-38.5 24t-26 37.5t-9.5 48v12t2 13q2 8 4.5 12.5t10.5 4.5h20q9 0 9 -7v-4.5t-1 -5.5q-2 -7 -2 -13v-11q0 -24 9 -39t22 -24t27.5 -12t25.5 -3q15 0 33.5 4.5
t35.5 16t30.5 31t18.5 50.5q2 11 4 14t10 3h20q10 0 10 -9z" />
    <glyph glyph-name="ubreve" unicode="&#x16d;" horiz-adv-x="522" 
d="M544 518l-89 -499q-2 -8 -8 -14t-14 -6h-8q-13 0 -13 16v3v1l2 16q-42 -19 -82 -30.5t-79 -11.5q-32 0 -60 8t-49 25.5t-33 44.5t-12 66q0 11 1 22.5t3 25.5l60 333q2 8 8 13.5t14 5.5h7q15 0 15 -16v-3l-60 -333q-2 -13 -3 -25t-1 -23q0 -59 32 -82t80 -23q38 0 81.5 12
t84.5 30l79 444q2 8 8 13.5t14 5.5h6q16 0 16 -16v-3zM545 769q0 -5 -1 -8q-11 -65 -55 -104t-113 -39q-24 0 -46 8.5t-38.5 24t-26 37.5t-9.5 48v12t2 13q2 8 4.5 12.5t10.5 4.5h20q9 0 9 -7v-4.5t-1 -5.5q-2 -7 -2 -13v-11q0 -24 9 -39t22 -24t27.5 -12t25.5 -3
q15 0 33.5 4.5t35.5 16t30.5 31t18.5 50.5q2 11 4 14t10 3h20q10 0 10 -9z" />
    <glyph glyph-name="Uring" unicode="&#x16e;" horiz-adv-x="633" 
d="M681 724l-81 -460q-11 -65 -32.5 -115t-56 -84.5t-82.5 -52.5t-113 -18q-102 0 -149.5 51.5t-47.5 140.5q0 18 2 37.5t6 40.5l81 460q2 8 7 13.5t13 5.5h10q14 0 14 -16v-3l-81 -460q-4 -22 -6 -41.5t-2 -37.5q0 -75 37.5 -112.5t122.5 -37.5q100 0 156.5 58t76.5 171
l81 460q2 8 7 13.5t13 5.5h10q14 0 14 -16v-3zM553 875q0 -19 -7.5 -36t-20 -29.5t-29.5 -20t-36 -7.5t-36 7.5t-29.5 20t-20 29.5t-7.5 36t7.5 36t20 29.5t29.5 20t36 7.5t36 -7.5t29.5 -20t20 -29.5t7.5 -36zM518 875q0 24 -17 41t-41 17t-40.5 -17t-16.5 -41t16.5 -41
t40.5 -17t41 17t17 41z" />
    <glyph glyph-name="uring" unicode="&#x16f;" horiz-adv-x="522" 
d="M544 518l-89 -499q-2 -8 -8 -14t-14 -6h-8q-13 0 -13 16v3v1l2 16q-42 -19 -82 -30.5t-79 -11.5q-32 0 -60 8t-49 25.5t-33 44.5t-12 66q0 11 1 22.5t3 25.5l60 333q2 8 8 13.5t14 5.5h7q15 0 15 -16v-3l-60 -333q-2 -13 -3 -25t-1 -23q0 -59 32 -82t80 -23q38 0 81.5 12
t84.5 30l79 444q2 8 8 13.5t14 5.5h6q16 0 16 -16v-3zM469 698q0 -19 -7.5 -36t-20 -29.5t-29.5 -20t-36 -7.5t-36 7.5t-29.5 20t-20 29.5t-7.5 36t7.5 36t20 29.5t29.5 20t36 7.5t36 -7.5t29.5 -20t20 -29.5t7.5 -36zM434 698q0 24 -17 41t-41 17t-40.5 -17t-16.5 -41
t16.5 -41t40.5 -17t41 17t17 41z" />
    <glyph glyph-name="Uhungarumlaut" unicode="&#x170;" horiz-adv-x="633" 
d="M681 724l-81 -460q-11 -65 -32.5 -115t-56 -84.5t-82.5 -52.5t-113 -18q-102 0 -149.5 51.5t-47.5 140.5q0 18 2 37.5t6 40.5l81 460q2 8 7 13.5t13 5.5h10q14 0 14 -16v-3l-81 -460q-4 -22 -6 -41.5t-2 -37.5q0 -75 37.5 -112.5t122.5 -37.5q100 0 156.5 58t76.5 171
l81 460q2 8 7 13.5t13 5.5h10q14 0 14 -16v-3zM669 947q0 -4 -5 -9l-130 -128l-12.5 -12.5t-12.5 -4.5h-27q-8 0 -8 6q0 5 6 11l123 128q8 8 12.5 11.5t12.5 3.5h31q10 0 10 -6zM529 947q0 -4 -5 -9l-130 -128l-12.5 -12.5t-12.5 -4.5h-27q-8 0 -8 6q0 5 6 11l123 128
q8 8 12.5 11.5t12.5 3.5h31q10 0 10 -6z" />
    <glyph glyph-name="uhungarumlaut" unicode="&#x171;" horiz-adv-x="522" 
d="M544 518l-89 -499q-2 -8 -8 -14t-14 -6h-8q-13 0 -13 16v3v1l2 16q-42 -19 -82 -30.5t-79 -11.5q-32 0 -60 8t-49 25.5t-33 44.5t-12 66q0 11 1 22.5t3 25.5l60 333q2 8 8 13.5t14 5.5h7q15 0 15 -16v-3l-60 -333q-2 -13 -3 -25t-1 -23q0 -59 32 -82t80 -23q38 0 81.5 12
t84.5 30l79 444q2 8 8 13.5t14 5.5h6q16 0 16 -16v-3zM598 772q0 -4 -5 -9l-130 -128l-12.5 -12.5t-12.5 -4.5h-27q-8 0 -8 6q0 5 6 11l123 128q8 8 12.5 11.5t12.5 3.5h31q10 0 10 -6zM458 772q0 -4 -5 -9l-130 -128l-12.5 -12.5t-12.5 -4.5h-27q-8 0 -8 6q0 5 6 11
l123 128q8 8 12.5 11.5t12.5 3.5h31q10 0 10 -6z" />
    <glyph glyph-name="Uogonek" unicode="&#x172;" horiz-adv-x="633" 
d="M600 264q-17 -98 -54 -156t-101 -90l-97 -49q-44 -23 -68 -41.5t-24 -45.5q0 -26 20.5 -34t53.5 -8q23 0 46.5 4t37.5 8q4 1 9 1q7 0 7 -5v-2l-2 -15q-1 -8 -15 -11q-11 -3 -34.5 -8.5t-54.5 -5.5q-62 0 -85.5 21t-23.5 55q0 38 28 61t77 49l4 2h-8q-102 0 -149.5 51.5
t-47.5 140.5q0 18 2 37.5t6 40.5l81 460q2 8 7 13.5t13 5.5h10q14 0 14 -16v-3l-81 -460q-4 -22 -6 -41.5t-2 -37.5q0 -75 37.5 -112.5t122.5 -37.5q100 0 156.5 58t76.5 171l81 460q2 8 7 13.5t13 5.5h10q14 0 14 -16z" />
    <glyph glyph-name="uogonek" unicode="&#x173;" horiz-adv-x="522" 
d="M381 -31q-44 -23 -68 -41.5t-24 -45.5q0 -26 18.5 -34t40.5 -8q19 0 37 3.5t32 7.5q10 2 11 2q5 0 5 -4v-3l-2 -15q-1 -5 -3.5 -8t-11.5 -5q-11 -3 -30.5 -7.5t-43.5 -4.5q-49 0 -71.5 21t-22.5 55q0 38 28 62t77 48l59 29l2 14q-42 -19 -82 -30.5t-79 -11.5q-32 0 -60 8
t-49 25.5t-33 44.5t-12 66q0 11 1 22.5t3 25.5l60 333q2 8 8 13.5t14 5.5h7q15 0 15 -16v-3l-60 -333q-2 -13 -3 -25t-1 -23q0 -59 32 -82t80 -23q38 0 81.5 12t84.5 30l79 444q2 8 8 13.5t14 5.5h6q16 0 16 -16v-3l-89 -499q-2 -14 -13 -19z" />
    <glyph glyph-name="Wcircumflex" unicode="&#x174;" horiz-adv-x="788" 
d="M870 729q0 -3 -2 -9l-243 -679q-17 -47 -54 -47q-23 0 -30.5 13.5t-9.5 31.5l-54 387q-1 8 -2.5 10t-3.5 2t-4 -2t-6 -10l-190 -387q-9 -18 -21 -31.5t-35 -13.5q-40 0 -40 47l-3 679q0 9 5.5 16t14.5 7h8q6 0 10.5 -4t4.5 -12l1 -677q0 -15 5 -15q3 0 4.5 3.5t5.5 11.5
l193 389q11 22 22.5 30.5t31.5 8.5q17 0 25 -9.5t11 -29.5l57 -389q1 -15 6 -15t10 15l240 677q3 8 9 12t12 4h8q14 0 14 -14zM679 802q0 -9 -10 -9h-19q-8 0 -11 4.5t-8 12.5l-74 113l-114 -113l-12.5 -12.5t-12.5 -4.5h-25q-8 0 -8 6q0 5 6 11l123 128q8 8 12.5 11.5
t12.5 3.5h40q8 0 12 -3.5t9 -11.5l77 -128q2 -3 2 -8z" />
    <glyph glyph-name="wcircumflex" unicode="&#x175;" horiz-adv-x="752" 
d="M794 522q0 -3 -2 -9l-191 -463q-12 -29 -25.5 -42.5t-34.5 -13.5q-26 0 -33 15.5t-10 43.5l-39 378q-1 8 -2 10t-3 2t-4 -2t-5 -10l-173 -378q-13 -28 -25 -43.5t-38 -15.5q-21 0 -29.5 13.5t-10.5 42.5l-29 463v1q0 9 6.5 16t16.5 7h4q6 0 9.5 -4.5t3.5 -9.5l27 -463
q1 -19 3.5 -23t5.5 -4t6 4.5t11 21.5l176 386q18 38 49 38q14 0 24.5 -9t12.5 -29l40 -386q2 -17 4.5 -21.5t5.5 -4.5t6.5 4t11.5 23l189 463q2 5 7.5 9.5t11.5 4.5h8q8 0 11.5 -4.5t3.5 -10.5zM627 627q0 -9 -10 -9h-19q-8 0 -11 4.5t-8 12.5l-74 113l-114 -113
l-12.5 -12.5t-12.5 -4.5h-25q-8 0 -8 6q0 5 6 11l123 128q8 8 12.5 11.5t12.5 3.5h40q8 0 12 -3.5t9 -11.5l77 -128q2 -3 2 -8z" />
    <glyph glyph-name="Ycircumflex" unicode="&#x176;" horiz-adv-x="550" 
d="M634 732q0 -6 -6 -16l-219 -349q-17 -28 -31.5 -40.5t-26.5 -17.5l-51 -290q-2 -8 -7 -13.5t-13 -5.5h-10q-7 0 -10.5 4.5t-3.5 10.5v4l51 290q-11 5 -19.5 17.5t-16.5 40.5l-97 349q-1 3 -1 9q0 18 20 18h8q5 0 8.5 -3.5t5.5 -8.5l95 -350q6 -22 10.5 -28.5t13.5 -6.5
t15.5 6.5t20.5 28.5l219 350q3 5 8 8.5t10 3.5h12q15 0 15 -11zM559 802q0 -9 -10 -9h-19q-8 0 -11 4.5t-8 12.5l-74 113l-114 -113l-12.5 -12.5t-12.5 -4.5h-25q-8 0 -8 6q0 5 6 11l123 128q8 8 12.5 11.5t12.5 3.5h40q8 0 12 -3.5t9 -11.5l77 -128q2 -3 2 -8z" />
    <glyph glyph-name="ycircumflex" unicode="&#x177;" horiz-adv-x="486" 
d="M539 525q0 -6 -3 -13l-264 -568q-18 -38 -34.5 -64.5t-37 -43t-48 -24t-66.5 -7.5q-17 0 -32.5 2t-28.5 4q-8 2 -13 4t-5 8v2l2 11q3 14 19 14h5q11 -2 31 -4t32 -2q27 0 46.5 5t35 18t28.5 33.5t27 52.5l21 47h-12q-23 0 -34.5 10t-16.5 46l-55 457v3q0 9 6 15t15 6h7
q5 0 8.5 -4.5t4.5 -9.5l54 -460q2 -16 5 -19t14 -3h23l222 483q2 5 8.5 9t12.5 4h11q12 0 12 -12zM493 627q0 -9 -10 -9h-19q-8 0 -11 4.5t-8 12.5l-74 113l-114 -113l-12.5 -12.5t-12.5 -4.5h-25q-8 0 -8 6q0 5 6 11l123 128q8 8 12.5 11.5t12.5 3.5h40q8 0 12 -3.5
t9 -11.5l77 -128q2 -3 2 -8z" />
    <glyph glyph-name="Ydieresis" unicode="&#x178;" horiz-adv-x="550" 
d="M634 732q0 -6 -6 -16l-219 -349q-17 -28 -31.5 -40.5t-26.5 -17.5l-51 -290q-2 -8 -7 -13.5t-13 -5.5h-10q-7 0 -10.5 4.5t-3.5 10.5v4l51 290q-11 5 -19.5 17.5t-16.5 40.5l-97 349q-1 3 -1 9q0 18 20 18h8q5 0 8.5 -3.5t5.5 -8.5l95 -350q6 -22 10.5 -28.5t13.5 -6.5
t15.5 6.5t20.5 28.5l219 350q3 5 8 8.5t10 3.5h12q15 0 15 -11zM530 897l-13 -74q-2 -8 -8.5 -13.5t-14.5 -5.5h-6q-15 0 -15 15v4l13 74q2 8 8 13.5t14 5.5h6q16 0 16 -16v-3zM380 897l-13 -74q-2 -8 -8.5 -13.5t-14.5 -5.5h-6q-15 0 -15 15v4l13 74q2 8 8 13.5t14 5.5h6
q16 0 16 -16v-3z" />
    <glyph glyph-name="Zacute" unicode="&#x179;" horiz-adv-x="595" 
d="M628 700q0 -16 -13 -34l-484 -611q-4 -4 -4 -8q0 -6 11 -6h383q8 0 13.5 -4t5.5 -10v-1v-1l-2 -10q-2 -8 -9 -11.5t-15 -3.5h-385q-23 0 -35 14t-12 31q0 18 11 32l486 612q4 4 4 8q0 5 -7 5h-362q-7 0 -13 4t-6 11v1v1l2 10q2 8 9 11t15 3h355q26 0 39 -13t13 -30z
M554 947q0 -4 -5 -9l-119 -128l-12.5 -12.5t-12.5 -4.5h-26q-8 0 -8 6q0 5 6 11l112 128q8 9 12.5 12t12.5 3h30q10 0 10 -6z" />
    <glyph glyph-name="zacute" unicode="&#x17a;" horiz-adv-x="446" 
d="M481 496q0 -26 -20 -47l-358 -389q-3 -4 -5.5 -7t-3.5 -5q0 -7 9 -7h290q6 0 12 -2.5t6 -9.5v-3l-2 -10q-2 -8 -8.5 -12t-14.5 -4h-289q-20 0 -32 13.5t-12 30.5q0 9 3.5 18.5t11.5 17.5l367 397q5 5 5 11q0 8 -12 8h-263q-6 0 -11.5 2.5t-5.5 9.5v3l2 10q2 8 8.5 12
t14.5 4h255q28 0 40.5 -12t12.5 -29zM482 772q0 -4 -5 -9l-119 -128l-12.5 -12.5t-12.5 -4.5h-26q-8 0 -8 6q0 5 6 11l112 128q8 9 12.5 12t12.5 3h30q10 0 10 -6z" />
    <glyph glyph-name="Zdotaccent" unicode="&#x17b;" horiz-adv-x="595" 
d="M628 700q0 -16 -13 -34l-484 -611q-4 -4 -4 -8q0 -6 11 -6h383q8 0 13.5 -4t5.5 -10v-1v-1l-2 -10q-2 -8 -9 -11.5t-15 -3.5h-385q-23 0 -35 14t-12 31q0 18 11 32l486 612q4 4 4 8q0 5 -7 5h-362q-7 0 -13 4t-6 11v1v1l2 10q2 8 9 11t15 3h355q26 0 39 -13t13 -30z
M459 911l-13 -74q-2 -8 -8 -13.5t-14 -5.5h-6q-16 0 -16 16v3l13 74q2 8 8.5 13.5t14.5 5.5h6q15 0 15 -16v-3z" />
    <glyph glyph-name="zdotaccent" unicode="&#x17c;" horiz-adv-x="446" 
d="M481 496q0 -26 -20 -47l-358 -389q-3 -4 -5.5 -7t-3.5 -5q0 -7 9 -7h290q6 0 12 -2.5t6 -9.5v-3l-2 -10q-2 -8 -8.5 -12t-14.5 -4h-289q-20 0 -32 13.5t-12 30.5q0 9 3.5 18.5t11.5 17.5l367 397q5 5 5 11q0 8 -12 8h-263q-6 0 -11.5 2.5t-5.5 9.5v3l2 10q2 8 8.5 12
t14.5 4h255q28 0 40.5 -12t12.5 -29zM370 734l-13 -74q-2 -8 -8 -13.5t-14 -5.5h-6q-16 0 -16 16v3l13 74q2 8 8.5 13.5t14.5 5.5h6q15 0 15 -16v-3z" />
    <glyph glyph-name="Zcaron" unicode="&#x17d;" horiz-adv-x="595" 
d="M628 700q0 -16 -13 -34l-484 -611q-4 -4 -4 -8q0 -6 11 -6h383q8 0 13.5 -4t5.5 -10v-1v-1l-2 -10q-2 -8 -9 -11.5t-15 -3.5h-385q-23 0 -35 14t-12 31q0 18 11 32l486 612q4 4 4 8q0 5 -7 5h-362q-7 0 -13 4t-6 11v1v1l2 10q2 8 9 11t15 3h355q26 0 39 -13t13 -30z
M606 948q0 -5 -6 -11l-122 -128q-8 -8 -13 -11.5t-13 -3.5h-40q-8 0 -11.5 3.5t-8.5 11.5l-78 128q-2 3 -2 8q0 9 10 9h20q8 0 11 -4.5t8 -12.5l74 -113l114 113l12.5 12.5t12.5 4.5h24q8 0 8 -6z" />
    <glyph glyph-name="zcaron" unicode="&#x17e;" horiz-adv-x="446" 
d="M481 496q0 -26 -20 -47l-358 -389q-3 -4 -5.5 -7t-3.5 -5q0 -7 9 -7h290q6 0 12 -2.5t6 -9.5v-3l-2 -10q-2 -8 -8.5 -12t-14.5 -4h-289q-20 0 -32 13.5t-12 30.5q0 9 3.5 18.5t11.5 17.5l367 397q5 5 5 11q0 8 -12 8h-263q-6 0 -11.5 2.5t-5.5 9.5v3l2 10q2 8 8.5 12
t14.5 4h255q28 0 40.5 -12t12.5 -29zM515 772q0 -5 -6 -11l-122 -128q-8 -8 -13 -11.5t-13 -3.5h-40q-8 0 -11.5 3.5t-8.5 11.5l-78 128q-2 3 -2 8q0 9 10 9h20q8 0 11 -4.5t8 -12.5l74 -113l114 113l12.5 12.5t12.5 4.5h24q8 0 8 -6z" />
    <glyph glyph-name="florin" unicode="&#x192;" 
d="M618 733q0 -3 -1 -4l-3 -7q-3 -7 -8 -10t-16 -3h-50q-35 0 -55 -17t-31 -62l-50 -218h149q14 0 14 -13v-4l-2 -9q-2 -8 -8.5 -12.5t-14.5 -4.5h-149l-87 -375q-8 -35 -21 -57.5t-30 -36t-39 -19t-49 -5.5q-23 0 -32 0.5t-19 2.5q-17 3 -17 12q0 1 0.5 1.5t0.5 2.5l2 7
q4 13 25 13h50q35 0 54.5 17t30.5 62l87 375h-129q-15 0 -15 13v4l2 9q2 8 9 12.5t15 4.5h129l50 218q16 69 51 93.5t89 24.5q23 0 31.5 -0.5t18.5 -2.5q18 -3 18 -12z" />
    <glyph glyph-name="AEacute" unicode="&#x1fc;" horiz-adv-x="879" 
d="M950 726l-1 -8q-1 -8 -7.5 -12t-14.5 -4h-335l-52 -291h335q7 0 12 -3t5 -10v-3l-2 -10q-3 -17 -22 -17h-335l-51 -287q-1 -5 -1.5 -9t-0.5 -8q0 -12 7 -17.5t27 -5.5h296q16 0 16 -13v-3l-1 -8q-1 -8 -7.5 -12.5t-14.5 -4.5h-296q-36 0 -53.5 15.5t-17.5 44.5
q0 5 0.5 10.5t1.5 10.5l36 200h-268l-130 -271q-2 -5 -8 -9t-11 -4h-13q-13 0 -13 12q0 3 1 6t3 7l323 672q11 23 30 36t44 13h502q16 0 16 -14v-3zM425 702q-9 0 -16 -5.5t-11 -13.5l-173 -358h256l67 377h-123zM775 947q0 -4 -5 -9l-119 -128l-12.5 -12.5t-12.5 -4.5h-26
q-8 0 -8 6q0 5 6 11l112 128q8 9 12.5 12t12.5 3h30q10 0 10 -6z" />
    <glyph glyph-name="aeacute" unicode="&#x1fd;" horiz-adv-x="830" 
d="M835 368q0 -31 -6 -64l-5 -27q-2 -8 -8.5 -13.5t-14.5 -5.5h-338l-9 -54l-6 -34t-3 -34q0 -19 5 -37t22 -32q25 -22 60.5 -28t72.5 -6q33 0 73 4.5t78 12.5q2 0 3 0.5t3 0.5q13 0 13 -11v-2v-1l-2 -7q-2 -8 -6.5 -12.5t-15.5 -6.5q-38 -8 -78.5 -12.5t-74.5 -4.5
q-44 0 -84.5 8.5t-69.5 32.5q-8 6 -19 20.5t-16 27.5q-12 -14 -27 -29.5t-38.5 -29t-57 -22t-81.5 -8.5q-24 0 -47 7t-42 22.5t-30.5 39t-11.5 56.5q0 8 0.5 17t2.5 19l3 13q9 41 27.5 70t50 48t79 27.5t115.5 8.5h79l6 36q6 33 6 57q0 47 -24 67.5t-82 20.5
q-25 0 -43.5 -0.5t-35 -2t-32 -3t-33.5 -3.5h-1h-3q-7 0 -12 2.5t-5 9.5q0 1 0.5 1.5t0.5 1.5l1 6q3 15 26 18q16 2 31 3.5t31.5 3t36 2t44.5 0.5q69 0 102 -29t38 -68q30 49 78.5 73t108.5 24q42 0 73 -12.5t51.5 -35.5t30.5 -55t10 -71zM792 374q0 63 -29.5 96t-97.5 33
q-41 0 -73 -14.5t-56.5 -40.5t-40.5 -62.5t-23 -81.5l-1 -6h313l1 6q3 20 5 37t2 33zM345 282q-57 0 -95.5 -5.5t-64 -19t-40 -35.5t-21.5 -54l-3 -13q-2 -10 -2.5 -19t-0.5 -17q0 -48 26 -67t65 -19q88 0 136.5 40.5t64.5 130.5l14 78h-79zM656 772q0 -4 -5 -9l-119 -128
l-12.5 -12.5t-12.5 -4.5h-26q-8 0 -8 6q0 5 6 11l112 128q8 9 12.5 12t12.5 3h30q10 0 10 -6z" />
    <glyph glyph-name="Oslashacute" unicode="&#x1fe;" horiz-adv-x="632" 
d="M728 734q0 -6 -4 -10l-84 -94q17 -45 17 -105q0 -41 -9 -92l-22 -124q-15 -86 -45 -146t-70.5 -97.5t-90 -54.5t-105.5 -17q-57 0 -101.5 19t-71.5 60l-60 -67q-5 -6 -10 -9t-13 -3h-16q-9 0 -9 9q0 6 4 10l85 95q-18 45 -18 108q0 42 9 93l22 124q16 89 45.5 149.5
t70 97t90.5 52.5t106 16q58 0 102.5 -20t71.5 -62l60 67q5 6 9 8t12 2h16q9 0 9 -9zM592 632q-22 41 -61.5 57.5t-90.5 16.5q-46 0 -87 -13.5t-75 -45.5t-59 -84t-39 -130l-22 -124q-9 -54 -9 -95q0 -20 2 -36.5t6 -31.5zM613 527q0 38 -7 65l-434 -485q21 -38 60 -54.5
t90 -16.5q46 0 88 15t75.5 48t58.5 84.5t38 125.5l22 124q9 52 9 94zM596 947q0 -4 -5 -9l-119 -128l-12.5 -12.5t-12.5 -4.5h-26q-8 0 -8 6q0 5 6 11l112 128q8 9 12.5 12t12.5 3h30q10 0 10 -6z" />
    <glyph glyph-name="oslashacute" unicode="&#x1ff;" horiz-adv-x="522" 
d="M599 562q0 -7 -6 -13l-84 -91q17 -39 17 -89q0 -30 -6 -66l-12 -70q-20 -115 -80 -177t-168 -62q-87 0 -130 49l-62 -68q-7 -7 -10 -8.5t-8 -1.5h-25q-7 0 -7 6q0 7 6 13l85 92q-19 41 -19 93q0 29 6 64l12 70q20 118 81.5 178.5t167.5 60.5q88 0 131 -51l61 67
q7 7 10 8.5t8 1.5h25q7 0 7 -6zM460 460q-32 43 -110 43q-85 0 -133.5 -55t-64.5 -145l-12 -70q-3 -19 -5 -36t-2 -33q0 -31 7 -53zM483 372q0 27 -6 50l-319 -348q32 -41 109 -41q43 0 76.5 14.5t57.5 40.5t39.5 63t23.5 82l12 70q3 19 5 36t2 33zM510 772q0 -4 -5 -9
l-119 -128l-12.5 -12.5t-12.5 -4.5h-26q-8 0 -8 6q0 5 6 11l112 128q8 9 12.5 12t12.5 3h30q10 0 10 -6z" />
    <glyph glyph-name="uni0218" unicode="&#x218;" horiz-adv-x="530" 
d="M582 723l-2 -13q-1 -13 -18 -13h-3q-28 2 -68.5 5.5t-78.5 3.5q-36 0 -73.5 -4.5t-68 -19t-50 -42t-19.5 -72.5q0 -41 28.5 -72.5t80.5 -66.5l52 -35q41 -28 69.5 -52t46 -46.5t25.5 -44t8 -43.5q0 -59 -22.5 -99.5t-60 -66t-86 -37t-100.5 -11.5q-43 0 -82 3.5t-71 7.5
q-6 1 -10.5 4t-4.5 10v2l2 13q2 8 6 10t9 2h5q38 -4 74.5 -7.5t78.5 -3.5q43 0 82 8.5t68.5 28t47 52t17.5 79.5q0 21 -7 38.5t-22 35.5t-39.5 37.5t-60.5 43.5l-51 35q-58 40 -93 79t-35 91q0 56 23.5 92t61 56.5t85 28.5t95.5 8q40 0 77.5 -3.5t69.5 -6.5q14 -2 14 -12v-2
v-1zM264 -48q10 0 10 -9q0 -6 -4 -12l-76 -107q-6 -9 -11.5 -14t-15.5 -5h-9q-8 0 -8 8q0 2 3 8l64 112q10 19 23 19h24z" />
    <glyph glyph-name="uni0219" unicode="&#x219;" horiz-adv-x="440" 
d="M463 516l-1 -8q-1 -9 -4 -11.5t-11 -2.5q-1 0 -4 0.5t-4 0.5q-9 1 -24.5 2t-34.5 2.5t-39.5 2.5t-39.5 1q-62 0 -96 -19.5t-34 -75.5q0 -26 21.5 -48t59.5 -45l60 -37q30 -18 49.5 -33.5t31.5 -30t17 -30t5 -34.5q0 -44 -16.5 -74t-44 -48t-63.5 -26t-75 -8
q-16 0 -35.5 1t-39 3t-37.5 4.5t-31 5.5q-6 2 -12.5 4t-6.5 10v2l2 11q2 8 4.5 10t7.5 2t9 -1q41 -6 81 -9.5t67 -3.5q66 0 106 26t40 91q0 25 -19 44.5t-68 48.5l-58 35q-42 26 -70.5 56.5t-28.5 71.5q0 39 14.5 65t38.5 42t55.5 22.5t65.5 6.5q54 0 86.5 -3t57.5 -6
q7 -1 12.5 -4t5.5 -11v-2zM234 -48q10 0 10 -9q0 -6 -4 -12l-76 -107q-6 -9 -11.5 -14t-15.5 -5h-9q-8 0 -8 8q0 2 3 8l64 112q10 19 23 19h24z" />
    <glyph glyph-name="uni021A" unicode="&#x21a;" horiz-adv-x="571" 
d="M669 725l-2 -9q-3 -14 -21 -14h-214l-121 -683q-2 -8 -7 -13.5t-13 -5.5h-10q-7 0 -10.5 4.5t-3.5 10.5v4l121 683h-215q-17 0 -17 14v3l2 9q3 15 22 15h473q16 0 16 -14v-4zM296 -48q10 0 10 -9q0 -6 -4 -12l-76 -107q-6 -9 -11.5 -14t-15.5 -5h-9q-8 0 -8 8q0 2 3 8
l64 112q10 19 23 19h24z" />
    <glyph glyph-name="uni021B" unicode="&#x21b;" horiz-adv-x="380" 
d="M432 521l-2 -10q-3 -15 -22 -15h-118l-70 -394q-3 -17 -3 -27q0 -29 16 -35.5t44 -6.5h48q7 0 12.5 -2t5.5 -9v-3l-1 -6q-1 -6 -5 -10t-15 -6t-25 -2.5t-27 -0.5q-46 0 -71.5 17.5t-25.5 59.5q0 14 3 31l70 394h-100q-16 0 -16 13v4l2 10q2 9 8 11.5t14 2.5h100l16 93
q2 8 7 13.5t13 5.5h11q13 0 13 -14v-5l-16 -93h118q7 0 11.5 -2t4.5 -10v-4zM242 -48q10 0 10 -9q0 -6 -4 -12l-76 -107q-6 -9 -11.5 -14t-15.5 -5h-9q-8 0 -8 8q0 2 3 8l64 112q10 19 23 19h24z" />
    <glyph glyph-name="circumflex" unicode="&#x2c6;" horiz-adv-x="330" 
d="M422 627q0 -9 -10 -9h-19q-8 0 -11 4.5t-8 12.5l-74 113l-114 -113l-12.5 -12.5t-12.5 -4.5h-25q-8 0 -8 6q0 5 6 11l123 128q8 8 12.5 11.5t12.5 3.5h40q8 0 12 -3.5t9 -11.5l77 -128q2 -3 2 -8z" />
    <glyph glyph-name="caron" unicode="&#x2c7;" horiz-adv-x="330" 
d="M448 772q0 -5 -6 -11l-122 -128q-8 -8 -13 -11.5t-13 -3.5h-40q-8 0 -11.5 3.5t-8.5 11.5l-78 128q-2 3 -2 8q0 9 10 9h20q8 0 11 -4.5t8 -12.5l74 -113l114 113l12.5 12.5t12.5 4.5h24q8 0 8 -6z" />
    <glyph glyph-name="uni02C9" unicode="&#x2c9;" horiz-adv-x="330" 
d="M444 715l-2 -11q-2 -8 -8.5 -12t-14.5 -4h-266q-17 0 -17 13v3l2 11q2 8 8.5 11.5t14.5 3.5h266q17 0 17 -12v-3z" />
    <glyph glyph-name="breve" unicode="&#x2d8;" horiz-adv-x="330" 
d="M443 769q0 -5 -1 -8q-11 -65 -55 -104t-113 -39q-24 0 -46 8.5t-38.5 24t-26 37.5t-9.5 48v12t2 13q2 8 4.5 12.5t10.5 4.5h20q9 0 9 -7v-4.5t-1 -5.5q-2 -7 -2 -13v-11q0 -24 9 -39t22 -24t27.5 -12t25.5 -3q15 0 33.5 4.5t35.5 16t30.5 31t18.5 50.5q2 11 4 14t10 3h20
q10 0 10 -9z" />
    <glyph glyph-name="dotaccent" unicode="&#x2d9;" horiz-adv-x="330" 
d="M316 734l-13 -74q-2 -8 -8 -13.5t-14 -5.5h-6q-16 0 -16 16v3l13 74q2 8 8.5 13.5t14.5 5.5h6q15 0 15 -16v-3z" />
    <glyph glyph-name="ring" unicode="&#x2da;" horiz-adv-x="330" 
d="M382 698q0 -19 -7.5 -36t-20 -29.5t-29.5 -20t-36 -7.5t-36 7.5t-29.5 20t-20 29.5t-7.5 36t7.5 36t20 29.5t29.5 20t36 7.5t36 -7.5t29.5 -20t20 -29.5t7.5 -36zM347 698q0 24 -17 41t-41 17t-40.5 -17t-16.5 -41t16.5 -41t40.5 -17t41 17t17 41z" />
    <glyph glyph-name="ogonek" unicode="&#x2db;" horiz-adv-x="330" 
d="M258 -169q-1 -8 -15 -11q-11 -3 -34.5 -8.5t-54.5 -5.5q-62 0 -85.5 21t-23.5 55q0 38 28 61t77 49l72 38q5 2 8 2.5t6 0.5h39q9 0 9 -6q-2 -6 -8 -8l-98 -50q-44 -23 -68 -41.5t-24 -45.5q0 -26 20.5 -34t53.5 -8q23 0 46.5 4t37.5 8q11 3 14 0.5t2 -6.5z" />
    <glyph glyph-name="tilde" unicode="&#x2dc;" horiz-adv-x="491" 
d="M535 752q0 -2 -0.5 -3.5t-0.5 -3.5l-4 -26q-7 -46 -31.5 -68t-60.5 -22q-20 0 -37.5 6t-38.5 32l-28 34q-10 12 -20 19t-22 7q-18 0 -32.5 -9.5t-19.5 -41.5l-4 -26q-2 -8 -4 -12t-9 -4h-21q-9 0 -9 9q0 2 0.5 3.5t0.5 3.5l4 26q7 46 32 68t62 22q20 0 36.5 -6.5
t36.5 -30.5l29 -35q21 -26 44 -26q18 0 31.5 9.5t18.5 41.5l4 26q2 8 4 12t9 4h21q9 0 9 -9z" />
    <glyph glyph-name="hungarumlaut" unicode="&#x2dd;" horiz-adv-x="330" 
d="M503 772q0 -4 -5 -9l-130 -128l-12.5 -12.5t-12.5 -4.5h-27q-8 0 -8 6q0 5 6 11l123 128q8 8 12.5 11.5t12.5 3.5h31q10 0 10 -6zM363 772q0 -4 -5 -9l-130 -128l-12.5 -12.5t-12.5 -4.5h-27q-8 0 -8 6q0 5 6 11l123 128q8 8 12.5 11.5t12.5 3.5h31q10 0 10 -6z" />
    <glyph glyph-name="uni03A9" unicode="&#x3a9;" horiz-adv-x="616" 
d="M439 748q98 0 154 -55.5t56 -167.5q0 -43 -9 -92l-4 -24q-13 -73 -33.5 -124t-47.5 -85.5t-60.5 -55.5t-71.5 -34l-12 -69h148q19 0 16 -16l-2 -8q-2 -17 -21 -17h-169q-9 0 -13 3t-6 7t-1 11l19 105q1 8 3.5 12t13.5 6q34 9 64.5 28t55 51t43.5 78t30 108l4 24
q9 51 9 90q0 51 -13 85.5t-36 56.5t-54.5 31.5t-69.5 9.5q-45 0 -86.5 -14t-75.5 -46t-59.5 -84.5t-38.5 -128.5l-4 -24q-9 -53 -9 -93q0 -77 29 -117.5t79 -54.5q9 -2 10.5 -6t0.5 -12l-19 -105q-1 -7 -4 -11t-8 -7t-14 -3h-169q-19 0 -17 17l2 8q3 16 22 16h148l12 69
q-54 20 -84.5 75.5t-30.5 136.5q0 20 1.5 42t6.5 45l4 24q15 88 44.5 148.5t70 97.5t90.5 53t106 16z" />
    <glyph glyph-name="uni03BC" unicode="&#x3bc;" horiz-adv-x="521" 
d="M542 518l-84 -480q-1 -6 -6 -11t-10 -7q-39 -12 -87.5 -19t-88.5 -7q-51 0 -87 15.5t-56 44.5l-40 -230q-2 -8 -7 -13.5t-13 -5.5h-10q-14 0 -14 16v3l122 694q2 8 8.5 13.5t14.5 5.5h7q14 0 14 -16v-3l-58 -333q-4 -23 -4 -46q0 -56 32 -81t98 -25q32 0 72.5 5.5
t70.5 13.5l82 466q2 8 8.5 13.5t14.5 5.5h6q15 0 15 -16v-3z" />
    <glyph glyph-name="pi" unicode="&#x3c0;" horiz-adv-x="552" 
d="M519 504l-65 -370q-4 -23 -6.5 -40t-2.5 -28q0 -17 8 -24.5t28 -7.5h23q13 0 18.5 -2.5t3.5 -13.5l-1 -4q-4 -12 -13.5 -15.5t-38.5 -3.5q-41 0 -56 20.5t-15 52.5q0 17 3 35.5t6 36.5l64 364h-273l-85 -485q-2 -8 -6 -13.5t-16 -5.5h-6q-11 0 -14.5 5.5t-1.5 13.5
l85 485h-69q-8 0 -12.5 4t-2.5 15l1 5q2 11 6.5 15t15.5 4h499q8 0 13 -3.5t3 -15.5l-1 -5q-2 -12 -8.5 -15.5t-14.5 -3.5h-69z" />
    <glyph glyph-name="afii10023" unicode="&#x401;" horiz-adv-x="533" 
d="M480 17q-2 -17 -21 -17h-258q-57 0 -84.5 28t-16.5 91l91 512q6 34 17.5 55.5t28 34t39 17.5t50.5 5h264q18 0 16 -17l-2 -8q-3 -16 -22 -16h-258q-18 0 -32.5 -2.5t-26 -10t-19 -21.5t-11.5 -37l-39 -220h335q19 0 16 -16l-2 -10q-1 -8 -7.5 -12.5t-14.5 -4.5h-335
l-45 -256q-4 -23 -1 -37t11.5 -21.5t22.5 -10t32 -2.5h258q19 0 16 -16zM527 832q-2 -8 -8 -13.5t-14 -5.5h-6q-8 0 -13 5.5t-3 13.5l13 74q2 8 8.5 13.5t14.5 5.5h6q8 0 12.5 -5.5t2.5 -13.5zM377 832q-2 -8 -8 -13.5t-14 -5.5h-6q-8 0 -13 5.5t-3 13.5l13 74q2 8 8.5 13.5
t14.5 5.5h6q8 0 12.5 -5.5t2.5 -13.5z" />
    <glyph glyph-name="afii10051" unicode="&#x402;" horiz-adv-x="813" 
d="M527 32q45 0 80 8t61.5 29t44 56.5t27.5 90.5l2 13q2 12 3 22.5t1 20.5q0 38 -13.5 61.5t-36.5 36t-52.5 17t-62.5 4.5q-20 0 -46.5 -2t-55 -5.5t-56.5 -8.5t-51 -12l-61 -344q-2 -8 -7 -13.5t-13 -5.5h-10q-8 0 -12 5.5t-2 13.5l120 683h-215q-19 0 -16 15l2 9
q1 8 7.5 12.5t14.5 4.5h473q18 0 16 -17l-2 -9q-3 -15 -22 -15h-214l-52 -299q58 18 114.5 24.5t96.5 6.5q42 0 78.5 -8.5t63.5 -27.5t42.5 -50t15.5 -75q0 -12 -1.5 -24.5t-3.5 -26.5l-2 -13q-12 -67 -36.5 -109t-58.5 -66t-77 -32.5t-91 -8.5h-14q-18 0 -17 16l1 8
q1 10 8 12.5t15 2.5h14z" />
    <glyph glyph-name="afii10052" unicode="&#x403;" horiz-adv-x="518" 
d="M127 19q-2 -8 -5.5 -13.5t-14.5 -5.5h-10q-17 0 -14 19l108 612q6 34 17.5 56t29 34.5t41 17t53.5 4.5h258q20 0 16 -17l-2 -8q-3 -11 -8.5 -13.5t-13.5 -2.5h-258q-18 0 -32.5 -2.5t-26 -10t-19 -21.5t-11.5 -37zM587 947q0 -4 -5 -8l-129 -128l-12.5 -12.5t-12.5 -4.5
h-22q-10 0 -8 7q0 5 6 10l122 128q8 8 13 11.5t13 3.5h26q10 0 9 -7z" />
    <glyph glyph-name="afii10053" unicode="&#x404;" horiz-adv-x="544" 
d="M181 364l-8 -44q-15 -87 -8.5 -143t29 -87.5t59 -43.5t81.5 -12q35 0 70 3.5t69 8.5q20 3 16 -16l-1 -5q-2 -11 -7.5 -14.5t-15.5 -5.5q-26 -5 -62 -8.5t-76 -3.5q-50 0 -93.5 15t-72.5 52.5t-39 102.5t8 166l17 98q18 100 50 162t74 96.5t90.5 46t98.5 11.5
q40 0 74 -3.5t59 -8.5q8 -2 13.5 -5.5t2.5 -14.5l-1 -4q-2 -11 -6 -15t-16 -2q-32 5 -65.5 8.5t-68.5 3.5q-45 0 -85.5 -11t-74.5 -42t-60 -86.5t-42 -144.5l-2 -11h304q17 0 16 -16l-1 -10q-1 -11 -7.5 -14t-14.5 -3h-304z" />
    <glyph glyph-name="afii10054" unicode="&#x405;" horiz-adv-x="530" 
d="M241 -6q-49 0 -86.5 3.5t-66.5 8.5q-18 3 -15 17l2 13q2 8 8 9.5t12 1.5h6q38 -3 72 -7t76 -4q59 0 100 13.5t66.5 37.5t36.5 56t11 68q0 21 -7.5 37.5t-23 32.5t-39 33t-56.5 40l-56 39q-30 21 -55.5 41.5t-42 44.5t-23 53.5t0.5 68.5q7 43 32 71.5t61 45.5t79 23.5
t87 6.5q40 0 78 -3.5t70 -6.5q7 -1 11.5 -4.5t2.5 -10.5l-2 -13q-3 -14 -22 -14q-8 0 -24.5 1.5t-36.5 3.5t-41 3.5t-37 1.5q-105 0 -155 -29t-61 -92q-4 -23 1 -42.5t19 -37t36 -35.5t52 -38l57 -39q33 -22 59 -42.5t44 -41.5t28 -45t10 -53q0 -42 -13 -81t-44.5 -69
t-83 -48.5t-127.5 -18.5z" />
    <glyph glyph-name="afii10055" unicode="&#x406;" horiz-adv-x="224" 
d="M137 19q-2 -8 -6 -13.5t-14 -5.5h-10q-9 0 -12.5 5.5t-1.5 13.5l124 705q2 8 6 13.5t15 5.5h10q9 0 12 -5.5t1 -13.5l-124 -705v0z" />
    <glyph glyph-name="afii10056" unicode="&#x407;" horiz-adv-x="224" 
d="M354 833q-2 -8 -8 -13.5t-14 -5.5h-6q-8 0 -13 5.5t-3 13.5l13 74q2 8 8.5 13.5t14.5 5.5h6q8 0 12.5 -5.5t2.5 -13.5zM204 833q-2 -8 -8 -13.5t-14 -5.5h-6q-8 0 -13 5.5t-3 13.5l13 74q2 8 8.5 13.5t14.5 5.5h6q8 0 12.5 -5.5t2.5 -13.5zM137 19q-2 -8 -6 -13.5
t-14 -5.5h-10q-9 0 -12.5 5.5t-1.5 13.5l124 705q2 8 6 13.5t15 5.5h10q9 0 12 -5.5t1 -13.5z" />
    <glyph glyph-name="afii10057" unicode="&#x408;" horiz-adv-x="224" 
d="M123 -60q-6 -35 -16 -60.5t-28.5 -42t-48 -24.5t-74.5 -8h-14q-8 0 -13.5 3t-3.5 14l1 7q2 10 8.5 12.5t14.5 2.5h14q30 0 50 4t33 14.5t20.5 29t12.5 48.5l138 784q2 8 6 13.5t15 5.5h10q8 0 11.5 -5.5t1.5 -13.5l-138 -784v0z" />
    <glyph glyph-name="afii10058" unicode="&#x409;" horiz-adv-x="987" 
d="M433 702q-13 0 -17.5 -5t-8.5 -13l-324 -679q-2 -5 -6 -9t-12 -4h-13q-11 0 -13 7t3 18l325 677q6 13 12 22.5t14 15.5t19.5 8.5t28.5 2.5h178q12 0 17 -6.5t3 -15.5l-53 -299q60 6 126 6q47 0 95.5 -9t85.5 -33.5t55 -66.5t5 -108l-3 -15q-13 -66 -46 -106t-77 -61.5
t-94.5 -28.5t-97.5 -7q-39 0 -77 2t-71 6q-19 1 -16 19l120 682h-158zM518 39q32 -2 59.5 -4t64.5 -2q45 0 88 6.5t78.5 24.5t61.5 51.5t37 87.5l3 15q11 54 -3 87.5t-44 51.5t-71.5 24.5t-86.5 6.5q-37 0 -65.5 -2t-60.5 -4z" />
    <glyph glyph-name="afii10059" unicode="&#x40a;" horiz-adv-x="1023" 
d="M641 422q60 6 126 6q49 0 98 -9t85 -32.5t53.5 -65.5t4.5 -108l-3 -15q-13 -66 -46 -106.5t-77 -62t-94.5 -29t-97.5 -7.5q-39 0 -77.5 2t-71.5 6q-8 0 -12 5.5t-2 13.5l63 357h-400l-63 -358q-2 -8 -7 -13.5t-13 -5.5h-10q-9 0 -12.5 5.5t-1.5 13.5l124 705q2 8 7 13.5
t14 5.5h10q10 0 12.5 -5.5t0.5 -13.5l-54 -306h400l54 306q2 8 6 13.5t15 5.5h9q10 0 12.5 -5.5t0.5 -13.5zM573 39q32 -2 59.5 -4t64.5 -2q45 0 88 6.5t78.5 24.5t61.5 51.5t37 87.5l3 15q11 54 -3 87.5t-44 51.5t-71.5 24.5t-86.5 6.5q-37 0 -65.5 -2t-60.5 -4z" />
    <glyph glyph-name="afii10060" unicode="&#x40b;" horiz-adv-x="775" 
d="M311 19q-2 -8 -5.5 -13.5t-14.5 -5.5h-10q-9 0 -12.5 5.5t-1.5 13.5l120 683h-215q-19 0 -15 19l1 5q2 11 8 14t14 3h473q8 0 13 -5t3 -14l-2 -7q-3 -11 -8.5 -13t-13.5 -2h-214l-46 -261q17 7 40.5 14.5t50 13.5t54 9.5t53.5 3.5q41 0 74 -7t56 -23t35.5 -43t12.5 -67
q0 -26 -6 -59l-47 -264q-2 -8 -6 -13.5t-16 -5.5h-7q-9 0 -13 5.5t-2 13.5l48 272q2 14 3.5 27t1.5 24q0 59 -35.5 80t-107.5 21q-48 0 -101 -11.5t-95 -29.5z" />
    <glyph glyph-name="afii10061" unicode="&#x40c;" horiz-adv-x="542" 
d="M504 30q7 -8 4.5 -20t-17.5 -12q-7 0 -12 2t-10 9l-281 357l-61 -347q-2 -8 -5.5 -13.5t-14.5 -5.5h-10q-10 0 -13 5.5t-1 13.5l124 705q2 8 7 13.5t16 5.5h6q10 0 13.5 -5.5t1.5 -13.5l-56 -320l398 332q9 7 15.5 9t15.5 2q8 0 11 -4.5t3 -10.5q0 -11 -11 -20l-399 -331
zM577 947q0 -4 -5 -8l-129 -128l-12.5 -12.5t-12.5 -4.5h-22q-10 0 -8 7q0 5 6 10l122 128q8 8 13 11.5t13 3.5h26q10 0 9 -7z" />
    <glyph glyph-name="afii10062" unicode="&#x40e;" horiz-adv-x="588" 
d="M641 742q14 0 15.5 -8t-3.5 -17l-320 -585q-21 -39 -39.5 -65.5t-39.5 -43t-48 -23.5t-64 -7q-17 0 -32 2t-29 4q-11 2 -17.5 7.5t-2.5 16.5l1 3q4 11 11.5 12t15.5 0q12 -2 31.5 -4t29.5 -2q28 0 47.5 5t35 17.5t29.5 33.5t31 53l61 114h-2q-31 0 -42.5 12t-18.5 44
l-88 407q-3 14 2.5 19t14.5 5h6q10 0 14 -3.5t6 -13.5l87 -407q3 -14 6.5 -18t12.5 -4h25l236 433q7 13 24 13h4zM611 937q-11 -63 -52 -103t-109 -40q-62 0 -94.5 32t-32.5 83q0 15 3 32q1 5 3.5 9t10.5 4h19q8 0 9 -3t0 -10q-2 -8 -2 -14.5v-13.5q0 -24 7.5 -39t19.5 -24
t27 -12t30 -3t33.5 4t35.5 15t30 31t19 52q2 11 4 14t10 3h20q8 0 9.5 -4.5t-0.5 -12.5z" />
    <glyph glyph-name="afii10145" unicode="&#x40f;" horiz-adv-x="647" 
d="M570 19q-2 -9 -5.5 -14t-14.5 -5h-205l-21 -114q-1 -8 -5 -13.5t-15 -5.5h-9q-17 0 -14 19l21 114h-205q-10 0 -13 5.5t-1 13.5l124 705q2 8 6 13.5t15 5.5h10q10 0 12.5 -5.5t0.5 -13.5l-120 -683h400l120 683q2 8 6 13.5t15 5.5h9q10 0 12.5 -5.5t0.5 -13.5z" />
    <glyph glyph-name="afii10017" unicode="&#x410;" horiz-adv-x="619" 
d="M556 -3q-11 0 -14 4t-4 9l-36 271h-288l-130 -271q-2 -5 -6 -9t-16 -4h-9q-11 0 -12.5 9t2.5 16l325 677q11 23 29.5 36t43.5 13q24 0 38.5 -12.5t17.5 -35.5l85 -678q2 -10 -1 -17.5t-17 -7.5h-8zM454 688q-1 8 -5 14t-15 6t-16.5 -5.5t-9.5 -13.5l-174 -364h265z" />
    <glyph glyph-name="afii10018" unicode="&#x411;" 
d="M580 743q8 0 12.5 -4t2.5 -16l-1 -5q-2 -10 -7.5 -13t-14.5 -3h-325l-49 -280q30 3 64 4.5t82 1.5q37 0 77 -7t73 -25t54.5 -50t21.5 -82q0 -11 -1 -24t-4 -27l-3 -15q-13 -66 -43.5 -106.5t-72.5 -62t-93.5 -29t-105.5 -7.5q-39 0 -77 2t-71 6q-19 1 -16 19l124 704
q2 8 6.5 13.5t14.5 5.5h352zM130 39q32 -2 59.5 -4t64.5 -2q49 0 92.5 6.5t78 24.5t59 51.5t35.5 87.5l3 15q2 13 3.5 24t1.5 22q0 39 -15.5 63t-42.5 37.5t-63 18.5t-76 5q-23 0 -41.5 -0.5t-35 -1.5t-31.5 -2t-31 -2z" />
    <glyph glyph-name="afii10019" unicode="&#x412;" 
d="M99 1q-19 1 -16 19l124 703q2 8 8 13t14 6q32 2 72.5 4t78.5 2q49 0 93 -6.5t77.5 -24t53.5 -49t20 -80.5v-12.5t-2 -21.5q-6 -63 -46 -105.5t-103 -58.5q97 -28 97 -129q0 -10 -1 -22.5t-6 -35.5q-12 -66 -43 -107.5t-74.5 -64t-95 -30.5t-103.5 -8q-39 0 -77 2t-71 6z
M377 412q52 0 89 11.5t61 31t36 45.5t15 56q2 13 2 18.5v10.5q0 40 -16.5 64.5t-45 37.5t-65.5 17.5t-79 4.5q-33 0 -66.5 -1.5t-59.5 -2.5l-52 -293h181zM130 39q32 -2 59.5 -4t64.5 -2q46 0 90 6t79.5 24.5t60.5 52t35 87.5q5 23 6 35.5t1 22.5q0 24 -8 44t-26 34.5
t-48 22t-74 7.5h-181z" />
    <glyph glyph-name="afii10020" unicode="&#x413;" horiz-adv-x="518" 
d="M127 19q-2 -8 -5.5 -13.5t-14.5 -5.5h-10q-17 0 -14 19l108 612q6 34 17.5 56t29 34.5t41 17t53.5 4.5h258q20 0 16 -17l-2 -8q-3 -11 -8.5 -13.5t-13.5 -2.5h-258q-18 0 -32.5 -2.5t-26 -10t-19 -21.5t-11.5 -37z" />
    <glyph glyph-name="afii10021" unicode="&#x414;" horiz-adv-x="685" 
d="M62 23q3 18 19 18h24l315 658q11 23 28 36t45 13q27 0 40 -12.5t16 -35.5l83 -659h27q17 0 13 -19l-21 -122q-2 -8 -5.5 -13.5t-14.5 -5.5h-10q-9 0 -12.5 5.5t-1.5 13.5l18 100h-523l-18 -100q-2 -8 -6 -13.5t-17 -5.5h-7q-9 0 -12.5 5.5t-1.5 13.5zM154 41h434l-80 647
q-1 8 -5 14t-15 6t-16.5 -5.5t-9.5 -13.5z" />
    <glyph glyph-name="afii10022" unicode="&#x415;" horiz-adv-x="533" 
d="M480 17q-4 -17 -21 -17h-258q-49 0 -76.5 19.5t-27.5 67.5q0 16 3 34l93 519q11 60 46.5 81.5t92.5 21.5h258q8 0 13 -4t3 -13l-2 -8q-3 -16 -22 -16h-258q-18 0 -32.5 -2.5t-26 -10t-19 -21.5t-11.5 -37l-39 -220h335q19 0 16 -16l-2 -10q-2 -11 -8 -14t-14 -3h-335
l-45 -256q-2 -7 -2 -13v-11q0 -31 18 -39t49 -8h258q19 0 15 -19l-1 -5v0z" />
    <glyph glyph-name="afii10024" unicode="&#x416;" horiz-adv-x="880" 
d="M545 724q2 8 7 13.5t16 5.5h6q16 0 16 -12q0 -2 -1 -7l-56 -320l398 332q9 8 15 9.5t14 1.5q16 0 16 -14q0 -13 -15 -25l-393 -326l280 -356q8 -10 2 -19t-20 -9q-5 0 -11 1.5t-10 6.5l-283 360l-61 -347q-2 -8 -5.5 -13.5t-14.5 -5.5h-10q-10 0 -13 5.5t-1 13.5l61 347
l-402 -354q-11 -9 -17.5 -11.5t-17.5 -2.5q-15 0 -15 15q0 5 3.5 9.5t8.5 9.5l406 356l-279 326q-5 7 -5 15q0 9 6.5 13.5t15.5 4.5q5 0 10 -2t11 -9l282 -332z" />
    <glyph glyph-name="afii10025" unicode="&#x417;" 
d="M531 199q-10 -57 -34.5 -96t-61 -63t-83 -35t-100.5 -11q-45 0 -83 4.5t-66 10.5q-16 3 -15 18l1 6q4 19 23 16q31 -5 69 -9t73 -4q103 0 160 39t71 131l3 20q1 5 1.5 10.5t0.5 11.5q0 20 -5.5 41.5t-19 39t-36.5 29t-57 11.5h-185q-21 0 -18 18l1 7q2 11 8 14.5t17 3.5
h184q43 0 73.5 14.5t50 36t30 46t13.5 44.5q3 19 4 30t1 19q0 61 -45.5 82.5t-133.5 21.5q-35 0 -73.5 -4.5t-68.5 -9.5q-5 -1 -9 -1q-16 0 -13 16l2 8q2 11 7.5 13.5t13.5 4.5q30 5 69 10t79 5q51 0 92 -7t69 -24t43 -44.5t15 -68.5q0 -11 -1 -23.5t-5 -33.5
q-8 -48 -38.5 -90.5t-93.5 -68.5q22 -11 36.5 -27t23.5 -34.5t12.5 -38.5t3.5 -38q0 -8 -0.5 -16t-1.5 -15l-3 -20v0z" />
    <glyph glyph-name="afii10026" unicode="&#x418;" horiz-adv-x="651" 
d="M137 36q4 0 9 7l455 674q9 14 20.5 22.5t32.5 8.5q20 0 31 -10.5t11 -28.5q0 -2 -0.5 -6.5t-3.5 -20.5l-117 -663q-2 -8 -6 -13.5t-14 -5.5h-10q-9 0 -12.5 5.5t-1.5 13.5l120 680q1 7 -4 7t-9 -7l-456 -675q-11 -17 -23 -23.5t-29 -6.5q-21 0 -31.5 10.5t-10.5 27.5
q0 4 1 16t2 15l117 661q2 8 6 13.5t15 5.5h12q9 0 11.5 -5.5t0.5 -13.5l-120 -679q-2 -9 4 -9z" />
    <glyph glyph-name="afii10027" unicode="&#x419;" horiz-adv-x="651" 
d="M627 937q-11 -63 -52 -103t-109 -40q-62 0 -94.5 32t-32.5 83q0 15 3 32q1 5 3.5 9t10.5 4h19q8 0 9 -3t0 -10q-2 -8 -2 -14.5v-13.5q0 -24 7.5 -39t19.5 -24t27 -12t30 -3t33.5 4t35.5 15t30 31t19 52q2 11 4 14t10 3h20q8 0 9.5 -4.5t-0.5 -12.5zM137 36q4 0 9 7
l455 674q9 14 20.5 22.5t32.5 8.5q20 0 31 -10.5t11 -28.5q0 -2 -0.5 -6.5t-3.5 -20.5l-117 -663q-2 -8 -6 -13.5t-14 -5.5h-10q-9 0 -12.5 5.5t-1.5 13.5l120 680q1 7 -4 7t-9 -7l-456 -675q-11 -17 -23 -23.5t-29 -6.5q-21 0 -31.5 10.5t-10.5 27.5q0 4 1 16t2 15l117 661
q2 8 6 13.5t15 5.5h12q9 0 11.5 -5.5t0.5 -13.5l-120 -679q-2 -9 4 -9z" />
    <glyph glyph-name="afii10028" unicode="&#x41a;" horiz-adv-x="542" 
d="M504 30q7 -8 4.5 -20t-17.5 -12q-7 0 -12 2t-10 9l-281 357l-61 -347q-2 -8 -5.5 -13.5t-14.5 -5.5h-10q-10 0 -13 5.5t-1 13.5l124 705q2 8 7 13.5t16 5.5h6q10 0 13.5 -5.5t1.5 -13.5l-56 -320l398 332q9 7 15 9t13 2q10 0 13.5 -4.5t3.5 -10.5q0 -11 -11 -20
l-399 -331l276 -351v0z" />
    <glyph glyph-name="afii10029" unicode="&#x41b;" horiz-adv-x="619" 
d="M456 688q-1 8 -5 14t-15 6t-16.5 -5.5t-9.5 -13.5l-324 -679q-2 -5 -6 -9t-15 -4h-12q-11 0 -12.5 8.5t2.5 16.5l325 677q11 23 27.5 36t43.5 13q26 0 40.5 -12.5t17.5 -35.5l85 -678q2 -11 -2 -18t-18 -7h-7q-8 0 -11 4t-4 9z" />
    <glyph glyph-name="afii10030" unicode="&#x41c;" horiz-adv-x="730" 
d="M653 19q-2 -8 -5 -13.5t-15 -5.5h-10q-11 0 -13.5 5.5t-0.5 13.5l120 680q1 7 -6 7q-6 0 -12 -9l-237 -365q-14 -22 -27 -29t-30 -7t-27.5 7t-17.5 29l-109 365q-3 9 -8 9q-7 0 -8 -7l-120 -680q-2 -8 -5.5 -13.5t-14.5 -5.5h-10q-9 0 -12.5 5.5t-1.5 13.5l120 680
q5 25 20.5 37t38.5 12q18 0 27.5 -9t13.5 -22l110 -367q4 -13 11 -13q5 0 8 4t7 9l240 367q8 13 20 22t29 9q21 0 33 -9.5t12 -30.5v-7t-1 -8l-119 -674v0z" />
    <glyph glyph-name="afii10031" unicode="&#x41d;" horiz-adv-x="647" 
d="M570 19q-2 -8 -5.5 -13.5t-14.5 -5.5h-9q-10 0 -13 5.5t-1 13.5l63 358h-400l-63 -358q-2 -8 -6 -13.5t-14 -5.5h-10q-9 0 -12.5 5.5t-1.5 13.5l124 705q2 8 6 13.5t15 5.5h10q16 0 12 -24l-53 -301h400l54 306q2 8 6.5 13.5t14.5 5.5h9q16 0 13 -19l-124 -705v0z" />
    <glyph glyph-name="afii10032" unicode="&#x41e;" horiz-adv-x="632" 
d="M624 301q-15 -84 -44 -142t-69 -95t-88.5 -53.5t-102.5 -16.5q-98 0 -156 55t-58 171q0 44 9 97l22 124q15 84 44 142t69 95t88.5 53.5t102.5 16.5q49 0 88.5 -13.5t67.5 -41.5t43 -70.5t15 -100.5q0 -45 -9 -97zM604 433q9 51 9 90q0 51 -13 85.5t-36 56.5t-54.5 31.5
t-69.5 9.5q-45 0 -86 -12.5t-75 -44t-59.5 -84t-39.5 -132.5l-22 -124q-9 -51 -9 -90q0 -51 13 -85.5t36 -56.5t54.5 -31.5t69.5 -9.5q48 0 89 13.5t74.5 45t58 84t38.5 130.5z" />
    <glyph glyph-name="afii10033" unicode="&#x41f;" horiz-adv-x="647" 
d="M637 643q5 30 -3.5 44.5t-47.5 14.5h-279q-35 0 -50 -14.5t-20 -44.5l-110 -624q-2 -8 -6 -13.5t-14 -5.5h-10q-9 0 -12.5 5.5t-1.5 13.5l110 624q6 33 17.5 52.5t27.5 30t35.5 14t41.5 3.5h275q19 0 37.5 -3.5t32.5 -14.5t20.5 -31t0.5 -53l-110 -622q-2 -8 -5.5 -13.5
t-14.5 -5.5h-10q-10 0 -13 5.5t-1 13.5z" />
    <glyph glyph-name="afii10034" unicode="&#x420;" horiz-adv-x="540" 
d="M597 521q-11 -59 -36.5 -98.5t-65 -63.5t-91.5 -34.5t-116 -10.5q-29 0 -58.5 1t-49.5 3l-53 -299q-2 -8 -5.5 -13.5t-14.5 -5.5h-10q-9 0 -12.5 5.5t-1.5 13.5l124 705q2 8 6 13t15 6q36 3 70 4t66 1q119 0 179.5 -39t60.5 -123q0 -25 -4 -48zM557 545q2 11 3 21.5
t1 19.5q0 69 -52 96t-151 27q-32 0 -60 -0.5t-50 -2.5l-62 -349q23 -2 53 -3t56 -1q60 0 105 9.5t76.5 30.5t50.5 54t27 81z" />
    <glyph glyph-name="afii10035" unicode="&#x421;" horiz-adv-x="537" 
d="M501 24q-2 -8 -5.5 -13t-17.5 -7q-20 -2 -62.5 -6t-109.5 -4q-41 0 -77.5 11.5t-64 38t-43.5 68.5t-16 102q0 22 2.5 47t7.5 52l24 132q16 90 45.5 148.5t69 93t88 48t102.5 13.5q63 0 103.5 -4t60.5 -6q10 -2 13.5 -6t1.5 -15l-1 -6q-3 -15 -22 -14l-32.5 2.5t-42 3
t-46.5 2.5t-45 1q-48 0 -88 -13.5t-72 -45t-55.5 -83t-37.5 -127.5l-24 -132q-9 -53 -9 -93q0 -50 12.5 -83.5t34 -54t51.5 -29.5t65 -9q64 0 105.5 3.5t68.5 5.5q6 1 12.5 -1.5t4.5 -12.5l-1 -7v0z" />
    <glyph glyph-name="afii10036" unicode="&#x422;" horiz-adv-x="571" 
d="M667 717q-2 -11 -8 -13t-14 -2h-214l-120 -683q-2 -8 -5 -13.5t-15 -5.5h-10q-9 0 -12.5 5.5t-1.5 13.5l120 683h-215q-18 0 -15 18l1 6q2 11 8 14t14 3h469q22 0 19 -20l-1 -6v0z" />
    <glyph glyph-name="afii10037" unicode="&#x423;" horiz-adv-x="588" 
d="M641 742q14 0 15.5 -8t-3.5 -17l-320 -585q-21 -39 -39.5 -65.5t-39.5 -43t-48 -23.5t-64 -7q-17 0 -32 2t-29 4q-11 2 -17.5 7.5t-2.5 16.5l1 3q4 11 11.5 12t15.5 0q12 -2 31.5 -4t29.5 -2q28 0 47.5 5t35 17.5t29.5 33.5t31 53l61 114h-2q-31 0 -42.5 12t-18.5 44
l-88 407q-3 14 2.5 19t14.5 5h6q10 0 14 -3.5t6 -13.5l87 -407q3 -14 6.5 -18t12.5 -4h25l236 433q7 13 24 13h4z" />
    <glyph glyph-name="afii10038" unicode="&#x424;" horiz-adv-x="816" 
d="M813 435q8 46 -1 77.5t-33.5 51t-63.5 27.5t-91 8q-32 0 -49.5 -0.5t-39.5 -2.5l-62 -349q23 -2 42.5 -3t45.5 -1q109 0 170.5 40t78.5 135zM422 208q-21 -2 -41 -3t-49 -1q-107 0 -167 41.5t-60 129.5q0 11 1 23t3 26l3 17q10 55 35 93t63 61t88 33t111 10q24 0 46 -1
t42 -2l16 90q2 8 6 13.5t15 5.5h10q9 0 12 -5.5t1 -13.5l-16 -90q21 1 43.5 2t46.5 1q60 0 106.5 -11.5t76 -36.5t41 -64.5t1.5 -95.5l-3 -17q-11 -60 -36.5 -100.5t-63.5 -64.5t-88.5 -34t-110.5 -10q-29 0 -48 1t-40 3l-33 -189q-2 -8 -6 -13.5t-16 -5.5h-8
q-9 0 -12.5 5.5t-1.5 13.5zM152 418q-2 -12 -3 -23t-1 -22q0 -70 48 -100t143 -30q26 0 46.5 1t43.5 3l62 349q-22 2 -39.5 2.5t-49.5 0.5q-52 0 -94 -8t-73.5 -27.5t-51.5 -51t-28 -77.5z" />
    <glyph glyph-name="afii10039" unicode="&#x425;" horiz-adv-x="602" 
d="M539 0q-8 0 -12 3.5t-7 8.5l-159 330l-279 -333q-3 -3 -7 -6t-14 -3h-5q-14 0 -15 10t8 19l293 351l-163 336q-8 15 -2.5 21t16.5 6h9q11 0 14.5 -3.5t6.5 -9.5l150 -312l265 316q5 6 9.5 7.5t12.5 1.5h5q14 0 14 -11t-8 -19l-279 -334l170 -350q6 -13 0 -21t-17 -8h-6v0
z" />
    <glyph glyph-name="afii10040" unicode="&#x426;" horiz-adv-x="647" 
d="M651 724q2 8 6.5 13.5t15.5 5.5h5q14 0 16.5 -6.5t0.5 -15.5l-110 -621q-5 -26 -10 -37.5t-13 -21.5h53q18 0 27.5 -6.5t5.5 -26.5l-22 -122q-2 -11 -7 -15t-15 -4h-4q-20 0 -17 19l21 114h-414q-21 0 -40 4t-32.5 15.5t-19.5 32t0 53.5l109 619q2 8 6 13.5t16 5.5h5
q12 0 15.5 -6t1.5 -15l-110 -622q-5 -30 5 -44.5t45 -14.5h270q42 0 58.5 15t22.5 50z" />
    <glyph glyph-name="afii10041" unicode="&#x427;" horiz-adv-x="565" 
d="M218 743q10 0 13 -5.5t1 -13.5l-35 -196q-6 -33 -6 -57q0 -35 11.5 -57.5t36.5 -36t63.5 -19t91.5 -5.5q26 0 56 1t53 3l65 367q2 8 5.5 13.5t14.5 5.5h10q10 0 13 -5.5t1 -13.5l-124 -705q-2 -8 -6 -13.5t-14 -5.5h-10q-9 0 -12.5 5.5t-1.5 13.5l53 299q-22 -2 -51.5 -3
t-58.5 -1q-120 0 -179.5 34.5t-59.5 123.5q0 15 2 31.5t5 35.5l33 185q2 8 5.5 13.5t14.5 5.5h10v0z" />
    <glyph glyph-name="afii10042" unicode="&#x428;" horiz-adv-x="878" 
d="M815 100q-6 -33 -17.5 -52.5t-27.5 -30t-35 -14t-40 -3.5h-511q-17 0 -34.5 3.5t-31 15t-19.5 33.5t0 58l108 614q2 8 5.5 13.5t15.5 5.5h6q20 0 17 -19l-110 -624q-5 -30 5 -44.5t45 -14.5h234l120 683q2 8 5.5 13.5t16.5 5.5h8q10 0 12.5 -5.5t0.5 -13.5l-120 -683h234
q35 0 50 14.5t20 44.5l110 624q2 8 6 13.5t15 5.5h9q10 0 12.5 -5.5t0.5 -13.5z" />
    <glyph glyph-name="afii10043" unicode="&#x429;" horiz-adv-x="878" 
d="M851 41q16 0 23.5 -6t4.5 -24l-22 -125q-1 -8 -5 -13.5t-15 -5.5h-9q-11 0 -13.5 5.5t-0.5 13.5l21 114h-651q-16 0 -32 2.5t-28.5 10.5t-20 23t-7.5 40q0 15 3 35l108 613q2 8 6 13.5t15 5.5h10q10 0 12.5 -5.5t0.5 -13.5l-110 -624q-2 -7 -2 -12.5v-10.5
q0 -21 12 -28.5t40 -7.5h234l120 683q2 8 6 13.5t15 5.5h9q10 0 12.5 -5.5t0.5 -13.5l-120 -683h233q35 0 50.5 14.5t20.5 44.5l110 624q2 8 6 13.5t15 5.5h10q11 0 13 -5.5t0 -13.5l-110 -624q-3 -20 -9 -34t-14 -25h58z" />
    </font>
</defs>
</svg>
